<svg width="93" height="93" viewBox="0 0 93 93" fill="none" xmlns="http://www.w3.org/2000/svg">
<path d="M77.0156 93H15.9844C11.9734 92.995 8.72372 89.7454 8.71875 85.7344V7.26562C8.72372 3.25463 11.9734 0.00496675 15.9844 0H62.4844C62.8697 0 63.2393 0.153259 63.5118 0.42572L83.8555 20.7695C84.128 21.0419 84.2812 21.4116 84.2812 21.7969V85.7344C84.2763 89.7454 81.0266 92.995 77.0156 93ZM15.9844 2.90625C13.5769 2.90625 11.625 4.85818 11.625 7.26562V85.7344C11.625 88.1418 13.5769 90.0938 15.9844 90.0938H77.0156C79.4231 90.0938 81.375 88.1418 81.375 85.7344V22.3986L61.8827 2.90625H15.9844Z" fill="#333333"/>
<path d="M37.7813 50.8593C37.396 50.8593 37.0263 50.7061 36.7538 50.4336L22.2226 35.9024C21.672 35.3319 21.6798 34.4258 22.2403 33.8653C22.8009 33.3048 23.7069 33.297 24.2774 33.8476L38.8087 48.3788C39.2237 48.7946 39.3486 49.4197 39.1237 49.9625C38.8988 50.5053 38.3687 50.8593 37.7813 50.8593Z" fill="#333333"/>
<path d="M23.25 50.8593C22.6625 50.8593 22.1325 50.5053 21.9076 49.9625C21.6826 49.4197 21.8075 48.7946 22.2226 48.3788L36.7538 33.8476C37.3243 33.297 38.2304 33.3048 38.7909 33.8653C39.3515 34.4258 39.3593 35.3319 38.8087 35.9024L24.2774 50.4336C24.0049 50.7061 23.6353 50.8593 23.25 50.8593Z" fill="#333333"/>
<path d="M69.75 50.8593C69.3647 50.8593 68.9951 50.7061 68.7226 50.4336L54.1913 35.9024C53.6407 35.3319 53.6486 34.4258 54.2091 33.8653C54.7696 33.3048 55.6757 33.297 56.2462 33.8476L70.7774 48.3788C71.1925 48.7946 71.3174 49.4197 71.0924 49.9625C70.8675 50.5053 70.3375 50.8593 69.75 50.8593Z" fill="#333333"/>
<path d="M55.2188 50.8593C54.6313 50.8593 54.1012 50.5053 53.8763 49.9625C53.6514 49.4197 53.7763 48.7946 54.1913 48.3788L68.7226 33.8476C69.2931 33.297 70.1991 33.3048 70.7597 33.8653C71.3202 34.4258 71.328 35.3319 70.7774 35.9024L56.2462 50.4336C55.9737 50.7061 55.604 50.8593 55.2188 50.8593Z" fill="#333333"/>
<path d="M65.3906 78.4688C64.5881 78.4688 63.9375 77.8181 63.9375 77.0156C63.9375 67.3851 56.1305 59.5781 46.5 59.5781C36.8695 59.5781 29.0625 67.3851 29.0625 77.0156C29.0625 77.8181 28.4119 78.4688 27.6094 78.4688C26.8069 78.4688 26.1562 77.8181 26.1562 77.0156C26.1562 65.7802 35.2645 56.6719 46.5 56.6719C57.7355 56.6719 66.8438 65.7802 66.8438 77.0156C66.8438 77.8181 66.1931 78.4688 65.3906 78.4688Z" fill="#333333"/>
<path d="M75.5625 23.25H68.2969C64.2859 23.245 61.0362 19.9954 61.0312 15.9844V8.71875C61.0312 7.91627 61.6819 7.26562 62.4844 7.26562C63.2869 7.26562 63.9375 7.91627 63.9375 8.71875V15.9844C63.9375 18.3918 65.8894 20.3438 68.2969 20.3438H75.5625C76.365 20.3438 77.0156 20.9944 77.0156 21.7969C77.0156 22.5994 76.365 23.25 75.5625 23.25Z" fill="#333333"/>
</svg>
