<svg width="70" height="70" viewBox="0 0 70 70" fill="none" xmlns="http://www.w3.org/2000/svg">
<path d="M64.1668 31.6458V24.5C64.1679 23.7107 64.0133 22.9288 63.7117 22.1994C63.4102 21.4699 62.9677 20.8071 62.4095 20.2489C61.8514 19.6908 61.1886 19.2482 60.4591 18.9467C59.7296 18.6452 58.9478 18.4905 58.1584 18.4917H54.2501L22.3126 5.19168C21.7695 4.96232 21.1861 4.84386 20.5966 4.84326C20.0071 4.84267 19.4235 4.95996 18.88 5.18823C18.3365 5.4165 17.8441 5.75115 17.4318 6.17248C17.0195 6.59382 16.6957 7.09335 16.4793 7.64168L12.1334 18.4917H8.92509C8.13574 18.4905 7.35392 18.6452 6.62444 18.9467C5.89495 19.2482 5.23214 19.6908 4.67399 20.2489C4.11583 20.8071 3.6733 21.4699 3.37177 22.1994C3.07023 22.9288 2.9156 23.7107 2.91675 24.5V59.15C2.9156 59.9394 3.07023 60.7212 3.37177 61.4507C3.6733 62.1802 4.11583 62.843 4.67399 63.4011C5.23214 63.9593 5.89495 64.4018 6.62444 64.7033C7.35392 65.0049 8.13574 65.1595 8.92509 65.1584H58.1584C58.9478 65.1595 59.7296 65.0049 60.4591 64.7033C61.1886 64.4018 61.8514 63.9593 62.4095 63.4011C62.9677 62.843 63.4102 62.1802 63.7117 61.4507C64.0133 60.7212 64.1679 59.9394 64.1668 59.15V52.0042C64.9468 51.9771 65.6861 51.6492 66.2298 51.0892C66.7735 50.5292 67.0794 49.7805 67.0834 49V34.65C67.0794 33.8695 66.7735 33.1209 66.2298 32.5609C65.6861 32.0009 64.9468 31.673 64.1668 31.6458ZM19.1918 8.72085C19.2617 8.5309 19.3705 8.3576 19.5111 8.21198C19.6517 8.06636 19.821 7.9516 20.0084 7.87501C20.3837 7.72944 20.7998 7.72944 21.1751 7.87501L46.6668 18.4917H39.6084L22.3418 12.7458C21.9855 12.6218 21.5951 12.6407 21.2525 12.7984C20.9099 12.9561 20.6417 13.2404 20.5043 13.5917L18.6084 18.4917H15.2834L19.1918 8.72085ZM30.3918 18.4917H21.7584L22.7209 15.9542L30.3918 18.4917ZM61.2501 59.15C61.2493 59.9697 60.9233 60.7557 60.3437 61.3353C59.7641 61.9149 58.9781 62.2409 58.1584 62.2417H8.92509C8.10536 62.2409 7.31944 61.9149 6.7398 61.3353C6.16017 60.7557 5.83419 59.9697 5.83342 59.15V24.5C5.83877 23.6817 6.16622 22.8984 6.74486 22.3198C7.32351 21.7411 8.10678 21.4137 8.92509 21.4083H58.1584C58.9767 21.4137 59.76 21.7411 60.3386 22.3198C60.9173 22.8984 61.2447 23.6817 61.2501 24.5V31.6167H48.1251C45.4177 31.6167 42.8211 32.6922 40.9067 34.6066C38.9923 36.5211 37.9168 39.1176 37.9168 41.825C37.9168 44.5324 38.9923 47.129 40.9067 49.0434C42.8211 50.9578 45.4177 52.0334 48.1251 52.0334H61.2501V59.15ZM64.1668 49C64.1647 49.0303 64.1518 49.0588 64.1303 49.0802C64.1089 49.1017 64.0804 49.1146 64.0501 49.1167H48.1251C46.1912 49.1167 44.3366 48.3485 42.9691 46.981C41.6016 45.6136 40.8334 43.7589 40.8334 41.825C40.8334 39.8911 41.6016 38.0365 42.9691 36.669C44.3366 35.3016 46.1912 34.5333 48.1251 34.5333L64.1668 34.65V49Z" fill="#2D3035"/>
<path d="M48.125 37.45C47.2597 37.45 46.4138 37.7065 45.6944 38.1873C44.9749 38.668 44.4142 39.3513 44.083 40.1507C43.7519 40.9501 43.6653 41.8298 43.8341 42.6785C44.0029 43.5271 44.4196 44.3067 45.0314 44.9185C45.6433 45.5304 46.4228 45.9471 47.2715 46.1159C48.1202 46.2847 48.9998 46.1981 49.7992 45.8669C50.5987 45.5358 51.2819 44.975 51.7627 44.2556C52.2434 43.5361 52.5 42.6902 52.5 41.825C52.5 40.6646 52.0391 39.5518 51.2186 38.7314C50.3981 37.9109 49.2853 37.45 48.125 37.45ZM48.125 43.2833C47.8366 43.2833 47.5546 43.1978 47.3148 43.0375C47.075 42.8773 46.8881 42.6495 46.7777 42.383C46.6673 42.1166 46.6384 41.8233 46.6947 41.5404C46.751 41.2576 46.8899 40.9977 47.0938 40.7938C47.2978 40.5898 47.5576 40.4509 47.8405 40.3946C48.1234 40.3384 48.4166 40.3672 48.6831 40.4776C48.9496 40.588 49.1773 40.7749 49.3376 41.0147C49.4978 41.2546 49.5833 41.5365 49.5833 41.825C49.5833 42.2117 49.4297 42.5827 49.1562 42.8561C48.8827 43.1296 48.5118 43.2833 48.125 43.2833Z" fill="#2D3035"/>
<path d="M20.4167 28.7C20.4167 29.0868 20.2631 29.4577 19.9896 29.7312C19.7161 30.0047 19.3452 30.1584 18.9584 30.1584H13.1251C12.7383 30.1584 12.3674 30.0047 12.0939 29.7312C11.8204 29.4577 11.6667 29.0868 11.6667 28.7C11.6667 28.3133 11.8204 27.9423 12.0939 27.6688C12.3674 27.3953 12.7383 27.2417 13.1251 27.2417H18.9584C19.3452 27.2417 19.7161 27.3953 19.9896 27.6688C20.2631 27.9423 20.4167 28.3133 20.4167 28.7Z" fill="#2D3035"/>
<path d="M26.2501 34.5333C26.2501 34.9201 26.0964 35.291 25.8229 35.5645C25.5495 35.838 25.1785 35.9916 24.7917 35.9916H13.1251C12.7383 35.9916 12.3674 35.838 12.0939 35.5645C11.8204 35.291 11.6667 34.9201 11.6667 34.5333C11.6667 34.1465 11.8204 33.7756 12.0939 33.5021C12.3674 33.2286 12.7383 33.075 13.1251 33.075H24.7917C25.1785 33.075 25.5495 33.2286 25.8229 33.5021C26.0964 33.7756 26.2501 34.1465 26.2501 34.5333Z" fill="#2D3035"/>
</svg>
