<svg width="18" height="18" viewBox="0 0 18 18" fill="none" xmlns="http://www.w3.org/2000/svg">
<g clip-path="url(#clip0_84_2)">
<path d="M14.245 1.6451L13.0626 0.462731C12.4458 -0.154098 11.4421 -0.154063 10.8253 0.462731L0.46373 10.8242C-0.154541 11.4425 -0.154612 12.4433 0.46373 13.0616L1.64606 14.244C1.80413 14.402 2.04456 14.4432 2.24626 14.3469C2.6487 14.1546 3.1312 14.2376 3.44687 14.5532C3.76255 14.8689 3.84541 15.3514 3.65317 15.7538C3.55684 15.9555 3.59808 16.196 3.75615 16.354L4.93848 17.5363C5.55675 18.1546 6.55753 18.1547 7.17587 17.5363C7.35552 17.3567 17.2637 7.44853 17.5374 7.17487C18.1542 6.55801 18.1542 5.55434 17.5374 4.93748L16.355 3.75515C16.197 3.59712 15.9565 3.55588 15.7548 3.65221C15.3524 3.84448 14.8699 3.76155 14.5542 3.44594C14.2386 3.13027 14.1557 2.64781 14.3479 2.24533C14.4442 2.0436 14.403 1.80313 14.245 1.6451ZM8.29457 14.9261L7.92169 14.5532C7.71578 14.3473 7.38186 14.3473 7.17591 14.5532C6.96996 14.7592 6.96996 15.093 7.17591 15.299L7.54878 15.6719L6.43008 16.7906C6.22392 16.9967 5.89042 16.9967 5.6843 16.7906L4.73893 15.8452C4.93078 15.1274 4.73116 14.3458 4.19269 13.8074C3.65419 13.2689 2.87286 13.0692 2.15489 13.2611L1.20952 12.3158C1.10992 12.2162 1.05507 12.0837 1.05507 11.9429C1.05507 11.802 1.10992 11.6696 1.20952 11.57L2.32821 10.4513L2.70112 10.8242C2.90704 11.0302 3.24096 11.0302 3.44691 10.8242C3.65286 10.6183 3.65286 10.2844 3.44691 10.0785L3.074 9.70554L9.70654 3.073L14.9271 8.29357L8.29457 14.9261ZM15.8462 4.73789L16.7916 5.68326C16.9972 5.88886 16.9972 6.22345 16.7916 6.42905L15.6729 7.54775L10.4523 2.32721L11.571 1.20852C11.7766 1.00292 12.1112 1.00288 12.3168 1.20852L13.2622 2.15389C13.0703 2.87172 13.27 3.65323 13.8084 4.19169C14.3469 4.73019 15.1283 4.92985 15.8462 4.73789Z" fill="#2D3035"/>
<path d="M4.93858 11.5699C4.73266 11.364 4.39874 11.364 4.19279 11.5699C3.98684 11.7759 3.98684 12.1098 4.19279 12.3157L5.68436 13.8073C5.89028 14.0132 6.2242 14.0132 6.43015 13.8073C6.6361 13.6013 6.6361 13.2675 6.43015 13.0615L4.93858 11.5699Z" fill="#2D3035"/>
<path d="M7.62014 7.10977C7.42963 7.04656 7.21974 7.09694 7.07873 7.23979C6.93771 7.38263 6.89 7.59315 6.95568 7.78286L7.38044 9.00948L6.61075 10.0548C6.49174 10.2164 6.4748 10.4316 6.56709 10.6099C6.65937 10.7881 6.84444 10.898 7.04554 10.8947L8.34339 10.8698L9.09969 11.9248C9.21684 12.0882 9.41632 12.1705 9.61414 12.1379C9.81218 12.1052 9.97454 11.963 10.0329 11.7709L10.4103 10.5289L11.6474 10.1356C11.8387 10.0748 11.9789 9.91063 12.009 9.71217C12.0391 9.51371 11.954 9.31535 11.7893 9.20049L10.7247 8.4578L10.733 7.15973C10.7343 6.95899 10.6215 6.77494 10.4421 6.68497C10.2626 6.59501 10.0477 6.61469 9.88756 6.73577L8.85219 7.51879L7.62014 7.10977ZM9.26721 8.52724L9.67145 8.22151L9.66822 8.7283C9.66709 8.90187 9.75147 9.06486 9.89382 9.16417L10.3095 9.45415L9.82649 9.60768C9.66108 9.66027 9.53212 9.79088 9.48167 9.95696L9.33433 10.4419L9.03908 10.03C8.9399 9.89168 8.78029 9.80987 8.61048 9.80987C8.60711 9.80987 8.09364 9.81971 8.09364 9.81971L8.39413 9.41161C8.49703 9.27183 8.52456 9.09038 8.46778 8.92637L8.30194 8.44746L8.78293 8.60715C8.94767 8.66178 9.12873 8.63193 9.26721 8.52724Z" fill="#2D3035"/>
</g>
<defs>
<clipPath id="clip0_84_2">
<rect width="18" height="18" fill="white"/>
</clipPath>
</defs>
</svg>
