<svg width="19" height="19" viewBox="0 0 19 19" fill="none" xmlns="http://www.w3.org/2000/svg">
<g clip-path="url(#clip0_388_68)">
<path d="M15.0363 1.73648L13.7883 0.488432C13.1372 -0.162666 12.0778 -0.162629 11.4267 0.488432L0.489493 11.4256C-0.163127 12.0782 -0.163201 13.1346 0.489493 13.7873L1.73751 15.0353C1.90436 15.2021 2.15815 15.2456 2.37105 15.144C2.79585 14.941 3.30515 15.0285 3.63837 15.3617C3.97158 15.6949 4.05905 16.2042 3.85613 16.629C3.75445 16.8419 3.79798 17.0958 3.96482 17.2626L5.21284 18.5106C5.86546 19.1632 6.92184 19.1633 7.57453 18.5106C7.76416 18.3209 18.2228 7.86233 18.5117 7.57347C19.1628 6.92233 19.1628 5.86291 18.5117 5.21178L17.2637 3.96376C17.0969 3.79695 16.843 3.75342 16.6301 3.8551C16.2053 4.05806 15.696 3.97052 15.3628 3.63738C15.0296 3.30417 14.9421 2.7949 15.145 2.37007C15.2467 2.15713 15.2032 1.90329 15.0363 1.73648ZM8.75538 15.7553L8.36178 15.3617C8.14443 15.1443 7.79196 15.1443 7.57457 15.3617C7.35718 15.5791 7.35718 15.9315 7.57457 16.1489L7.96816 16.5425L6.78731 17.7234C6.5697 17.9409 6.21767 17.9409 6.00009 17.7234L5.0022 16.7255C5.20471 15.9678 4.994 15.1428 4.42562 14.5744C3.8572 14.006 3.03247 13.7952 2.2746 13.9979L1.27671 13C1.17158 12.8948 1.11369 12.755 1.11369 12.6063C1.11369 12.4576 1.17158 12.3179 1.27671 12.2128L2.45756 11.0319L2.85118 11.4256C3.06854 11.643 3.42101 11.643 3.6384 11.4256C3.85579 11.2082 3.85579 10.8558 3.6384 10.6384L3.24477 10.2447L10.2458 3.24371L15.7564 8.75431L8.75538 15.7553ZM16.7266 5.0011L17.7245 5.99899C17.9415 6.21601 17.9415 6.56919 17.7245 6.78621L16.5436 7.96706L11.033 2.4565L12.2139 1.27565C12.4309 1.05863 12.784 1.05859 13.0011 1.27565L13.999 2.27354C13.7965 3.03126 14.0072 3.85618 14.5756 4.42456C15.144 4.99298 15.9688 5.20372 16.7266 5.0011Z" fill="white"/>
<path d="M5.21296 12.2127C4.9956 11.9953 4.64313 11.9953 4.42574 12.2127C4.20835 12.4301 4.20835 12.7826 4.42574 12.9999L6.00018 14.5744C6.21753 14.7917 6.57 14.7918 6.78739 14.5744C7.00478 14.357 7.00478 14.0046 6.78739 13.7872L5.21296 12.2127Z" fill="white"/>
<path d="M8.04301 7.50477C7.84191 7.43804 7.62036 7.49122 7.47151 7.642C7.32267 7.79278 7.27231 8.015 7.34163 8.21524L7.78999 9.51002L6.97754 10.6134C6.85192 10.784 6.83404 11.0112 6.93145 11.1993C7.02886 11.3875 7.22421 11.5034 7.43648 11.5L8.80644 11.4737L9.60476 12.5873C9.72841 12.7598 9.93897 12.8466 10.1478 12.8122C10.3568 12.7778 10.5282 12.6276 10.5898 12.4248L10.9881 11.1138L12.294 10.6987C12.4959 10.6345 12.6439 10.4612 12.6757 10.2517C12.7075 10.0423 12.6176 9.83288 12.4438 9.71164L11.3201 8.92768L11.3288 7.5575C11.3302 7.3456 11.2111 7.15133 11.0217 7.05637C10.8323 6.9614 10.6054 6.98218 10.4364 7.10999L9.3435 7.93651L8.04301 7.50477ZM9.78159 9.00098L10.2083 8.67827L10.2049 9.21321C10.2037 9.39642 10.2927 9.56847 10.443 9.6733L10.8818 9.97939L10.3719 10.1414C10.1973 10.197 10.0612 10.3348 10.008 10.5101L9.85243 11.022L9.54078 10.5872C9.43609 10.4412 9.26761 10.3549 9.08837 10.3549C9.08481 10.3549 8.54281 10.3653 8.54281 10.3653L8.85999 9.93448C8.96861 9.78693 8.99767 9.59541 8.93774 9.42229L8.76269 8.91677L9.27039 9.08533C9.44429 9.143 9.63541 9.11149 9.78159 9.00098Z" fill="white"/>
</g>
<defs>
<clipPath id="clip0_388_68">
<rect width="19" height="19" fill="white"/>
</clipPath>
</defs>
</svg>
