<svg width="33" height="33" viewBox="0 0 33 33" fill="none" xmlns="http://www.w3.org/2000/svg">
<path d="M23.375 31.2813H5.5C4.49737 31.2805 3.53602 30.8819 2.82706 30.1729C2.11809 29.464 1.71948 28.5026 1.71875 27.5V7.5625C1.71948 6.55987 2.11809 5.59852 2.82706 4.88956C3.53602 4.18059 4.49737 3.78198 5.5 3.78125H27.5C28.5026 3.78198 29.464 4.18059 30.1729 4.88956C30.8819 5.59852 31.2805 6.55987 31.2813 7.5625V23.375C31.2814 23.5104 31.2547 23.6445 31.2028 23.7696C31.1509 23.8947 31.0747 24.0082 30.9788 24.1038L24.1038 30.9788C24.0082 31.0747 23.8947 31.1509 23.7696 31.2028C23.6445 31.2547 23.5104 31.2814 23.375 31.2813ZM5.5 5.84375C5.04438 5.84448 4.60763 6.02579 4.28546 6.34796C3.96329 6.67013 3.78198 7.10688 3.78125 7.5625V27.5C3.78198 27.9556 3.96329 28.3924 4.28546 28.7145C4.60763 29.0367 5.04438 29.218 5.5 29.2188H22.9474L29.2188 22.9474V7.5625C29.218 7.10688 29.0367 6.67013 28.7145 6.34796C28.3924 6.02579 27.9556 5.84448 27.5 5.84375H5.5Z" fill="#2D3035"/>
<path d="M30.25 12.0312H2.75C2.4765 12.0312 2.21419 11.9226 2.0208 11.7292C1.8274 11.5358 1.71875 11.2735 1.71875 11C1.71875 10.7265 1.8274 10.4642 2.0208 10.2708C2.21419 10.0774 2.4765 9.96875 2.75 9.96875H30.25C30.5235 9.96875 30.7858 10.0774 30.9792 10.2708C31.1726 10.4642 31.2813 10.7265 31.2813 11C31.2813 11.2735 31.1726 11.5358 30.9792 11.7292C30.7858 11.9226 30.5235 12.0312 30.25 12.0312Z" fill="#2D3035"/>
<path d="M13.75 7.90625C13.4765 7.90625 13.2142 7.7976 13.0208 7.6042C12.8274 7.41081 12.7188 7.1485 12.7188 6.875V2.75C12.7188 2.4765 12.8274 2.21419 13.0208 2.0208C13.2142 1.8274 13.4765 1.71875 13.75 1.71875C14.0235 1.71875 14.2858 1.8274 14.4792 2.0208C14.6726 2.21419 14.7812 2.4765 14.7812 2.75V6.875C14.7812 7.1485 14.6726 7.41081 14.4792 7.6042C14.2858 7.7976 14.0235 7.90625 13.75 7.90625Z" fill="#2D3035"/>
<path d="M8.25 7.90625C7.9765 7.90625 7.71419 7.7976 7.5208 7.6042C7.3274 7.41081 7.21875 7.1485 7.21875 6.875V2.75C7.21875 2.4765 7.3274 2.21419 7.5208 2.0208C7.71419 1.8274 7.9765 1.71875 8.25 1.71875C8.5235 1.71875 8.78581 1.8274 8.9792 2.0208C9.1726 2.21419 9.28125 2.4765 9.28125 2.75V6.875C9.28125 7.1485 9.1726 7.41081 8.9792 7.6042C8.78581 7.7976 8.5235 7.90625 8.25 7.90625Z" fill="#2D3035"/>
<path d="M24.75 7.90625C24.4765 7.90625 24.2142 7.7976 24.0208 7.6042C23.8274 7.41081 23.7188 7.1485 23.7188 6.875V2.75C23.7188 2.4765 23.8274 2.21419 24.0208 2.0208C24.2142 1.8274 24.4765 1.71875 24.75 1.71875C25.0235 1.71875 25.2858 1.8274 25.4792 2.0208C25.6726 2.21419 25.7812 2.4765 25.7812 2.75V6.875C25.7812 7.1485 25.6726 7.41081 25.4792 7.6042C25.2858 7.7976 25.0235 7.90625 24.75 7.90625Z" fill="#2D3035"/>
<path d="M19.25 7.90625C18.9765 7.90625 18.7142 7.7976 18.5208 7.6042C18.3274 7.41081 18.2188 7.1485 18.2188 6.875V2.75C18.2187 2.4765 18.3274 2.21419 18.5208 2.0208C18.7142 1.8274 18.9765 1.71875 19.25 1.71875C19.5235 1.71875 19.7858 1.8274 19.9792 2.0208C20.1726 2.21419 20.2812 2.4765 20.2812 2.75V6.875C20.2812 7.1485 20.1726 7.41081 19.9792 7.6042C19.7858 7.7976 19.5235 7.90625 19.25 7.90625Z" fill="#2D3035"/>
<path d="M23.375 31.2813C23.1015 31.2813 22.8392 31.1726 22.6458 30.9792C22.4524 30.7858 22.3438 30.5235 22.3438 30.25V23.375C22.3438 23.1015 22.4524 22.8392 22.6458 22.6458C22.8392 22.4524 23.1015 22.3438 23.375 22.3438H30.25C30.5235 22.3438 30.7858 22.4524 30.9792 22.6458C31.1726 22.8392 31.2813 23.1015 31.2813 23.375C31.2813 23.6485 31.1726 23.9108 30.9792 24.1042C30.7858 24.2976 30.5235 24.4063 30.25 24.4063H24.4063V30.25C24.4063 30.5235 24.2976 30.7858 24.1042 30.9792C23.9108 31.1726 23.6485 31.2813 23.375 31.2813Z" fill="#2D3035"/>
<path d="M15.1252 23.0312C14.9897 23.0315 14.8555 23.0049 14.7304 22.953C14.6053 22.9011 14.4918 22.8248 14.3964 22.7287L11.6464 19.9787C11.4642 19.7832 11.3651 19.5246 11.3698 19.2574C11.3745 18.9903 11.4827 18.7354 11.6717 18.5464C11.8606 18.3575 12.1155 18.2493 12.3827 18.2445C12.6499 18.2398 12.9084 18.339 13.1039 18.5212L15.1252 20.541L19.8964 15.7712C20.0919 15.589 20.3505 15.4898 20.6176 15.4945C20.8848 15.4993 21.1397 15.6075 21.3286 15.7964C21.5176 15.9854 21.6258 16.2403 21.6305 16.5074C21.6352 16.7746 21.5361 17.0332 21.3539 17.2287L15.8539 22.7287C15.7585 22.8248 15.645 22.9011 15.5199 22.953C15.3948 23.0049 15.2606 23.0315 15.1252 23.0312Z" fill="#2D3035"/>
</svg>
