<svg width="41" height="41" viewBox="0 0 41 41" fill="none" xmlns="http://www.w3.org/2000/svg">
<path fill-rule="evenodd" clip-rule="evenodd" d="M20.5 3.41663C18.613 3.41663 17.0833 4.94632 17.0833 6.83329V7.41654C13.1023 8.82364 10.25 12.6204 10.25 17.0833V19.6458V23.2326L7.48682 27.0321C6.73095 28.0713 6.6222 29.4468 7.20536 30.5921C7.7885 31.7372 8.96491 32.4583 10.25 32.4583H15.375C15.375 35.2888 17.6696 37.5833 20.5 37.5833C23.3305 37.5833 25.625 35.2888 25.625 32.4583H30.75C32.0352 32.4583 33.2115 31.7372 33.7946 30.5921C34.3778 29.4468 34.269 28.0713 33.5132 27.0321L30.75 23.2326V19.6458V17.0833C30.75 12.6204 27.8978 8.82364 23.9167 7.41654V6.83329C23.9167 4.94632 22.387 3.41663 20.5 3.41663ZM22.2104 29.0416H22.2083H18.7917H14.4747H10.25L12.7348 25.625L13.0132 25.2423C13.4379 24.6582 13.6667 23.9547 13.6667 23.2326V19.6458V17.0833C13.6667 13.3093 16.7261 10.25 20.5 10.25C24.2739 10.25 27.3333 13.3093 27.3333 17.0833V19.6458V23.2326C27.3333 23.9547 27.5621 24.6582 27.9868 25.2423L28.2652 25.625L30.75 29.0416H26.5253H22.2104ZM20.5 34.1666C19.5565 34.1666 18.7917 33.4018 18.7917 32.4583H22.2083C22.2083 33.4018 21.4435 34.1666 20.5 34.1666Z" fill="#2D3035"/>
</svg>
