<svg width="93" height="93" viewBox="0 0 93 93" fill="none" xmlns="http://www.w3.org/2000/svg">
<path fill-rule="evenodd" clip-rule="evenodd" d="M13.8747 26.7713C13.7959 24.9068 14.8457 23.1155 16.6072 22.3026L63.9922 0.436079C66.3545 -0.654008 69.1939 0.371711 70.2944 2.70948L73.4461 9.40489C73.7393 10.0284 73.4664 10.7693 72.8367 11.0595C68.613 13.0074 68.914 19.0427 73.2534 20.6075C74.5085 21.0601 75.9401 21.0379 77.2502 20.4332C77.8799 20.143 78.6281 20.4131 78.9213 21.0366L81.694 26.927C84.27 27.5354 86.1551 29.8354 86.1551 32.5166V42.1486C86.1551 42.8367 85.5918 43.3944 84.8968 43.3944C80.9246 43.3944 77.7052 46.582 77.7052 50.5151C77.7052 54.4481 80.9246 57.6357 84.8968 57.6357C85.5918 57.6357 86.1551 58.1934 86.1551 58.8815V68.5135C86.1551 69.7749 85.6925 70.7367 85.692 70.7471C86.292 72.465 86.6181 74.3095 86.6181 76.2295C86.6181 85.4913 79.0345 93 69.6804 93C59.5489 93 51.6777 84.2509 52.8587 74.259H12.1854C8.99133 74.259 6.38281 71.6758 6.38281 68.5137V58.8817C6.38281 58.1936 6.94608 57.6359 7.64104 57.6359C11.6133 57.6359 14.8327 54.4483 14.8327 50.5153C14.8327 46.5822 11.6133 43.3946 7.64104 43.3946C6.94608 43.3946 6.38281 42.8369 6.38281 42.1488V32.5168C6.38281 29.3545 8.99133 26.7715 12.1854 26.7715H13.8747V26.7713ZM78.8454 26.7713L77.1294 23.1257C73.5208 24.1287 69.64 22.4039 68.0296 18.9827C66.4206 15.5642 67.5794 11.5132 70.678 9.41984L68.0141 3.76074C67.4947 2.65736 66.1653 2.18126 65.0539 2.69411L51.1748 9.09884L54.2786 14.4218C54.6261 15.0156 54.4214 15.7762 53.8215 16.1202C53.2215 16.4643 52.4536 16.2616 52.1061 15.6676L48.8905 10.153L17.6687 24.5606C16.8012 24.9609 16.3052 25.8563 16.3933 26.7713H78.8454ZM83.6386 66.7277V60.0474C78.8433 59.4328 75.1888 55.3733 75.1888 50.5153C75.1888 45.6572 78.8433 41.5975 83.6386 40.9831V32.5168C83.6386 30.7297 82.1575 29.2632 80.3525 29.2632H62.204V35.4717C62.204 36.1598 61.6408 36.7175 60.9458 36.7175C60.2508 36.7175 59.6876 36.1598 59.6876 35.4717V29.2632H12.1854C10.3804 29.2632 8.89927 30.7297 8.89927 32.5168V40.9831C13.6946 41.5975 17.3491 45.6574 17.3491 50.5153C17.3491 55.3733 13.6944 59.433 8.89927 60.0474V68.5137C8.89927 70.3009 10.3804 71.7674 12.1854 71.7674H53.3492C55.3446 64.5917 61.97 59.459 69.6804 59.459C75.4054 59.459 80.5452 62.2809 83.6386 66.7277ZM62.2038 57.9185V53.2972C62.2038 52.6091 61.6405 52.0514 60.9456 52.0514C60.2506 52.0514 59.6873 52.6091 59.6873 53.2972V57.9185C59.6873 58.6066 60.2506 59.1643 60.9456 59.1643C61.6405 59.1643 62.2038 58.6066 62.2038 57.9185ZM62.2038 47.7332V41.0357C62.2038 40.3476 61.6405 39.7899 60.9456 39.7899C60.2506 39.7899 59.6873 40.3476 59.6873 41.0357V47.7332C59.6873 48.4213 60.2506 48.979 60.9456 48.979C61.6405 48.979 62.2038 48.4211 62.2038 47.7332ZM59.594 23.5422L56.1259 17.5945C55.7812 17.0006 55.0153 16.7957 54.4156 17.137C53.8158 17.4784 53.6088 18.2367 53.9536 18.8305L57.4217 24.778C57.7664 25.3721 58.5323 25.5768 59.132 25.2354C59.7318 24.8943 59.9386 24.136 59.594 23.5422ZM79.878 66.1328C74.2463 60.5567 65.1147 60.5567 59.4831 66.1328C53.8515 71.7088 53.8515 80.7503 59.4831 86.3264C65.1147 91.9024 74.2463 91.9024 79.878 86.3264C85.5094 80.7503 85.5096 71.7088 79.878 66.1328ZM75.6168 68.5902L69.6804 74.4679L63.7441 68.5902C63.253 68.1039 62.4563 68.1039 61.965 68.5902C61.4736 69.0767 61.4736 69.8655 61.965 70.3517L67.9013 76.2295L61.965 82.1072C61.4736 82.5935 61.4736 83.3825 61.965 83.8688C62.4561 84.3553 63.2528 84.3553 63.7441 83.8688L69.6804 77.9911L75.6168 83.8688C76.1079 84.3553 76.9046 84.3553 77.3959 83.8688C77.887 83.3825 77.887 82.5935 77.3959 82.1072L71.4596 76.2295L77.3959 70.3517C77.887 69.8655 77.887 69.0764 77.3959 68.5902C76.9046 68.1039 76.1079 68.1039 75.6168 68.5902Z" fill="#2D3035"/>
</svg>
