<svg width="14" height="14" viewBox="0 0 14 14" fill="none" xmlns="http://www.w3.org/2000/svg">
<g clip-path="url(#clip0_53_66)">
<path d="M7 0C3.1402 0 0 3.1402 0 7C0 10.8598 3.1402 14 7 14C10.8598 14 14 10.8598 14 7C14 3.1402 10.8598 0 7 0ZM7 12.7273C3.84194 12.7273 1.27273 10.158 1.27273 7C1.27273 3.84198 3.84194 1.27273 7 1.27273C10.1581 1.27273 12.7273 3.84198 12.7273 7C12.7273 10.158 10.158 12.7273 7 12.7273Z" fill="#B1C20E"/>
<path d="M9.6249 4.52515L6.02503 8.12497L4.37515 6.47505C4.12668 6.22657 3.72373 6.22653 3.47521 6.47501C3.22669 6.72353 3.22669 7.12643 3.47521 7.37495L5.57504 9.47487C5.69438 9.59421 5.85623 9.66128 6.02499 9.66128H6.02503C6.1938 9.66128 6.35565 9.59421 6.47498 9.47491L10.5248 5.42513C10.7734 5.17661 10.7734 4.77371 10.5248 4.52519C10.2763 4.27667 9.87342 4.27662 9.6249 4.52515Z" fill="#B1C20E"/>
</g>
<defs>
<clipPath id="clip0_53_66">
<rect width="14" height="14" fill="white"/>
</clipPath>
</defs>
</svg>
