<svg width="20" height="20" viewBox="0 0 20 20" fill="none" xmlns="http://www.w3.org/2000/svg">
<path d="M18.3333 4.16669V7.50002C18.3333 7.96023 17.9606 8.33335 17.5 8.33335C17.0393 8.33335 16.6666 7.96023 16.6666 7.50002V4.16669C16.6666 3.7073 16.2931 3.33335 15.8333 3.33335H12.5C12.0393 3.33335 11.6666 2.96023 11.6666 2.50002C11.6666 2.03982 12.0393 1.66669 12.5 1.66669H15.8333C17.2119 1.66669 18.3333 2.78811 18.3333 4.16669ZM2.49996 8.33335C2.96057 8.33335 3.33329 7.96023 3.33329 7.50002V4.16669C3.33329 3.7073 3.70683 3.33335 4.16663 3.33335H7.49996C7.96057 3.33335 8.33329 2.96023 8.33329 2.50002C8.33329 2.03982 7.96057 1.66669 7.49996 1.66669H4.16663C2.78805 1.66669 1.66663 2.78811 1.66663 4.16669V7.50002C1.66663 7.96023 2.03935 8.33335 2.49996 8.33335ZM17.5 11.6667C17.0393 11.6667 16.6666 12.0398 16.6666 12.5V15.8334C16.6666 16.2927 16.2931 16.6667 15.8333 16.6667H12.5C12.0393 16.6667 11.6666 17.0398 11.6666 17.5C11.6666 17.9602 12.0393 18.3334 12.5 18.3334H15.8333C17.2119 18.3334 18.3333 17.2119 18.3333 15.8334V12.5C18.3333 12.0398 17.9606 11.6667 17.5 11.6667ZM7.49996 16.6667H4.16663C3.70683 16.6667 3.33329 16.2927 3.33329 15.8334V12.5C3.33329 12.0398 2.96057 11.6667 2.49996 11.6667C2.03935 11.6667 1.66663 12.0398 1.66663 12.5V15.8334C1.66663 17.2119 2.78805 18.3334 4.16663 18.3334H7.49996C7.96057 18.3334 8.33329 17.9602 8.33329 17.5C8.33329 17.0398 7.96057 16.6667 7.49996 16.6667ZM4.16663 10C4.16663 10.4602 4.53935 10.8334 4.99996 10.8334H15C15.4606 10.8334 15.8333 10.4602 15.8333 10C15.8333 9.53982 15.4606 9.16669 15 9.16669H4.99996C4.53935 9.16669 4.16663 9.53982 4.16663 10Z" fill="#2D3035"/>
</svg>
