<svg width="18" height="18" viewBox="0 0 18 18" fill="none" xmlns="http://www.w3.org/2000/svg">
<g clip-path="url(#clip0_53_34)">
<path d="M11.4828 6.52142C11.25 6.52142 11.0613 6.71013 11.0613 6.94297V14.9102C11.0613 15.1428 11.25 15.3317 11.4828 15.3317C11.7157 15.3317 11.9044 15.1428 11.9044 14.9102V6.94297C11.9044 6.71013 11.7157 6.52142 11.4828 6.52142Z" fill="#2D3035"/>
<path d="M6.5087 6.52142C6.27587 6.52142 6.08716 6.71013 6.08716 6.94297V14.9102C6.08716 15.1428 6.27587 15.3317 6.5087 15.3317C6.74154 15.3317 6.93025 15.1428 6.93025 14.9102V6.94297C6.93025 6.71013 6.74154 6.52142 6.5087 6.52142Z" fill="#2D3035"/>
<path d="M2.88329 5.35871V15.7447C2.88329 16.3586 3.10839 16.935 3.50161 17.3487C3.89302 17.7635 4.43773 17.999 5.00781 17.9999H12.9836C13.5538 17.999 14.0985 17.7635 14.4898 17.3487C14.883 16.935 15.1081 16.3586 15.1081 15.7447V5.35871C15.8897 5.15123 16.3963 4.39608 16.2917 3.59399C16.187 2.79207 15.5038 2.19219 14.6949 2.19203H12.5367V1.66509C12.5391 1.22198 12.3639 0.796483 12.0502 0.483453C11.7365 0.170588 11.3104 -0.00362829 10.8673 -5.64768e-06H7.12409C6.68098 -0.00362829 6.25482 0.170588 5.94113 0.483453C5.62744 0.796483 5.45224 1.22198 5.45471 1.66509V2.19203H3.29644C2.4876 2.19219 1.8044 2.79207 1.69967 3.59399C1.59511 4.39608 2.10162 5.15123 2.88329 5.35871ZM12.9836 17.1569H5.00781C4.28707 17.1569 3.72638 16.5377 3.72638 15.7447V5.39576H14.265V15.7447C14.265 16.5377 13.7043 17.1569 12.9836 17.1569ZM6.2978 1.66509C6.295 1.4456 6.38128 1.23433 6.53706 1.07938C6.69267 0.924428 6.90443 0.839296 7.12409 0.843083H10.8673C11.0869 0.839296 11.2987 0.924428 11.4543 1.07938C11.6101 1.23416 11.6964 1.4456 11.6936 1.66509V2.19203H6.2978V1.66509ZM3.29644 3.03511H14.6949C15.114 3.03511 15.4537 3.37482 15.4537 3.79389C15.4537 4.21297 15.114 4.55267 14.6949 4.55267H3.29644C2.87736 4.55267 2.53766 4.21297 2.53766 3.79389C2.53766 3.37482 2.87736 3.03511 3.29644 3.03511Z" fill="#2D3035"/>
<path d="M8.99576 6.52142C8.76293 6.52142 8.57422 6.71013 8.57422 6.94297V14.9102C8.57422 15.1428 8.76293 15.3317 8.99576 15.3317C9.2286 15.3317 9.41731 15.1428 9.41731 14.9102V6.94297C9.41731 6.71013 9.2286 6.52142 8.99576 6.52142Z" fill="#2D3035"/>
</g>
<defs>
<clipPath id="clip0_53_34">
<rect width="18" height="18" fill="white"/>
</clipPath>
</defs>
</svg>
