<svg width="451" height="409" viewBox="0 0 451 409" fill="none" xmlns="http://www.w3.org/2000/svg">
<path d="M10.4878 172.203C17.2022 179.141 26.3069 183.041 35.801 183.041C42.9316 183.041 49.8474 180.834 55.6889 176.81L30.2012 203.147C23.4868 210.085 19.7134 219.493 19.7134 229.304C19.7134 239.114 23.4868 248.522 30.2012 255.46C36.9156 262.398 46.0202 266.298 55.5144 266.298C62.645 266.298 69.5608 264.091 75.4023 260.067L62.0273 273.888C55.3129 280.826 51.5395 290.234 51.5395 300.044C51.5395 309.855 55.3129 319.263 62.0273 326.201C68.7416 333.139 77.8463 337.038 87.3404 337.038C94.4711 337.038 101.387 334.832 107.228 330.808L103.965 334.18C97.2508 341.118 93.4774 350.526 93.4774 360.336C93.4774 370.147 97.2508 379.555 103.965 386.493C110.68 393.431 119.784 397.33 129.278 397.33C138.772 397.33 147.877 393.431 154.591 386.493L188.553 351.456C184.645 357.492 182.523 364.638 182.523 372.006C182.523 381.817 186.297 391.225 193.011 398.163C199.725 405.101 208.83 409 218.324 409C227.818 409 236.923 405.101 243.637 398.163L295.19 344.892C291.283 350.928 289.161 358.074 289.161 365.443C289.161 375.253 292.934 384.661 299.649 391.599C306.363 398.537 315.468 402.437 324.962 402.437C334.456 402.437 343.561 398.537 350.275 391.599L430.538 308.661C437.253 301.723 441.026 292.315 441.026 282.505C441.026 272.694 437.253 263.286 430.538 256.348C423.824 249.41 414.719 245.511 405.225 245.511C398.095 245.511 391.179 247.717 385.337 251.741L402.137 234.382C408.851 227.444 412.624 218.036 412.624 208.226C412.624 198.415 408.851 189.007 402.137 182.069C395.422 175.131 386.318 171.232 376.823 171.232C369.693 171.232 362.777 173.438 356.936 177.462L390.87 142.397C397.584 135.459 401.358 126.051 401.358 116.241C401.358 106.43 397.584 97.0222 390.87 90.0841C384.156 83.146 375.051 79.2468 365.557 79.2468C358.426 79.2468 351.51 81.4531 345.669 85.4772L367.276 63.1504C373.99 56.2123 377.763 46.8043 377.763 36.9939C377.763 27.1834 373.99 17.7754 367.276 10.8373C360.561 3.8992 351.457 0 341.962 0C332.468 0 323.364 3.8992 316.649 10.8373L268.521 60.5695C272.429 54.5333 274.55 47.3871 274.55 40.0189C274.55 30.2084 270.777 20.8004 264.062 13.8623C257.348 6.9242 248.243 3.025 238.749 3.025C229.215 3.025 220.11 6.91033 213.396 13.8484L145.836 83.6594C149.744 77.6233 151.865 70.4771 151.865 63.1088C151.865 53.2984 148.092 43.8903 141.378 36.9522C134.663 30.0141 125.559 26.1149 116.064 26.1149C106.57 26.1149 97.4657 30.0141 90.7513 36.9522L10.4878 119.876C3.77347 126.814 0 136.222 0 146.033C0 155.843 3.77347 165.265 10.4878 172.203Z" fill="#F9FCFF"/>
<path d="M439.979 329.906L437.508 332.459C436.541 333.458 436.541 335.082 437.508 336.081C438.475 337.08 440.046 337.08 441.013 336.081L443.484 333.528L445.955 336.081C446.921 337.08 448.493 337.08 449.459 336.081C450.426 335.082 450.426 333.458 449.459 332.459L446.989 329.906L449.459 327.353C450.426 326.354 450.426 324.73 449.459 323.731C448.976 323.231 448.345 322.982 447.7 322.982C447.056 322.982 446.425 323.231 445.941 323.731L443.47 326.284L440.999 323.731C440.516 323.231 439.885 322.982 439.24 322.982C438.596 322.982 437.964 323.231 437.481 323.731C436.514 324.73 436.514 326.354 437.481 327.353L439.979 329.906Z" fill="#F9FCFF"/>
<path d="M85.9573 385.064L83.4864 387.617C82.5195 388.616 82.5195 390.239 83.4864 391.238C84.4532 392.238 86.0244 392.238 86.9913 391.238L89.4622 388.685L91.933 391.238C92.8999 392.238 94.4711 392.238 95.4379 391.238C96.4048 390.239 96.4048 388.616 95.4379 387.617L92.9671 385.064L95.4379 382.51C96.4048 381.511 96.4048 379.888 95.4379 378.889C94.9545 378.389 94.3234 378.139 93.6788 378.139C93.0342 378.139 92.4031 378.389 91.9196 378.889L89.4487 381.442L86.9778 378.889C86.4944 378.389 85.8633 378.139 85.2187 378.139C84.5875 378.139 83.943 378.389 83.4595 378.889C82.4927 379.888 82.4927 381.511 83.4595 382.51L85.9573 385.064Z" fill="#F9FCFF"/>
<path d="M22.5735 158.147L20.1026 160.7C19.1357 161.699 19.1357 163.322 20.1026 164.322C21.0695 165.321 22.6406 165.321 23.6075 164.322L26.0784 161.768L28.5493 164.322C29.5161 165.321 31.0873 165.321 32.0542 164.322C33.021 163.322 33.021 161.699 32.0542 160.7L29.5833 158.147L32.0542 155.593C33.021 154.594 33.021 152.971 32.0542 151.972C31.5707 151.472 30.9396 151.222 30.295 151.222C29.6638 151.222 29.0193 151.472 28.5358 151.972L26.0649 154.525L23.5941 151.972C23.1106 151.472 22.4795 151.222 21.8349 151.222C21.2038 151.222 20.5592 151.472 20.0757 151.972C19.1089 152.971 19.1089 154.594 20.0757 155.593L22.5735 158.147Z" fill="#F9FCFF"/>
<path d="M320.759 26.5729L318.288 29.1261C317.321 30.1252 317.321 31.7487 318.288 32.7478C319.255 33.7469 320.826 33.7469 321.793 32.7478L324.263 30.1946L326.734 32.7478C327.701 33.7469 329.272 33.7469 330.239 32.7478C331.206 31.7487 331.206 30.1252 330.239 29.1261L327.768 26.5729L330.239 24.0197C331.206 23.0206 331.206 21.3971 330.239 20.398C329.756 19.8985 329.125 19.6487 328.48 19.6487C327.849 19.6487 327.204 19.8985 326.721 20.398L324.25 22.9512L321.779 20.398C321.296 19.8985 320.665 19.6487 320.02 19.6487C319.389 19.6487 318.744 19.8985 318.261 20.398C317.294 21.3971 317.294 23.0206 318.261 24.0197L320.759 26.5729Z" fill="#F9FCFF"/>
<path d="M275.41 388.63C279.398 388.63 282.648 391.988 282.648 396.109C282.648 400.23 279.398 403.588 275.41 403.588C271.421 403.588 268.172 400.23 268.172 396.109C268.158 391.988 271.408 388.63 275.41 388.63ZM275.41 398.482C276.672 398.482 277.693 397.427 277.693 396.123C277.693 394.819 276.672 393.764 275.41 393.764C274.147 393.764 273.127 394.819 273.127 396.123C273.127 397.427 274.147 398.482 275.41 398.482Z" fill="#F9FCFF"/>
<path d="M411.926 150.14C415.914 150.14 419.164 153.498 419.164 157.619C419.164 161.741 415.914 165.099 411.926 165.099C407.938 165.099 404.688 161.741 404.688 157.619C404.674 153.498 407.924 150.14 411.926 150.14ZM411.926 159.978C413.188 159.978 414.209 158.924 414.209 157.619C414.209 156.315 413.188 155.26 411.926 155.26C410.664 155.26 409.643 156.315 409.643 157.619C409.63 158.924 410.664 159.978 411.926 159.978Z" fill="#F9FCFF"/>
<path d="M108.692 30.0142C112.68 30.0142 115.93 33.3722 115.93 37.4934C115.93 41.6146 112.68 44.9727 108.692 44.9727C104.704 44.9727 101.454 41.6146 101.454 37.4934C101.454 33.3722 104.704 30.0142 108.692 30.0142ZM108.692 39.8524C109.954 39.8524 110.975 38.7978 110.975 37.4934C110.975 36.1891 109.954 35.1345 108.692 35.1345C107.43 35.1345 106.409 36.1891 106.409 37.4934C106.409 38.7978 107.43 39.8524 108.692 39.8524Z" fill="#F9FCFF"/>
<path d="M24.306 263.703C28.2943 263.703 31.544 267.061 31.544 271.182C31.544 275.303 28.2943 278.661 24.306 278.661C20.3176 278.661 17.0679 275.303 17.0679 271.182C17.0679 267.061 20.3176 263.703 24.306 263.703ZM24.306 273.555C25.5683 273.555 26.5888 272.5 26.5888 271.196C26.5888 269.891 25.5683 268.837 24.306 268.837C23.0437 268.837 22.0231 269.891 22.0231 271.196C22.0231 272.486 23.0437 273.555 24.306 273.555Z" fill="#F9FCFF"/>
<path d="M10.4878 172.203C17.2022 179.141 26.3069 183.041 35.801 183.041C42.9316 183.041 49.8474 180.834 55.6889 176.81L30.2012 203.147C23.4868 210.085 19.7134 219.493 19.7134 229.304C19.7134 239.114 23.4868 248.522 30.2012 255.46C36.9156 262.398 46.0202 266.298 55.5144 266.298C62.645 266.298 69.5608 264.091 75.4023 260.067L62.0273 273.888C55.3129 280.826 51.5395 290.234 51.5395 300.044C51.5395 309.855 55.3129 319.263 62.0273 326.201C68.7416 333.139 77.8463 337.038 87.3404 337.038C94.4711 337.038 101.387 334.832 107.228 330.808L103.965 334.18C97.2508 341.118 93.4774 350.526 93.4774 360.336C93.4774 370.147 97.2508 379.555 103.965 386.493C110.68 393.431 119.784 397.33 129.278 397.33C138.772 397.33 147.877 393.431 154.591 386.493L188.553 351.456C184.645 357.492 182.523 364.638 182.523 372.006C182.523 381.817 186.297 391.225 193.011 398.163C199.725 405.101 208.83 409 218.324 409C227.818 409 236.923 405.101 243.637 398.163L295.19 344.892C291.283 350.928 289.161 358.074 289.161 365.443C289.161 375.253 292.934 384.661 299.649 391.599C306.363 398.537 315.468 402.437 324.962 402.437C334.456 402.437 343.561 398.537 350.275 391.599L430.538 308.661C437.253 301.723 441.026 292.315 441.026 282.505C441.026 272.694 437.253 263.286 430.538 256.348C423.824 249.41 414.719 245.511 405.225 245.511C398.095 245.511 391.179 247.717 385.337 251.741L402.137 234.382C408.851 227.444 412.624 218.036 412.624 208.226C412.624 198.415 408.851 189.007 402.137 182.069C395.422 175.131 386.318 171.232 376.823 171.232C369.693 171.232 362.777 173.438 356.936 177.462L390.87 142.397C397.584 135.459 401.358 126.051 401.358 116.241C401.358 106.43 397.584 97.0222 390.87 90.0841C384.156 83.146 375.051 79.2468 365.557 79.2468C358.426 79.2468 351.51 81.4531 345.669 85.4772L367.276 63.1504C373.99 56.2123 377.763 46.8043 377.763 36.9939C377.763 27.1834 373.99 17.7754 367.276 10.8373C360.561 3.8992 351.457 0 341.962 0C332.468 0 323.364 3.8992 316.649 10.8373L268.521 60.5695C272.429 54.5333 274.55 47.3871 274.55 40.0189C274.55 30.2084 270.777 20.8004 264.062 13.8623C257.348 6.9242 248.243 3.025 238.749 3.025C229.215 3.025 220.11 6.91033 213.396 13.8484L145.836 83.6594C149.744 77.6233 151.865 70.4771 151.865 63.1088C151.865 53.2984 148.092 43.8903 141.378 36.9522C134.663 30.0141 125.559 26.1149 116.064 26.1149C106.57 26.1149 97.4657 30.0141 90.7513 36.9522L10.4878 119.876C3.77347 126.814 0 136.222 0 146.033C0 155.843 3.77347 165.265 10.4878 172.203Z" fill="#C7D5E1"/>
<path d="M439.979 329.906L437.508 332.459C436.541 333.458 436.541 335.082 437.508 336.081C438.475 337.08 440.046 337.08 441.013 336.081L443.484 333.528L445.955 336.081C446.921 337.08 448.493 337.08 449.459 336.081C450.426 335.082 450.426 333.458 449.459 332.459L446.989 329.906L449.459 327.353C450.426 326.354 450.426 324.73 449.459 323.731C448.976 323.231 448.345 322.982 447.7 322.982C447.056 322.982 446.425 323.231 445.941 323.731L443.47 326.284L440.999 323.731C440.516 323.231 439.885 322.982 439.24 322.982C438.596 322.982 437.964 323.231 437.481 323.731C436.514 324.73 436.514 326.354 437.481 327.353L439.979 329.906Z" fill="#EC6325"/>
<path d="M85.9573 385.064L83.4864 387.617C82.5195 388.616 82.5195 390.239 83.4864 391.238C84.4532 392.238 86.0244 392.238 86.9913 391.238L89.4622 388.685L91.933 391.238C92.8999 392.238 94.4711 392.238 95.4379 391.238C96.4048 390.239 96.4048 388.616 95.4379 387.617L92.9671 385.064L95.4379 382.51C96.4048 381.511 96.4048 379.888 95.4379 378.889C94.9545 378.389 94.3234 378.139 93.6788 378.139C93.0342 378.139 92.4031 378.389 91.9196 378.889L89.4487 381.442L86.9778 378.889C86.4944 378.389 85.8633 378.139 85.2187 378.139C84.5875 378.139 83.943 378.389 83.4595 378.889C82.4927 379.888 82.4927 381.511 83.4595 382.51L85.9573 385.064Z" fill="#EC6325"/>
<path d="M22.5735 158.147L20.1026 160.7C19.1357 161.699 19.1357 163.322 20.1026 164.322C21.0695 165.321 22.6406 165.321 23.6075 164.322L26.0784 161.768L28.5493 164.322C29.5161 165.321 31.0873 165.321 32.0542 164.322C33.021 163.322 33.021 161.699 32.0542 160.7L29.5833 158.147L32.0542 155.593C33.021 154.594 33.021 152.971 32.0542 151.972C31.5707 151.472 30.9396 151.222 30.295 151.222C29.6638 151.222 29.0193 151.472 28.5358 151.972L26.0649 154.525L23.5941 151.972C23.1106 151.472 22.4795 151.222 21.8349 151.222C21.2038 151.222 20.5592 151.472 20.0757 151.972C19.1089 152.971 19.1089 154.594 20.0757 155.593L22.5735 158.147Z" fill="#EC6325"/>
<path d="M320.759 26.5729L318.288 29.1261C317.321 30.1252 317.321 31.7487 318.288 32.7478C319.255 33.7469 320.826 33.7469 321.793 32.7478L324.263 30.1946L326.734 32.7478C327.701 33.7469 329.272 33.7469 330.239 32.7478C331.206 31.7487 331.206 30.1252 330.239 29.1261L327.768 26.5729L330.239 24.0197C331.206 23.0206 331.206 21.3971 330.239 20.398C329.756 19.8985 329.125 19.6487 328.48 19.6487C327.849 19.6487 327.204 19.8985 326.721 20.398L324.25 22.9512L321.779 20.398C321.296 19.8985 320.665 19.6487 320.02 19.6487C319.389 19.6487 318.744 19.8985 318.261 20.398C317.294 21.3971 317.294 23.0206 318.261 24.0197L320.759 26.5729Z" fill="#EC6325"/>
<path d="M275.41 388.63C279.398 388.63 282.648 391.988 282.648 396.109C282.648 400.23 279.398 403.588 275.41 403.588C271.421 403.588 268.172 400.23 268.172 396.109C268.158 391.988 271.408 388.63 275.41 388.63ZM275.41 398.482C276.672 398.482 277.693 397.427 277.693 396.123C277.693 394.819 276.672 393.764 275.41 393.764C274.147 393.764 273.127 394.819 273.127 396.123C273.127 397.427 274.147 398.482 275.41 398.482Z" fill="#EC6325"/>
<path d="M411.926 150.14C415.914 150.14 419.164 153.498 419.164 157.619C419.164 161.741 415.914 165.099 411.926 165.099C407.938 165.099 404.688 161.741 404.688 157.619C404.674 153.498 407.924 150.14 411.926 150.14ZM411.926 159.978C413.188 159.978 414.209 158.924 414.209 157.619C414.209 156.315 413.188 155.26 411.926 155.26C410.664 155.26 409.643 156.315 409.643 157.619C409.63 158.924 410.664 159.978 411.926 159.978Z" fill="#EC6325"/>
<path d="M108.692 30.0142C112.68 30.0142 115.93 33.3722 115.93 37.4934C115.93 41.6146 112.68 44.9727 108.692 44.9727C104.704 44.9727 101.454 41.6146 101.454 37.4934C101.454 33.3722 104.704 30.0142 108.692 30.0142ZM108.692 39.8524C109.954 39.8524 110.975 38.7978 110.975 37.4934C110.975 36.1891 109.954 35.1345 108.692 35.1345C107.43 35.1345 106.409 36.1891 106.409 37.4934C106.409 38.7978 107.43 39.8524 108.692 39.8524Z" fill="#EC6325"/>
<path d="M24.306 263.703C28.2943 263.703 31.544 267.061 31.544 271.182C31.544 275.303 28.2943 278.661 24.306 278.661C20.3176 278.661 17.0679 275.303 17.0679 271.182C17.0679 267.061 20.3176 263.703 24.306 263.703ZM24.306 273.555C25.5683 273.555 26.5888 272.5 26.5888 271.196C26.5888 269.891 25.5683 268.837 24.306 268.837C23.0437 268.837 22.0231 269.891 22.0231 271.196C22.0231 272.486 23.0437 273.555 24.306 273.555Z" fill="#EC6325"/>
<path d="M298.212 248.495L299.608 245.705C300.616 243.693 301.542 241.598 302.375 239.503C305.866 230.622 307.625 221.242 307.625 211.612C307.625 201.982 305.853 192.601 302.375 183.721C298.762 174.521 293.471 166.278 286.623 159.201C279.774 152.125 271.798 146.644 262.894 142.925L260.021 141.731V122.929L322.733 82.1471C324.492 81.0092 326.493 80.3987 328.534 80.3987C330.36 80.3987 332.173 80.8844 333.811 81.8141C337.33 83.8261 339.438 87.5033 339.438 91.6661V291.067L298.212 248.495Z" fill="#DFE7ED"/>
<path d="M235.903 285.045C216.915 285.045 199.068 277.413 185.652 263.536C178.884 256.543 173.634 248.37 170.062 239.253C166.61 230.456 164.865 221.159 164.865 211.612C164.865 202.065 166.61 192.768 170.062 183.971C173.634 174.854 178.871 166.681 185.652 159.687C199.081 145.811 216.928 138.179 235.903 138.179C254.891 138.179 272.738 145.811 286.153 159.687C292.921 166.681 298.172 174.854 301.744 183.971C305.195 192.768 306.941 202.065 306.941 211.612C306.941 221.159 305.195 230.456 301.744 239.253C298.172 248.37 292.921 256.543 286.153 263.536C272.724 277.413 254.878 285.045 235.903 285.045Z" fill="#EC6325"/>
<path d="M179.945 285.586V259.027L186.955 265.798C193.387 272.015 200.773 276.899 208.911 280.313C217.505 283.92 226.583 285.738 235.903 285.738C242.08 285.738 248.217 284.92 254.139 283.324L259.363 281.908V337.233L179.945 285.586Z" fill="#8F99A2"/>
<path d="M179.945 71.282L259.349 122.915V141.315L254.125 139.9C248.203 138.29 242.08 137.485 235.889 137.485C226.57 137.485 217.492 139.317 208.897 142.911C200.773 146.324 193.387 151.195 186.941 157.425L179.932 164.197V71.282H179.945Z" fill="#8F99A2"/>
<path d="M110.774 328.116C108.947 328.116 107.135 327.631 105.496 326.701C101.978 324.689 99.8696 321.012 99.8696 316.849V137.777C99.8696 133.239 100.984 128.757 103.106 124.789C105.228 120.82 108.303 117.448 112.023 115.034L179.274 71.2961V166.07L178.441 167.222C174.762 172.287 171.727 177.837 169.417 183.735C165.926 192.615 164.166 201.996 164.166 211.626C164.166 221.256 165.939 230.636 169.417 239.517C171.727 245.414 174.762 250.965 178.441 256.03L179.274 257.181V285.6L116.562 326.382C114.816 327.506 112.802 328.116 110.774 328.116Z" fill="#F9FCFF"/>
<path d="M271.757 232.398L255.159 215.233L275.276 194.447C277.384 192.268 278.539 189.382 278.539 186.302C278.539 183.221 277.384 180.335 275.276 178.156C274.671 177.532 274.027 177.005 273.328 176.547C271.744 175.506 269.918 174.909 268.011 174.812C267.809 174.798 267.608 174.798 267.393 174.798C264.412 174.798 261.619 175.992 259.51 178.17L239.407 198.957L235.903 195.335L219.291 178.17C217.331 176.144 214.766 174.965 212.026 174.812C211.825 174.798 211.61 174.798 211.409 174.798C208.427 174.798 205.634 175.992 203.526 178.17C201.203 180.571 200.115 183.79 200.29 186.94C200.437 189.674 201.512 192.366 203.526 194.447L223.642 215.233L203.526 236.02C201.203 238.421 200.115 241.64 200.29 244.79C200.397 246.705 200.961 248.606 201.982 250.285C202.411 251.006 202.935 251.672 203.539 252.297C205.648 254.475 208.441 255.669 211.422 255.669C214.403 255.669 217.196 254.475 219.305 252.297L239.421 231.51L256.032 248.675L259.537 252.297C261.645 254.475 264.439 255.669 267.42 255.669C270.401 255.669 273.194 254.475 275.302 252.297C279.64 247.815 279.64 240.502 275.302 236.02L271.757 232.398ZM273.57 186.316C273.57 188.022 272.926 189.618 271.757 190.825L248.136 215.233L268.252 236.02C268.252 236.02 268.252 236.02 268.266 236.034L271.771 239.656C272.066 239.961 272.321 240.294 272.55 240.641C274.134 243.125 273.879 246.496 271.771 248.675C270.602 249.882 269.058 250.548 267.406 250.548C266.171 250.548 265.003 250.174 263.995 249.494C263.66 249.258 263.337 248.994 263.042 248.689L259.537 245.067L239.421 224.281L237.662 226.099L215.8 248.703C214.631 249.91 213.087 250.576 211.435 250.576C210.2 250.576 209.032 250.201 208.025 249.521C207.689 249.286 207.367 249.022 207.071 248.717C206.453 248.078 205.983 247.329 205.688 246.524C204.829 244.235 205.285 241.543 207.071 239.697L230.692 215.289L227.187 211.667L207.071 190.881C204.667 188.397 204.667 184.345 207.071 181.861C208.239 180.654 209.784 179.988 211.435 179.988C213.074 179.988 214.631 180.654 215.786 181.847L235.916 202.648L239.421 206.269L263.042 181.861C264.21 180.654 265.755 179.988 267.406 179.988C268.185 179.988 268.951 180.141 269.649 180.418C270.428 180.737 271.153 181.223 271.771 181.847C272.066 182.153 272.335 182.486 272.55 182.833C273.208 183.832 273.57 185.039 273.57 186.316Z" fill="#EAF0F5"/>
<path d="M263.888 249.48C261.579 249.48 259.403 248.55 257.765 246.857L235.903 224.267L214.041 246.857C212.403 248.55 210.227 249.48 207.917 249.48C205.608 249.48 203.432 248.55 201.794 246.857C198.423 243.374 198.423 237.699 201.794 234.202L223.656 211.612L201.794 189.021C198.423 185.538 198.423 179.863 201.794 176.366C203.432 174.673 205.608 173.744 207.917 173.744C210.227 173.744 212.403 174.673 214.041 176.366L235.903 198.957L257.765 176.366C259.403 174.673 261.579 173.744 263.888 173.744C266.198 173.744 268.373 174.673 270.012 176.366C271.65 178.059 272.55 180.307 272.55 182.694C272.55 185.08 271.65 187.328 270.012 189.021L248.15 211.612L270.012 234.202C273.382 237.685 273.382 243.36 270.012 246.857C268.373 248.55 266.198 249.48 263.888 249.48Z" fill="#F9FCFF"/>
<path d="M260.007 281.603L262.505 280.479C262.693 280.396 267.004 278.453 268.884 277.454L271.583 276.011L303.476 308.967L260.007 337.233V281.603Z" fill="#DFE7ED"/>
<path d="M336.417 334.235C331.556 334.235 327.003 332.293 323.579 328.74L272.268 275.719L276.404 272.792C280.03 270.224 283.467 267.269 286.623 264.008C289.779 260.747 292.639 257.195 295.124 253.448L297.957 249.174L349.268 302.195C352.692 305.734 354.586 310.451 354.586 315.461C354.586 320.47 352.692 325.188 349.268 328.726C345.844 332.293 341.278 334.235 336.417 334.235Z" fill="#8F99A2"/>
<path d="M259.349 283.074V289.124L260.007 288.944V282.866C259.792 282.935 259.577 283.005 259.349 283.074ZM177.461 253.421C174.506 249.008 172.022 244.276 170.062 239.253C167.658 233.134 166.087 226.778 165.348 220.257C165.617 224.517 166.221 228.721 167.161 232.856C168.034 236.672 169.189 240.419 170.626 244.096C172.465 248.8 174.762 253.296 177.461 257.5C177.904 258.208 178.374 258.902 178.844 259.596C178.992 259.804 179.139 260.012 179.274 260.22C179.488 260.525 179.717 260.844 179.932 261.15V259.027L181.758 260.789V259.207C180.227 257.348 178.79 255.419 177.461 253.421ZM360.548 318.097C360.467 316.335 360.185 314.615 359.702 312.963C358.735 309.619 356.976 306.552 354.518 304.013L351.014 300.391L345.4 294.591V95.2879C345.4 92.7901 344.756 90.3618 343.561 88.2526C342.58 86.532 341.224 85.0334 339.599 83.8955C339.237 83.6458 338.874 83.4098 338.485 83.1878C336.846 82.2442 335.033 81.6753 333.194 81.5088C332.804 81.4672 332.401 81.4533 332.012 81.4533C329.514 81.4533 327.043 82.1887 324.895 83.5902L263.351 123.623L263.176 123.734L263.002 123.623L261.82 122.846L260.974 122.291L258.637 120.778L188.566 75.209L185.263 73.0582L183.114 71.6567L181.812 72.5032L181.758 72.5309L180.952 73.0582L179.932 73.7243L179.274 74.1544L177.649 75.209L177.447 75.3339L114.198 116.463C110.129 119.099 106.758 122.804 104.435 127.148C102.112 131.491 100.89 136.417 100.89 141.384V314.087V320.47C100.89 320.914 100.917 321.358 100.944 321.788C101.065 323.079 101.347 324.356 101.803 325.549C102.058 326.229 102.367 326.881 102.716 327.505C102.864 327.755 103.012 328.005 103.173 328.241C103.764 329.143 104.462 329.962 105.241 330.683H123.665L131.561 325.549L182.94 292.135L183.114 292.024L183.289 292.135L234.667 325.549L242.563 330.683L257.724 340.549L261.028 342.7L263.176 344.101L265.325 342.7L268.628 340.549L283.789 330.683L291.685 325.549L305.651 316.474L307.182 315.475L316.931 325.549L325.298 334.194C327.258 336.22 329.568 337.802 332.133 338.87C334.604 339.897 337.222 340.424 339.895 340.424C342.567 340.424 345.186 339.897 347.656 338.87C350.221 337.802 352.518 336.22 354.492 334.194C355.539 333.111 356.452 331.932 357.245 330.683C358.252 329.087 359.031 327.353 359.581 325.549C360.212 323.495 360.535 321.331 360.535 319.11C360.575 318.763 360.561 318.43 360.548 318.097ZM351.014 330.558C350.973 330.6 350.933 330.642 350.893 330.683C347.858 333.764 343.883 335.304 339.921 335.304C337.88 335.304 335.826 334.888 333.905 334.069C332.106 333.306 330.427 332.168 328.95 330.683C328.91 330.642 328.87 330.6 328.829 330.558L323.982 325.549L279.64 279.73L281.305 278.55C285.052 275.886 288.61 272.833 291.873 269.461C295.137 266.09 298.091 262.412 300.669 258.541L301.811 256.82L347.509 304.041L351.014 307.663C352.491 309.189 353.632 310.965 354.411 312.894C354.424 312.922 354.438 312.949 354.438 312.977C355.082 314.601 355.458 316.321 355.566 318.111C355.593 318.444 355.593 318.777 355.593 319.11C355.593 321.358 355.15 323.551 354.304 325.549C353.552 327.394 352.437 329.087 351.014 330.558ZM266.01 336.192V286.904L267.017 286.446C267.057 286.418 271.556 284.406 273.543 283.338L274.631 282.755L299.528 308.481L301.327 310.341L303.033 312.103L282.379 325.535L274.483 330.669L266.01 336.192ZM272.751 277.204C272.2 277.524 271.636 277.829 271.086 278.134C268.105 279.744 265.016 281.117 261.847 282.241C261.243 282.463 260.638 282.672 260.021 282.866C259.806 282.935 259.577 283.005 259.363 283.074C258.758 283.268 258.154 283.449 257.536 283.615C251.708 285.253 245.625 286.099 239.407 286.099C236.467 286.099 233.553 285.905 230.692 285.53C226.919 285.044 223.212 284.226 219.614 283.116C211.033 280.451 203.029 276.067 196.006 270.1C194.247 268.615 192.555 267.019 190.916 265.34C190.325 264.73 189.761 264.119 189.197 263.495C183.49 257.167 179.018 249.91 175.876 241.903C172.546 233.411 170.867 224.433 170.867 215.233C170.867 206.02 172.559 197.042 175.876 188.55C179.327 179.752 184.377 171.87 190.916 165.113C203.875 151.722 221.091 144.354 239.407 144.354C256.892 144.354 273.382 151.07 286.113 163.337C286.717 163.919 287.308 164.516 287.899 165.113C289.523 166.792 291.068 168.554 292.505 170.372C296.856 175.853 300.347 181.945 302.939 188.55C303.744 190.603 304.456 192.685 305.061 194.794C306.202 198.735 307.008 202.759 307.478 206.838C307.8 209.614 307.948 212.403 307.948 215.233C307.948 224.447 306.256 233.425 302.939 241.903C302.133 243.957 301.233 245.969 300.253 247.926C299.958 248.508 299.662 249.091 299.353 249.66C299.246 249.868 299.125 250.076 299.018 250.285C298.709 250.854 298.386 251.409 298.064 251.964C295.231 256.793 291.833 261.275 287.899 265.34C283.951 269.42 279.613 272.931 274.967 275.858C274.43 276.191 273.892 276.524 273.342 276.844C273.154 276.968 272.952 277.079 272.751 277.204ZM257.523 334.346L251.883 330.683L243.987 325.549L185.921 287.792V268.56L188.741 271.293C195.402 277.732 203.042 282.783 211.462 286.307C220.352 290.04 229.752 291.927 239.381 291.927C245.289 291.927 251.158 291.205 256.851 289.79C257.066 289.735 257.295 289.679 257.509 289.624C257.751 289.554 258.006 289.499 258.248 289.429L259.336 289.138L259.994 288.958L260.356 288.86V336.192L259.994 335.956L259.336 335.526L257.523 334.346ZM340.445 95.2879V288.5L336.94 284.878L304.765 251.631L305.329 250.507C306.377 248.425 307.33 246.261 308.189 244.096C311.788 234.91 313.628 225.197 313.628 215.247C313.628 205.284 311.802 195.585 308.189 186.385C304.456 176.866 298.964 168.332 291.887 161.019C291.296 160.409 290.705 159.812 290.101 159.243C287.643 156.856 285.052 154.678 282.339 152.68C277.679 149.252 272.67 146.422 267.326 144.174L265.996 143.619V127.966L327.54 87.9335C328.923 87.0315 330.468 86.5736 332.012 86.5736C333.355 86.5736 334.711 86.9205 335.973 87.6143C336.014 87.6282 336.054 87.656 336.081 87.6698C337.518 88.4885 338.646 89.668 339.384 91.0695C340.083 92.3322 340.445 93.7754 340.445 95.2879ZM260.37 127.966V141.62L260.007 141.523L258.261 141.051C258.02 140.982 257.765 140.927 257.523 140.857C253.4 139.789 249.17 139.081 244.9 138.762C243.074 138.623 241.234 138.554 239.394 138.554C229.752 138.554 220.366 140.441 211.476 144.174C203.069 147.698 195.415 152.749 188.754 159.188L185.934 161.921V79.5662L256.865 125.691L257.523 126.121L259.349 127.3L260.007 127.73L260.37 127.966ZM110.263 328.102C110.237 328.088 110.223 328.088 110.21 328.074C109.082 327.436 108.142 326.576 107.43 325.549C107.202 325.216 106.987 324.869 106.812 324.508C106.194 323.287 105.859 321.913 105.859 320.47V141.398C105.859 137.305 106.866 133.239 108.786 129.645C110.707 126.065 113.486 123.012 116.843 120.82L176.776 81.8418L177.434 81.4117L179.26 80.2322L179.918 79.8021L180.281 79.5662V168.845L179.945 169.303C176.131 174.549 172.989 180.293 170.599 186.385C167 195.571 165.16 205.284 165.16 215.247C165.16 216.926 165.214 218.605 165.321 220.27C165.59 224.53 166.194 228.735 167.134 232.87C168.007 236.686 169.162 240.433 170.599 244.11C172.438 248.814 174.735 253.31 177.434 257.514C177.877 258.222 178.347 258.916 178.817 259.609C178.965 259.818 179.112 260.026 179.247 260.234C179.462 260.539 179.69 260.858 179.905 261.164C179.918 261.177 179.918 261.191 179.932 261.191L180.267 261.649V287.792L179.448 288.319L122.202 325.549L118.71 327.825C117.327 328.727 115.783 329.185 114.238 329.185C112.909 329.171 111.539 328.81 110.263 328.102Z" fill="#EAF0F5"/>
<path d="M340.056 84.6311C339.908 84.3813 339.76 84.1316 339.599 83.8957C338.431 82.1195 336.846 80.6209 334.98 79.5663C332.979 78.4285 330.75 77.8318 328.507 77.8318C326.009 77.8318 323.539 78.5672 321.39 79.9687L259.846 120.001L259.672 120.112L258.638 120.779L257.523 121.5V143.466L257.657 143.522L260.638 144.757L261.954 145.298C270.535 148.892 278.243 154.178 284.85 161.006C287.67 163.92 290.235 167.056 292.491 170.372C295.526 174.812 298.064 179.6 300.052 184.678C303.422 193.254 305.128 202.315 305.128 211.612C305.128 220.909 303.422 229.97 300.052 238.532C299.259 240.558 298.36 242.57 297.393 244.512L296.829 245.636L295.446 248.398L295.164 248.967L296.359 250.202L296.896 250.757L297.729 251.617L298.051 251.95L298.158 252.061L333.409 288.486L341.896 297.256V91.6663C341.896 89.1686 341.264 86.7403 340.056 84.6311ZM304.765 251.631L301.26 248.009L301.824 246.885C302.872 244.804 303.825 242.639 304.685 240.474C308.297 231.288 310.123 221.575 310.123 211.626C310.123 201.663 308.297 191.963 304.685 182.763C301.26 174.035 296.359 166.126 290.101 159.229C289.537 158.605 288.96 157.994 288.382 157.384C281.856 150.654 274.349 145.312 266.01 141.496C265.285 141.163 264.56 140.843 263.834 140.538L262.505 139.983V124.331L324.049 84.2981C325.432 83.3961 326.976 82.9382 328.521 82.9382C329.904 82.9382 331.3 83.299 332.59 84.0344C334.08 84.8809 335.235 86.1297 335.987 87.6006C336.605 88.8217 336.94 90.1955 336.94 91.6386V284.85L304.765 251.631Z" fill="#0D263C"/>
<path d="M304.04 183.013C300.347 173.577 294.922 165.113 287.912 157.869C286.126 156.024 284.273 154.289 282.339 152.666C277.317 148.42 271.824 144.923 266.01 142.231C264.64 141.592 263.244 141.01 261.834 140.455C261.35 140.26 260.867 140.08 260.37 139.9C260.249 139.858 260.128 139.816 260.007 139.775C259.779 139.691 259.564 139.622 259.349 139.539C258.745 139.331 258.141 139.122 257.523 138.942C250.607 136.75 243.329 135.612 235.889 135.612C217.196 135.612 199.565 142.772 185.921 155.843C185.223 156.509 184.551 157.189 183.88 157.883C183.155 158.632 182.443 159.396 181.758 160.173C181.261 160.728 180.778 161.297 180.294 161.866C180.173 162.004 180.053 162.157 179.932 162.296C179.703 162.559 179.489 162.837 179.274 163.114C178.643 163.891 178.038 164.669 177.447 165.473C173.459 170.843 170.223 176.713 167.738 183.027C164.166 192.129 162.367 201.76 162.367 211.625C162.367 221.491 164.18 231.121 167.738 240.224C170.209 246.538 173.459 252.421 177.447 257.778C177.904 258.388 178.361 258.999 178.831 259.595C178.978 259.776 179.126 259.956 179.26 260.137C179.475 260.414 179.703 260.678 179.918 260.955C180.509 261.677 181.113 262.384 181.745 263.078C182.429 263.855 183.141 264.619 183.866 265.368C197.752 279.716 216.23 287.625 235.876 287.625C243.315 287.625 250.594 286.487 257.509 284.309C258.114 284.115 258.731 283.92 259.336 283.712C259.551 283.629 259.779 283.56 259.994 283.476C260.598 283.254 261.216 283.032 261.82 282.796C265.056 281.534 268.199 280.049 271.234 278.328C271.784 278.023 272.335 277.69 272.872 277.371C273.073 277.246 273.261 277.135 273.463 277.01C274 276.677 274.537 276.344 275.061 275.997C279.653 273 283.951 269.447 287.899 265.382C291.82 261.33 295.258 256.89 298.158 252.102C298.494 251.561 298.816 251.006 299.139 250.451C299.259 250.243 299.367 250.049 299.488 249.84C299.81 249.271 300.119 248.716 300.414 248.134C301.757 245.58 302.966 242.958 304.027 240.238C307.599 231.135 309.398 221.505 309.398 211.639C309.411 201.746 307.612 192.116 304.04 183.013ZM235.903 282.477C218.418 282.477 201.928 275.761 189.198 263.495C188.593 262.912 188.002 262.315 187.412 261.718C180.872 254.961 175.809 247.079 172.371 238.282C169.041 229.789 167.362 220.811 167.362 211.612C167.362 202.398 169.054 193.42 172.371 184.928C175.823 176.13 180.885 168.249 187.412 161.491C200.37 148.1 217.586 140.732 235.903 140.732C254.219 140.732 271.448 148.1 284.394 161.491C284.985 162.101 285.549 162.712 286.113 163.336C291.82 169.664 296.292 176.921 299.434 184.928C302.764 193.42 304.443 202.398 304.443 211.612C304.443 220.825 302.751 229.803 299.434 238.282C295.983 247.079 290.934 254.961 284.394 261.718C271.435 275.109 254.219 282.477 235.903 282.477Z" fill="#0D263C"/>
<path d="M258.53 279.466L255.603 280.257L253.494 280.826C247.787 282.38 241.865 283.157 235.889 283.157C226.892 283.157 218.123 281.395 209.838 277.912C204.923 275.858 200.29 273.236 195.993 270.1C193.428 268.227 190.97 266.159 188.647 263.911L185.827 261.177L181.772 257.25L177.461 253.088V286.987L179.489 288.305L179.61 288.389L179.784 288.5L236.735 325.535L244.631 330.669L254.22 336.914L257.523 339.064L259.672 340.466L261.82 339.064V278.564L258.53 279.466ZM182.43 264.938L185.25 267.671C191.91 274.11 199.551 279.161 207.971 282.685C216.861 286.418 226.261 288.305 235.903 288.305C242.295 288.305 248.647 287.459 254.77 285.808L256.878 285.239V332.584L253.964 330.697L246.068 325.563L185.948 286.46L182.443 284.184V264.938H182.43Z" fill="#0D263C"/>
<path d="M259.685 120.112L259.51 120.001L185.075 71.6014L181.772 69.4506L179.623 68.0491L177.474 69.4506V170.136L180.321 167.389L181.785 165.973L185.84 162.06L188.66 159.327C194.878 153.318 202.009 148.614 209.851 145.325C218.15 141.843 226.919 140.08 235.903 140.08C241.879 140.08 247.801 140.871 253.508 142.411L255.616 142.98L257.684 143.535L261.847 144.659V121.514L259.685 120.112ZM182.43 75.9307L256.865 124.345V137.999L254.757 137.43C248.633 135.765 242.281 134.932 235.889 134.932C226.247 134.932 216.861 136.819 207.958 140.552C199.833 143.952 192.421 148.781 185.921 154.914C185.693 155.122 185.464 155.344 185.236 155.566L182.416 158.3V75.9307H182.43Z" fill="#0D263C"/>
<path d="M179.609 68.0352L177.461 69.4366L174.157 71.5875L110.72 112.841C106.651 115.492 103.28 119.183 100.957 123.526C98.6341 127.869 97.4121 132.795 97.4121 137.763V312.963V316.835C97.4121 317.251 97.4255 317.681 97.4658 318.098C97.6404 320.151 98.2447 322.122 99.2518 323.87C99.5876 324.453 99.9636 325.008 100.38 325.549C101.186 326.576 102.139 327.478 103.213 328.241C103.576 328.491 103.938 328.727 104.328 328.949C106.329 330.087 108.558 330.683 110.801 330.683C113.298 330.683 115.769 329.948 117.918 328.546L122.524 325.549L179.475 288.514L179.65 288.403L181.798 287.001V256.307L180.804 254.933L180.469 254.475C176.924 249.591 173.983 244.221 171.754 238.545C168.396 229.97 166.677 220.909 166.677 211.612C166.677 202.315 168.383 193.254 171.754 184.692C173.983 179.003 176.91 173.647 180.469 168.762L180.804 168.304L181.798 166.931V69.4505L179.609 68.0352ZM106.812 324.508C106.772 324.494 106.732 324.467 106.705 324.453C103.979 322.899 102.367 320.054 102.367 316.849V137.777C102.367 133.683 103.374 129.618 105.295 126.024C107.215 122.43 109.995 119.391 113.352 117.198L176.789 75.9446V165.224L176.454 165.682C172.653 170.927 169.498 176.672 167.107 182.763C163.508 191.949 161.669 201.663 161.669 211.612C161.669 221.575 163.495 231.274 167.107 240.474C169.498 246.566 172.64 252.325 176.454 257.556L176.789 258.014V284.156L115.245 324.189C113.862 325.091 112.318 325.549 110.774 325.549C109.417 325.549 108.075 325.202 106.812 324.508Z" fill="#0D263C"/>
<path d="M255.159 215.234L251.654 211.612L271.771 190.825C273.879 188.647 275.034 185.761 275.034 182.68C275.034 180.474 274.443 178.365 273.328 176.547C272.885 175.825 272.375 175.159 271.771 174.535C269.662 172.356 266.869 171.163 263.888 171.163C260.907 171.163 258.114 172.356 256.005 174.535L235.889 195.321L219.278 178.156L215.773 174.535C213.665 172.356 210.871 171.163 207.89 171.163C204.909 171.163 202.116 172.356 200.008 174.535C195.67 179.017 195.67 186.33 200.008 190.812L220.124 211.598L200.021 232.398C195.683 236.894 195.683 244.193 200.021 248.675C200.625 249.3 201.27 249.827 201.982 250.285C203.741 251.436 205.782 252.047 207.904 252.047C210.885 252.047 213.678 250.854 215.786 248.675L235.902 227.889L239.407 231.51L256.019 248.675C258.127 250.854 260.92 252.047 263.901 252.047C266.883 252.047 269.676 250.854 271.784 248.675C276.135 244.179 276.135 236.88 271.784 232.398L255.159 215.234ZM259.524 245.04L239.407 224.253L235.902 220.631L212.281 245.04C211.113 246.247 209.569 246.913 207.917 246.913C207.138 246.913 206.373 246.76 205.674 246.483C204.882 246.164 204.17 245.678 203.553 245.053C201.149 242.57 201.149 238.518 203.553 236.034L227.174 211.626L207.058 190.839L203.553 187.218C201.149 184.734 201.149 180.682 203.553 178.198C204.721 176.991 206.265 176.325 207.917 176.325C209.569 176.325 211.113 176.991 212.281 178.198L215.773 181.82L235.902 202.62L259.524 178.212C260.692 177.005 262.236 176.339 263.888 176.339C265.54 176.339 267.084 177.005 268.252 178.212C268.87 178.85 269.34 179.586 269.635 180.404C269.904 181.14 270.052 181.917 270.052 182.722C270.052 184.428 269.407 186.024 268.239 187.231L244.618 211.64L248.123 215.261L268.239 236.048C268.239 236.048 268.239 236.048 268.252 236.062C270.656 238.546 270.643 242.597 268.239 245.081C267.071 246.288 265.526 246.954 263.875 246.954C262.223 246.954 260.692 246.247 259.524 245.04Z" fill="#0D263C"/>
<path d="M303.033 304.86L275.074 275.97L274.967 275.859L274.631 275.512L273.799 274.651L273.275 274.11L272.066 272.861L271.516 273.153L268.843 274.582L267.756 275.165C266.332 275.928 263.176 277.385 261.538 278.12L260.531 278.578L258.544 279.466L257.536 279.924V339.078L259.685 340.48L261.834 339.078L265.137 336.928L274.725 330.683L282.621 325.549L302.16 312.839L303.691 311.839L305.853 310.438L307.438 309.411L303.033 304.86ZM265.406 330.683L262.492 332.57V283.282L263.499 282.824C263.539 282.811 268.038 280.785 270.025 279.73L271.113 279.147L274.618 282.769L299.515 308.495L273.288 325.549L265.983 330.295L265.406 330.683Z" fill="#0D263C"/>
<path d="M356.922 312.964C356.385 308.218 354.331 303.833 351.014 300.392L345.4 294.591L341.896 290.97L339.411 288.403L301.811 249.549L299.085 246.733L298.574 246.205L297.581 245.178L295.446 248.398L294.197 250.271L293.055 251.992C290.652 255.613 287.899 259.041 284.85 262.191C281.802 265.341 278.485 268.185 274.98 270.669L273.315 271.848L271.502 273.139L268.387 275.345L269.877 276.886L271.059 278.107L271.22 278.273L272.603 279.702L301.878 309.952L303.677 311.812L307.182 315.433L316.932 325.508L321.9 330.642C323.847 332.626 326.103 334.152 328.628 335.207C331.099 336.234 333.717 336.761 336.39 336.761C339.076 336.761 341.681 336.234 344.152 335.207C346.676 334.152 348.932 332.612 350.879 330.642C350.92 330.6 350.96 330.572 350.987 330.531C352.437 329.018 353.659 327.339 354.599 325.508C355.794 323.204 356.573 320.693 356.882 318.056C356.989 317.196 357.03 316.322 357.03 315.433C357.07 314.629 357.016 313.796 356.922 312.964ZM325.338 326.937L323.995 325.549L279.653 279.73L276.149 276.108L277.814 274.929C281.56 272.265 285.119 269.212 288.382 265.84C291.645 262.468 294.6 258.791 297.178 254.92L298.319 253.199L301.824 256.821L347.522 304.041C350.477 307.094 352.101 311.16 352.101 315.489V315.544C352.088 319.222 350.893 322.718 348.717 325.563C348.341 326.049 347.952 326.507 347.522 326.951C345.87 328.657 343.923 329.906 341.855 330.697C340.11 331.363 338.27 331.696 336.43 331.696C334.59 331.696 332.751 331.363 331.005 330.697C328.937 329.892 326.99 328.644 325.338 326.937Z" fill="#0D263C"/>
<path d="M253.951 330.683H53.4064C52.0367 330.683 50.9221 329.532 50.9221 328.116C50.9221 326.701 52.0367 325.549 53.4064 325.549H246.055L253.951 330.683Z" fill="#0D263C"/>
<path d="M325.338 326.937C326.99 328.643 328.937 329.892 331.005 330.683H265.419L273.315 325.549H323.995L325.338 326.937Z" fill="#0D263C"/>
<path d="M390.105 328.116C390.105 329.532 388.99 330.683 387.621 330.683H341.842C343.91 329.906 345.844 328.657 347.509 326.937C347.939 326.493 348.342 326.035 348.704 325.549H387.621C388.99 325.549 390.105 326.701 390.105 328.116Z" fill="#0D263C"/>
<path d="M43.147 330.683H31.84C30.4703 330.683 29.3557 329.532 29.3557 328.116C29.3557 326.701 30.4703 325.549 31.84 325.549H43.1604C44.5302 325.549 45.6448 326.701 45.6448 328.116C45.6448 329.532 44.5302 330.683 43.147 330.683Z" fill="#0D263C"/>
<path d="M98.8494 318.098H87.529C86.1593 318.098 85.0447 316.946 85.0447 315.531C85.0447 314.115 86.1593 312.964 87.529 312.964H98.8494C100.219 312.964 101.334 314.115 101.334 315.531C101.334 316.946 100.219 318.098 98.8494 318.098Z" fill="#0D263C"/>
<path d="M77.2828 318.098H65.9623C64.5926 318.098 63.478 316.946 63.478 315.531C63.478 314.115 64.5926 312.964 65.9623 312.964H77.2828C78.6525 312.964 79.7671 314.115 79.7671 315.531C79.7671 316.946 78.6525 318.098 77.2828 318.098Z" fill="#0D263C"/>
<path d="M365.893 318.098H354.573C353.203 318.098 352.088 316.946 352.088 315.531C352.088 314.115 353.203 312.964 354.573 312.964H365.893C367.263 312.964 368.377 314.115 368.377 315.531C368.377 316.946 367.263 318.098 365.893 318.098Z" fill="#0D263C"/>
<path d="M387.459 318.098H376.152C374.783 318.098 373.668 316.946 373.668 315.531C373.668 314.115 374.783 312.964 376.152 312.964H387.473C388.842 312.964 389.957 314.115 389.957 315.531C389.957 316.946 388.829 318.098 387.459 318.098Z" fill="#0D263C"/>
<path d="M409.187 330.683H397.867C396.497 330.683 395.382 329.532 395.382 328.116C395.382 326.701 396.497 325.549 397.867 325.549H409.187C410.557 325.549 411.671 326.701 411.671 328.116C411.671 329.532 410.557 330.683 409.187 330.683Z" fill="#0D263C"/>
</svg>
