<svg width="14" height="14" viewBox="0 0 14 14" fill="none" xmlns="http://www.w3.org/2000/svg">
<g clip-path="url(#clip0_43_440)">
<path d="M7.91615 7.00821L11.81 3.11429C12.0634 2.86101 12.0634 2.45149 11.81 2.1982C11.5567 1.94492 11.1471 1.94492 10.8939 2.1982L6.99994 6.09212L3.10614 2.1982C2.85274 1.94492 2.44333 1.94492 2.19005 2.1982C1.93665 2.45149 1.93665 2.86101 2.19005 3.11429L6.08385 7.00821L2.19005 10.9021C1.93665 11.1554 1.93665 11.5649 2.19005 11.8182C2.31628 11.9446 2.48225 12.008 2.6481 12.008C2.81395 12.008 2.9798 11.9446 3.10614 11.8182L6.99994 7.9243L10.8939 11.8182C11.0202 11.9446 11.1861 12.008 11.3519 12.008C11.5178 12.008 11.6836 11.9446 11.81 11.8182C12.0634 11.5649 12.0634 11.1554 11.81 10.9021L7.91615 7.00821Z" fill="#B1C20E"/>
</g>
<defs>
<clipPath id="clip0_43_440">
<rect width="10" height="10" fill="white" transform="translate(2 2)"/>
</clipPath>
</defs>
</svg>
