<svg width="130" height="130" viewBox="0 0 130 130" fill="none" xmlns="http://www.w3.org/2000/svg">
<path d="M51.5127 119.167C52.7329 118.743 53.8563 118.08 54.8168 117.217C56.5005 115.68 57.6567 113.652 58.121 111.421C58.6156 109.111 58.305 106.702 57.2408 104.593C56.1766 102.484 54.4228 100.803 52.271 99.8292C50.2281 98.821 47.9194 98.4824 45.6731 98.8617C43.4267 99.2409 41.3571 100.319 39.7585 101.942C38.3447 103.545 37.4651 105.548 37.2418 107.674C37.0186 109.8 37.4628 111.942 38.5127 113.804C39.4253 115.407 40.7075 116.77 42.2525 117.778C43.7976 118.786 45.5609 119.411 47.396 119.6C47.8223 119.71 48.2696 119.71 48.696 119.6H48.7502C49.0746 119.627 49.4007 119.627 49.7252 119.6C50.1799 119.53 50.6195 119.384 51.0252 119.167H51.5127ZM43.7127 112.125L43.3335 111.692L42.9002 110.879V110.338V109.904C42.9002 109.904 42.9002 109.471 42.9002 109.363V109.092C42.8729 108.93 42.8729 108.766 42.9002 108.604V108.333L43.2252 107.358V106.871L43.3335 106.167L43.8752 105.517L44.7418 105.029H45.3377H45.8793H46.1502C46.5819 104.977 47.0184 104.977 47.4502 105.029C46.9627 105.029 47.4502 105.029 47.4502 105.029H48.2085C48.2085 105.029 49.2377 105.354 48.8585 105.029L49.9418 105.625L50.4293 105.95L51.2418 106.763L51.5127 107.142C51.592 107.327 51.6824 107.508 51.7835 107.683C51.8084 108.062 51.8084 108.442 51.7835 108.821C51.8103 109.091 51.8103 109.363 51.7835 109.633C51.7835 109.633 51.7835 109.958 51.7835 110.067V110.608V111.15C51.7951 111.312 51.7951 111.475 51.7835 111.638C51.7835 112.017 51.4043 112.342 51.2418 112.667L50.8085 113.154C50.8631 113.349 50.8993 113.548 50.9168 113.75L50.3752 114.075H49.996C49.3216 114.258 48.6331 114.385 47.9377 114.454C47.3502 114.306 46.7715 114.125 46.2043 113.913H45.7168L45.0127 113.425V113.154L43.7127 112.125Z" fill="#B1C20E"/>
<path d="M100.858 100.046C98.8155 99.0376 96.5068 98.6991 94.2605 99.0783C92.0141 99.4576 89.9445 100.535 88.3459 102.158C86.9321 103.761 86.0525 105.765 85.8293 107.891C85.606 110.016 86.0502 112.159 87.1001 114.021C88.0127 115.624 89.2949 116.986 90.8399 117.994C92.385 119.002 94.1483 119.627 95.9834 119.817C96.4097 119.927 96.857 119.927 97.2834 119.817C97.6078 119.844 97.9339 119.844 98.2584 119.817C98.7131 119.747 99.1527 119.6 99.5584 119.383H100.046C101.283 118.961 102.424 118.298 103.404 117.433C105.068 115.89 106.205 113.862 106.654 111.637C107.153 109.334 106.85 106.93 105.796 104.822C104.742 102.714 103 101.029 100.858 100.046ZM101.508 110.012V110.554V111.096V111.583L100.913 112.612L100.425 113.1C100.295 113.258 100.149 113.403 99.9917 113.533L99.4501 113.858H99.0709C98.4138 114.037 97.7436 114.164 97.0667 114.237C96.4595 114.097 95.8623 113.916 95.2792 113.696H94.8459L94.0876 113.208C94.0876 113.208 94.0876 113.208 93.8167 112.937L92.0834 112.179V111.692L91.6501 110.879V110.337C91.6313 110.194 91.6313 110.048 91.6501 109.904C91.6198 109.725 91.6198 109.542 91.6501 109.362V108.333C91.7151 108.002 91.8056 107.676 91.9209 107.358C92.0313 107.208 92.1223 107.044 92.1917 106.871L92.0834 106.167L92.6792 105.517L93.5459 105.029H94.1417H94.6834H94.9542C95.386 104.977 95.8225 104.977 96.2542 105.029C95.8209 105.029 96.2542 105.029 96.2542 105.029H97.0126C97.0126 105.029 98.0417 105.354 97.6626 105.029L98.7459 105.625L99.2334 105.95L100.1 106.762L100.371 107.142L100.642 107.683L100.967 108.821V109.633C101.192 109.711 101.383 109.864 101.508 110.067V110.012Z" fill="#B1C20E"/>
<path d="M14.4086 30.1167H22.9669C28.3836 51.0792 33.3127 72.0417 38.3502 93.0583C38.5044 93.631 38.8423 94.1372 39.312 94.4992C39.7817 94.8613 40.3572 95.0592 40.9502 95.0625C62.6169 95.0625 83.7419 95.0625 105.084 94.575C105.802 94.575 106.491 94.2896 106.999 93.7817C107.507 93.2738 107.792 92.585 107.792 91.8667C107.792 91.1484 107.507 90.4595 106.999 89.9516C106.491 89.4437 105.802 89.1583 105.084 89.1583C84.4461 89.1583 63.7544 89.5375 43.0627 89.6458C42.6294 87.8583 42.1961 86.125 41.8169 84.2292L98.4752 81.25L106.6 80.8167C107.193 80.8133 107.769 80.6155 108.238 80.2534C108.708 79.8913 109.046 79.3851 109.2 78.8125C113.209 65.7583 116.784 52.5417 120.034 39.2708C120.846 35.8583 115.592 34.45 114.617 37.8083C111.638 50.4833 108.171 63.05 104.434 75.725L48.7502 78.4875L40.4086 78.9208C36.2197 61.4431 31.9766 43.9833 27.6794 26.5417C27.532 25.9696 27.1942 25.4648 26.7216 25.1104C26.249 24.7559 25.6698 24.573 25.0794 24.5917C21.5586 24.5917 17.9294 24.5917 14.2461 24.5917C10.5627 24.5917 10.8336 30.3875 14.4086 30.1167Z" fill="#B1C20E"/>
<path d="M46.3665 53.4625L62.1832 69.225C62.4303 69.4772 62.7253 69.6776 63.0508 69.8144C63.3764 69.9512 63.7259 70.0216 64.079 70.0216C64.4321 70.0216 64.7817 69.9512 65.1072 69.8144C65.4328 69.6776 65.7277 69.4772 65.9749 69.225L93.0582 41.0042L96.904 36.8875C99.3415 34.3958 95.4957 30.55 93.1124 33.0958L66.029 61.3167L64.0249 63.4833L50.2124 49.6167C47.7749 47.1792 43.929 51.025 46.3665 53.4625Z" fill="#B1C20E"/>
</svg>
