<svg width="25" height="25" viewBox="0 0 25 25" fill="none" xmlns="http://www.w3.org/2000/svg">
<path d="M21.6461 20.5414L16.9828 15.8781C18.0859 14.5312 18.75 12.8109 18.75 10.9375C18.75 6.62969 15.2453 3.125 10.9375 3.125C6.62969 3.125 3.125 6.62969 3.125 10.9375C3.125 15.2453 6.62969 18.75 10.9375 18.75C12.8109 18.75 14.5312 18.0859 15.8781 16.9828L20.5414 21.6461C20.8469 21.9516 21.3406 21.9516 21.6461 21.6461C21.9516 21.3406 21.9516 20.8469 21.6461 20.5414ZM4.6875 10.9375C4.6875 7.49141 7.49141 4.6875 10.9375 4.6875C14.3836 4.6875 17.1875 7.49141 17.1875 10.9375C17.1875 14.3836 14.3836 17.1875 10.9375 17.1875C7.49141 17.1875 4.6875 14.3836 4.6875 10.9375Z" fill="#2D3035"/>
</svg>
