<svg width="25" height="25" viewBox="0 0 25 25" fill="none" xmlns="http://www.w3.org/2000/svg">
<path d="M13.2812 21.0938V22.6562C13.2812 23.0875 12.9312 23.4375 12.5 23.4375C12.0688 23.4375 11.7188 23.0875 11.7188 22.6562V21.0938C11.7188 20.6625 12.0688 20.3125 12.5 20.3125C12.9312 20.3125 13.2812 20.6625 13.2812 21.0938Z" fill="#2D3035"/>
<path d="M23.4375 12.5C23.4375 12.9312 23.0875 13.2812 22.6562 13.2812H21.0938C20.6625 13.2812 20.3125 12.9312 20.3125 12.5C20.3125 12.0688 20.6625 11.7188 21.0938 11.7188H22.6562C23.0875 11.7188 23.4375 12.0688 23.4375 12.5Z" fill="#2D3035"/>
<path d="M4.6875 12.5C4.6875 12.9312 4.3375 13.2812 3.90625 13.2812H2.34375C1.9125 13.2812 1.5625 12.9312 1.5625 12.5C1.5625 12.0688 1.9125 11.7188 2.34375 11.7188H3.90625C4.3375 11.7188 4.6875 12.0688 4.6875 12.5Z" fill="#2D3035"/>
<path d="M6.80239 18.1977C7.10786 18.5031 7.10786 18.9969 6.80239 19.3023L5.87114 20.2336C5.56567 20.5391 5.07192 20.5391 4.76646 20.2336C4.46099 19.9281 4.46099 19.4344 4.76646 19.1289L5.69771 18.1977C6.00317 17.8922 6.49692 17.8922 6.80239 18.1977Z" fill="#2D3035"/>
<path d="M20.2335 19.1289C20.539 19.4344 20.539 19.9281 20.2335 20.2336C19.9281 20.5391 19.4343 20.5391 19.1289 20.2336L18.1976 19.3023C17.8921 18.9969 17.8921 18.5031 18.1976 18.1977C18.5031 17.8922 18.9968 17.8922 19.3023 18.1977L20.2335 19.1289Z" fill="#2D3035"/>
<path d="M12.5 1.5625C12.9312 1.5625 13.2812 1.9125 13.2812 2.34375V3.90625C13.2812 4.3375 12.9312 4.6875 12.5 4.6875C12.0688 4.6875 11.7188 4.3375 11.7188 3.90625V2.34375C11.7188 1.9125 12.0688 1.5625 12.5 1.5625Z" fill="#2D3035"/>
<path d="M5.87114 4.76641L6.80239 5.69766C7.10786 6.00312 7.10786 6.49687 6.80239 6.80234C6.49692 7.10781 6.00317 7.10781 5.69771 6.80234L4.76646 5.87109C4.46099 5.56562 4.46099 5.07187 4.76646 4.76641C5.07192 4.46094 5.56567 4.46094 5.87114 4.76641Z" fill="#2D3035"/>
<path d="M18.1976 6.80234C17.8921 6.49687 17.8921 6.00312 18.1976 5.69766L19.1289 4.76641C19.4343 4.46094 19.9281 4.46094 20.2335 4.76641C20.539 5.07187 20.539 5.56562 20.2335 5.87109L19.3023 6.80234C18.9968 7.10781 18.5031 7.10781 18.1976 6.80234Z" fill="#2D3035"/>
<path d="M12.5 6.25C9.05391 6.25 6.25 9.05391 6.25 12.5C6.25 15.9461 9.05391 18.75 12.5 18.75C15.9461 18.75 18.75 15.9461 18.75 12.5C18.75 9.05391 15.9461 6.25 12.5 6.25ZM12.5 17.1875C9.91484 17.1875 7.8125 15.0852 7.8125 12.5C7.8125 9.91484 9.91484 7.8125 12.5 7.8125C15.0852 7.8125 17.1875 9.91484 17.1875 12.5C17.1875 15.0852 15.0852 17.1875 12.5 17.1875Z" fill="#2D3035"/>
</svg>
