<svg width="85" height="85" viewBox="0 0 85 85" fill="none" xmlns="http://www.w3.org/2000/svg">
<path d="M72.6042 69.4166H12.3959C8.14587 69.4166 4.95837 66.2291 4.95837 61.9791V23.0208C4.95837 18.7708 8.14587 15.5833 12.3959 15.5833H72.6042C76.8542 15.5833 80.0417 18.7708 80.0417 23.0208V61.9791C80.0417 66.2291 76.8542 69.4166 72.6042 69.4166ZM12.3959 19.8333C10.625 19.8333 9.20837 21.2499 9.20837 23.0208V61.9791C9.20837 63.7499 10.625 65.1666 12.3959 65.1666H72.6042C74.375 65.1666 75.7917 63.7499 75.7917 61.9791V23.0208C75.7917 21.2499 74.375 19.8333 72.6042 19.8333H12.3959Z" fill="#333333"/>
<path d="M26.5625 60.5625H17.7084C16.6459 60.5625 15.5834 59.5 15.5834 58.4375C15.5834 57.375 16.6459 56.3125 17.7084 56.3125H26.5625C27.625 56.3125 28.6875 57.375 28.6875 58.4375C28.6875 59.5 27.625 60.5625 26.5625 60.5625Z" fill="#333333"/>
<path d="M46.0417 60.5625H37.1875C36.125 60.5625 35.0625 59.5 35.0625 58.4375C35.0625 57.375 36.125 56.3125 37.1875 56.3125H46.0417C47.1042 56.3125 48.1667 57.375 48.1667 58.4375C48.1667 59.5 47.1042 60.5625 46.0417 60.5625Z" fill="#333333"/>
<path d="M67.2917 30.4583H49.5834C48.5209 30.4583 47.4584 29.3958 47.4584 28.3333C47.4584 27.2708 48.5209 26.2083 49.5834 26.2083H67.2917C68.3542 26.2083 69.4167 27.2708 69.4167 28.3333C69.4167 29.3958 68.3542 30.4583 67.2917 30.4583Z" fill="#333333"/>
<path d="M30.1042 41.0833H19.4792C17.3542 41.0833 15.5834 39.3124 15.5834 37.1874V30.1041C15.5834 27.9791 17.3542 26.2083 19.4792 26.2083H30.1042C32.2292 26.2083 34 27.9791 34 30.1041V37.1874C34 39.3124 32.2292 41.0833 30.1042 41.0833ZM19.8334 36.8333H29.75V30.4583H19.8334V36.8333Z" fill="#333333"/>
<path d="M24.7917 51.7083H17.7084C16.6459 51.7083 15.5834 50.6458 15.5834 49.5833C15.5834 48.5208 16.6459 47.4583 17.7084 47.4583H24.7917C25.8542 47.4583 26.9167 48.5208 26.9167 49.5833C26.9167 50.6458 25.8542 51.7083 24.7917 51.7083Z" fill="#333333"/>
<path d="M38.9584 51.7083H33.6459C32.5834 51.7083 31.5209 50.6458 31.5209 49.5833C31.5209 48.5208 32.5834 47.4583 33.6459 47.4583H38.9584C40.0209 47.4583 41.0834 48.5208 41.0834 49.5833C41.0834 50.6458 40.0209 51.7083 38.9584 51.7083Z" fill="#333333"/>
<path d="M53.125 51.7083H47.8125C46.75 51.7083 45.6875 50.6458 45.6875 49.5833C45.6875 48.5208 46.75 47.4583 47.8125 47.4583H53.125C54.1875 47.4583 55.25 48.5208 55.25 49.5833C55.25 50.6458 54.1875 51.7083 53.125 51.7083Z" fill="#333333"/>
<path d="M67.2916 51.7083H61.9791C60.9166 51.7083 59.8541 50.6458 59.8541 49.5833C59.8541 48.5208 60.9166 47.4583 61.9791 47.4583H67.2916C68.3541 47.4583 69.4166 48.5208 69.4166 49.5833C69.4166 50.6458 68.3541 51.7083 67.2916 51.7083Z" fill="#333333"/>
</svg>
