<svg width="17" height="17" viewBox="0 0 17 17" fill="none" xmlns="http://www.w3.org/2000/svg">
<g clip-path="url(#clip0_84_7)">
<path d="M3.55273 8.23438C3.38214 8.23438 3.21161 8.16907 3.08181 8.03855L0.58215 5.52454C-0.193242 4.74911 -0.193242 3.48527 0.583512 2.70851L3.08181 0.195835C3.3404 -0.0642121 3.76088 -0.0654406 4.02093 0.193145C4.28101 0.451731 4.28221 0.872216 4.02362 1.13226L1.52396 3.64627C1.26371 3.90652 1.26371 4.32783 1.5226 4.58675L4.02362 7.10208C4.28221 7.36216 4.28101 7.78262 4.02093 8.0412C3.89141 8.17003 3.72207 8.23438 3.55273 8.23438ZM17 8.53321V6.10938C17 4.64472 15.8084 3.45313 14.3438 3.45313H3.61914C2.73899 3.48577 2.73966 4.74891 3.61914 4.78125H14.3438C15.0761 4.78125 15.6719 5.37705 15.6719 6.10938V8.53321C15.6719 8.89997 15.9692 9.19727 16.3359 9.19727C16.7027 9.19727 17 8.89997 17 8.53321ZM13.9182 16.8041L16.4165 14.2915C17.1933 13.5147 17.1933 12.2509 16.4179 11.4755L13.9182 8.96146C13.2745 8.36035 12.3792 9.25142 12.9764 9.89789L15.4774 12.4133C15.7364 12.6722 15.7364 13.0934 15.4761 13.3537L12.9764 15.8677C12.7178 16.1278 12.719 16.5482 12.9791 16.8068C13.1086 16.9357 13.2779 17 13.4473 17C13.6178 17 13.7884 16.9347 13.9182 16.8041ZM14.0449 12.8828C14.0449 12.5161 13.7476 12.2188 13.3809 12.2188H2.65625C1.92392 12.2188 1.32812 11.623 1.32812 10.8906V8.4668C1.29549 7.58665 0.0323398 7.58732 0 8.4668V10.8906C0 12.3553 1.19159 13.5469 2.65625 13.5469H13.3809C13.7476 13.5469 14.0449 13.2496 14.0449 12.8828Z" fill="#2D3035"/>
</g>
<defs>
<clipPath id="clip0_84_7">
<rect width="17" height="17" fill="white"/>
</clipPath>
</defs>
</svg>
