<svg width="45" height="45" viewBox="0 0 45 45" fill="none" xmlns="http://www.w3.org/2000/svg">
<g clip-path="url(#clip0_55_392)">
<path d="M22.5 45C16.49 45 10.8398 42.6596 6.59004 38.41C2.34044 34.1602 0 28.51 0 22.5C0 16.49 2.34044 10.8398 6.59004 6.59004C10.8398 2.34044 16.49 0 22.5 0C28.51 0 34.1602 2.34044 38.41 6.59004C42.6596 10.8398 45 16.49 45 22.5C45 28.51 42.6596 34.1602 38.41 38.41C34.1602 42.6596 28.51 45 22.5 45ZM22.5 3.51562C12.032 3.51562 3.51562 12.032 3.51562 22.5C3.51562 32.968 12.032 41.4844 22.5 41.4844C32.968 41.4844 41.4844 32.968 41.4844 22.5C41.4844 12.032 32.968 3.51562 22.5 3.51562ZM31.2781 31.1364C31.1474 30.9308 28.0111 26.1035 22.4123 26.1035C16.8135 26.1035 13.6773 30.9308 13.5465 31.1364C13.0253 31.9555 13.2667 33.0419 14.0858 33.5631C14.9048 34.0843 15.9913 33.8429 16.5125 33.0238C16.5342 32.9897 18.7218 29.6191 22.4123 29.6191C26.1027 29.6191 28.2904 32.9897 28.3121 33.0238C28.8333 33.8428 29.9197 34.0842 30.7388 33.5631C31.5579 33.0419 31.7994 31.9555 31.2781 31.1364ZM14.7656 14.502C15.9791 14.502 16.9629 15.4857 16.9629 16.6992C16.9629 17.9127 15.9791 18.8965 14.7656 18.8965C13.5521 18.8965 12.5684 17.9127 12.5684 16.6992C12.5684 15.4857 13.5521 14.502 14.7656 14.502ZM27.9492 16.6992C27.9492 17.9127 28.933 18.8965 30.1465 18.8965C31.36 18.8965 32.3438 17.9127 32.3438 16.6992C32.3438 15.4857 31.36 14.502 30.1465 14.502C28.933 14.502 27.9492 15.4857 27.9492 16.6992Z" fill="#2D3035"/>
</g>
<defs>
<clipPath id="clip0_55_392">
<rect width="45" height="45" fill="white"/>
</clipPath>
</defs>
</svg>
