<svg width="26" height="26" viewBox="0 0 26 26" fill="none" xmlns="http://www.w3.org/2000/svg">
<path d="M20.0743 4.30057C18.1964 2.43245 15.6542 1.38532 13.0053 1.3888C10.3564 1.39228 7.81705 2.44609 5.94401 4.31913C4.07097 6.19218 3.01716 8.73157 3.01368 11.3804C3.0102 14.0293 4.05733 16.5715 5.92545 18.4494L12.4254 24.9494C12.5009 25.0249 12.5904 25.0848 12.689 25.1256C12.7875 25.1665 12.8932 25.1875 12.9999 25.1875C13.1066 25.1875 13.2122 25.1665 13.3108 25.1256C13.4094 25.0848 13.4989 25.0249 13.5743 24.9494L20.0743 18.4494C21.9479 16.5718 23.0001 14.0275 23.0001 11.375C23.0001 8.72247 21.9479 6.17825 20.0743 4.30057ZM18.9254 17.3006L12.9999 23.226L7.07432 17.3006C5.90234 16.1286 5.10421 14.6354 4.78086 13.0098C4.45751 11.3843 4.62346 9.69932 5.25773 8.16807C5.89199 6.63681 6.96608 5.32802 8.34417 4.40721C9.72227 3.4864 11.3425 2.99491 12.9999 2.99491C14.6573 2.99491 16.2775 3.4864 17.6556 4.40721C19.0337 5.32802 20.1078 6.63681 20.742 8.16807C21.3763 9.69932 21.5423 11.3843 21.2189 13.0098C20.8955 14.6354 20.0974 16.1286 18.9254 17.3006Z" fill="#2D3035"/>
<path d="M13 6.5C12.0358 6.5 11.0933 6.78591 10.2916 7.32159C9.48991 7.85726 8.86507 8.61863 8.49609 9.50942C8.12711 10.4002 8.03057 11.3804 8.21867 12.3261C8.40678 13.2717 8.87108 14.1404 9.55286 14.8221C10.2346 15.5039 11.1033 15.9682 12.0489 16.1563C12.9946 16.3444 13.9748 16.2479 14.8656 15.8789C15.7564 15.5099 16.5177 14.8851 17.0534 14.0834C17.5891 13.2817 17.875 12.3392 17.875 11.375C17.8736 10.0825 17.3595 8.84335 16.4456 7.92942C15.5316 7.01549 14.2925 6.50142 13 6.5ZM13 14.625C12.3572 14.625 11.7289 14.4344 11.1944 14.0773C10.6599 13.7202 10.2434 13.2126 9.99739 12.6187C9.75141 12.0249 9.68705 11.3714 9.81245 10.741C9.93785 10.1105 10.2474 9.53142 10.7019 9.0769C11.1564 8.62238 11.7355 8.31285 12.366 8.18745C12.9964 8.06205 13.6499 8.12641 14.2437 8.37239C14.8376 8.61838 15.3452 9.03494 15.7023 9.5694C16.0594 10.1039 16.25 10.7322 16.25 11.375C16.2491 12.2367 15.9064 13.0628 15.2971 13.6721C14.6878 14.2814 13.8617 14.6241 13 14.625Z" fill="#2D3035"/>
</svg>
