<svg width="19" height="19" viewBox="0 0 19 19" fill="none" xmlns="http://www.w3.org/2000/svg">
<path d="M14.6695 3.14273C13.2972 1.77757 11.4395 1.01236 9.50374 1.0149C7.56802 1.01744 5.71231 1.78753 4.34355 3.15629C2.97479 4.52506 2.2047 6.38077 2.20215 8.31649C2.19961 10.2522 2.96482 12.1099 4.32998 13.4823L9.07998 18.2323C9.1351 18.2874 9.20053 18.3312 9.27256 18.361C9.34459 18.3909 9.4218 18.4063 9.49976 18.4063C9.57773 18.4063 9.65494 18.3909 9.72696 18.361C9.79899 18.3312 9.86443 18.2874 9.91955 18.2323L14.6695 13.4823C16.0387 12.1101 16.8076 10.2509 16.8076 8.31251C16.8076 6.37412 16.0387 4.51488 14.6695 3.14273ZM13.83 12.6427L9.49976 16.9729L5.16954 12.6427C4.3131 11.7863 3.72985 10.6951 3.49356 9.5072C3.25726 8.31928 3.37853 7.08797 3.84203 5.96898C4.30553 4.84998 5.09045 3.89356 6.09751 3.22066C7.10458 2.54776 8.28857 2.1886 9.49976 2.1886C10.711 2.1886 11.8949 2.54776 12.902 3.22066C13.9091 3.89356 14.694 4.84998 15.1575 5.96898C15.621 7.08797 15.7423 8.31928 15.506 9.5072C15.2697 10.6951 14.6864 11.7863 13.83 12.6427Z" fill="white"/>
<path d="M9.5 4.75C8.79541 4.75 8.10663 4.95894 7.52078 5.35039C6.93493 5.74184 6.47832 6.29823 6.20868 6.94919C5.93904 7.60015 5.86849 8.31645 6.00595 9.00751C6.14341 9.69857 6.48271 10.3333 6.98093 10.8316C7.47916 11.3298 8.11393 11.6691 8.80499 11.8065C9.49605 11.944 10.2123 11.8735 10.8633 11.6038C11.5143 11.3342 12.0707 10.8776 12.4621 10.2917C12.8536 9.70587 13.0625 9.0171 13.0625 8.3125C13.0615 7.36798 12.6858 6.46245 12.0179 5.79458C11.35 5.1267 10.4445 4.75104 9.5 4.75ZM9.5 10.6875C9.03027 10.6875 8.57109 10.5482 8.18052 10.2872C7.78996 10.0263 7.48555 9.65535 7.30579 9.22137C7.12603 8.7874 7.079 8.30987 7.17064 7.84916C7.26228 7.38846 7.48847 6.96527 7.82062 6.63312C8.15277 6.30097 8.57596 6.07477 9.03666 5.98313C9.49737 5.89149 9.9749 5.93853 10.4089 6.11829C10.8428 6.29804 11.2138 6.60245 11.4747 6.99302C11.7357 7.38359 11.875 7.84277 11.875 8.3125C11.8743 8.94219 11.6239 9.54589 11.1787 9.99115C10.7334 10.4364 10.1297 10.6868 9.5 10.6875Z" fill="white"/>
</svg>
