<svg width="14" height="14" viewBox="0 0 14 14" fill="none" xmlns="http://www.w3.org/2000/svg">
<path d="M10.8096 2.31592C9.79834 1.31002 8.42949 0.746178 7.00317 0.748052C5.57685 0.749926 4.20948 1.31736 3.20092 2.32592C2.19236 3.33448 1.62493 4.70185 1.62305 6.12817C1.62118 7.55449 2.18502 8.92334 3.19092 9.93455L6.69092 13.4345C6.73153 13.4752 6.77975 13.5074 6.83283 13.5294C6.8859 13.5514 6.94279 13.5627 7.00024 13.5627C7.05769 13.5627 7.11457 13.5514 7.16765 13.5294C7.22072 13.5074 7.26894 13.4752 7.30955 13.4345L10.8096 9.93455C11.8184 8.92349 12.385 7.55353 12.385 6.12524C12.385 4.69695 11.8184 3.32699 10.8096 2.31592ZM10.1909 9.31592L7.00024 12.5066L3.80955 9.31592C3.17849 8.68486 2.74872 7.88085 2.57461 7.00554C2.4005 6.13023 2.48986 5.22295 2.83138 4.39843C3.17291 3.5739 3.75127 2.86917 4.49332 2.37335C5.23537 1.87753 6.10778 1.61288 7.00024 1.61288C7.89269 1.61288 8.76511 1.87753 9.50716 2.37335C10.2492 2.86917 10.8276 3.5739 11.1691 4.39843C11.5106 5.22295 11.6 6.13023 11.4259 7.00554C11.2518 7.88085 10.822 8.68486 10.1909 9.31592Z" fill="white"/>
<path d="M7 3.5C6.48082 3.5 5.97331 3.65395 5.54163 3.94239C5.10995 4.23083 4.7735 4.6408 4.57482 5.12046C4.37614 5.60011 4.32415 6.12791 4.42544 6.63711C4.52673 7.14631 4.77673 7.61404 5.14385 7.98116C5.51096 8.34827 5.97869 8.59828 6.48789 8.69956C6.99709 8.80085 7.52489 8.74886 8.00454 8.55018C8.4842 8.3515 8.89417 8.01505 9.18261 7.58337C9.47105 7.15169 9.625 6.64418 9.625 6.125C9.62424 5.42904 9.34743 4.76181 8.85531 4.26969C8.36319 3.77757 7.69596 3.50076 7 3.5ZM7 7.875C6.65388 7.875 6.31554 7.77236 6.02775 7.58007C5.73997 7.38778 5.51566 7.11447 5.38321 6.7947C5.25076 6.47493 5.2161 6.12306 5.28363 5.78359C5.35115 5.44413 5.51782 5.1323 5.76256 4.88756C6.00731 4.64282 6.31913 4.47615 6.65859 4.40863C6.99806 4.3411 7.34993 4.37576 7.6697 4.50821C7.98947 4.64066 8.26278 4.86497 8.45507 5.15275C8.64736 5.44054 8.75 5.77888 8.75 6.125C8.74951 6.58898 8.56498 7.03382 8.2369 7.3619C7.90882 7.68998 7.46398 7.87451 7 7.875Z" fill="white"/>
</svg>
