<svg width="16" height="15" viewBox="0 0 16 15" fill="none" xmlns="http://www.w3.org/2000/svg">
<path d="M14.1666 15H1.83337C0.822021 15 0 14.178 0 13.1666V2.16663C0 1.15527 0.822021 0.333374 1.83337 0.333374H14.1666C15.178 0.333374 16 1.15527 16 2.16663V13.1666C16 14.178 15.178 15 14.1666 15ZM1.83337 1.33337C1.37402 1.33337 1 1.70728 1 2.16663V13.1666C1 13.626 1.37402 14 1.83337 14H14.1666C14.626 14 15 13.626 15 13.1666V2.16663C15 1.70728 14.626 1.33337 14.1666 1.33337H1.83337Z" fill="white"/>
</svg>
