<svg width="21" height="21" viewBox="0 0 21 21" fill="none" xmlns="http://www.w3.org/2000/svg">
<path d="M10.4998 19.9052C10.1632 19.9057 9.8297 19.8397 9.51858 19.711C9.20746 19.5824 8.92481 19.3935 8.68684 19.1553L7.73221 18.1998C7.61631 18.0833 7.47846 17.9909 7.32661 17.9279C7.17477 17.865 7.01196 17.8328 6.84759 17.8332H5.72934C5.0496 17.8325 4.39791 17.5622 3.91726 17.0815C3.43662 16.6009 3.16628 15.9492 3.16559 15.2695V14.1521C3.1661 13.9878 3.13404 13.825 3.07126 13.6732C3.00848 13.5213 2.91623 13.3834 2.79984 13.2675L1.84434 12.3128C1.3643 11.8316 1.09473 11.1796 1.09473 10.4998C1.09473 9.8201 1.3643 9.1681 1.84434 8.68684L2.79984 7.73221C2.91639 7.61631 3.0088 7.47845 3.07173 7.32661C3.13466 7.17477 3.16686 7.01196 3.16646 6.84759V5.72934C3.16716 5.0496 3.43749 4.39791 3.91814 3.91726C4.39878 3.43662 5.05048 3.16628 5.73021 3.16559H6.84759C7.01189 3.1661 7.17467 3.13404 7.32651 3.07126C7.47835 3.00848 7.61624 2.91623 7.73221 2.79984L8.68684 1.84434C9.1681 1.3643 9.8201 1.09473 10.4998 1.09473C11.1796 1.09473 11.8316 1.3643 12.3128 1.84434L13.2675 2.79984C13.3834 2.91639 13.5212 3.0088 13.6731 3.07173C13.8249 3.13466 13.9877 3.16686 14.1521 3.16646H15.2703C15.9501 3.16716 16.6018 3.43749 17.0824 3.91814C17.5631 4.39878 17.8334 5.05048 17.8341 5.73021V6.84759C17.8336 7.01189 17.8656 7.17467 17.9284 7.32651C17.9912 7.47835 18.0834 7.61624 18.1998 7.73221L19.1545 8.68684C19.6345 9.1681 19.9041 9.8201 19.9041 10.4998C19.9041 11.1796 19.6345 11.8316 19.1545 12.3128L18.1998 13.2675C18.0833 13.3834 17.9909 13.5212 17.9279 13.6731C17.865 13.8249 17.8328 13.9877 17.8332 14.1521V15.2703C17.8325 15.9501 17.5622 16.6018 17.0815 17.0824C16.6009 17.5631 15.9492 17.8334 15.2695 17.8341H14.1521C13.9877 17.8337 13.8249 17.8659 13.6731 17.9288C13.5212 17.9918 13.3834 18.0842 13.2675 18.2007L12.3128 19.1553C12.0749 19.3935 11.7922 19.5824 11.4811 19.711C11.17 19.8397 10.8365 19.9057 10.4998 19.9052ZM5.72934 4.47809C5.39756 4.47832 5.07943 4.61022 4.84483 4.84483C4.61022 5.07943 4.47832 5.39756 4.47809 5.72934V6.84759C4.4793 7.18479 4.41348 7.51887 4.28445 7.83042C4.15542 8.14196 3.96575 8.42474 3.72646 8.66234L2.77271 9.61609C2.53825 9.85114 2.40659 10.1696 2.40659 10.5016C2.40659 10.8336 2.53825 11.152 2.77271 11.3871L3.72646 12.3408C3.96554 12.5782 4.15509 12.8607 4.28411 13.172C4.41314 13.4832 4.47907 13.8169 4.47809 14.1538V15.2721C4.47832 15.6039 4.61022 15.922 4.84483 16.1566C5.07943 16.3912 5.39756 16.5231 5.72934 16.5233H6.84759C7.18447 16.5226 7.51816 16.5886 7.82936 16.7176C8.14056 16.8466 8.42308 17.036 8.66059 17.275L9.61434 18.2287C9.84939 18.4632 10.1678 18.5948 10.4998 18.5948C10.8318 18.5948 11.1503 18.4632 11.3853 18.2287L12.3391 17.275C12.5766 17.036 12.8591 16.8466 13.1703 16.7176C13.4815 16.5886 13.8152 16.5226 14.1521 16.5233H15.2703C15.6021 16.5231 15.9202 16.3912 16.1549 16.1566C16.3895 15.922 16.5214 15.6039 16.5216 15.2721V14.1521C16.5206 13.8152 16.5865 13.4814 16.7156 13.1702C16.8446 12.859 17.0341 12.5765 17.2732 12.3391L18.227 11.3853C18.4614 11.1503 18.5931 10.8318 18.5931 10.4998C18.5931 10.1678 18.4614 9.84939 18.227 9.61434L17.2732 8.66234C17.0343 8.42483 16.8449 8.14231 16.7158 7.83111C16.5868 7.51991 16.5208 7.18622 16.5216 6.84934V5.72934C16.5214 5.39756 16.3895 5.07943 16.1549 4.84483C15.9202 4.61022 15.6021 4.47832 15.2703 4.47809H14.1521C13.8149 4.4793 13.4808 4.41348 13.1693 4.28445C12.8577 4.15542 12.5749 3.96575 12.3373 3.72646L11.3836 2.77271C11.1485 2.53825 10.8301 2.40659 10.4981 2.40659C10.1661 2.40659 9.84765 2.53825 9.61259 2.77271L8.66234 3.72646C8.42495 3.96554 8.14245 4.15508 7.83122 4.28411C7.52 4.41314 7.18625 4.47907 6.84934 4.47809H5.72934Z" fill="#2D3035"/>
<path d="M9.62523 12.906C9.53904 12.9062 9.45366 12.8893 9.37405 12.8563C9.29444 12.8232 9.22219 12.7747 9.16148 12.7135L7.41148 10.9635C7.29556 10.8391 7.23245 10.6746 7.23545 10.5045C7.23845 10.3345 7.30733 10.1723 7.42756 10.0521C7.5478 9.93184 7.71001 9.86297 7.88003 9.85997C8.05004 9.85697 8.21458 9.92007 8.33898 10.036L9.62523 11.3214L12.6615 8.28599C12.7859 8.17007 12.9504 8.10697 13.1204 8.10997C13.2905 8.11297 13.4527 8.18184 13.5729 8.30208C13.6931 8.42231 13.762 8.58452 13.765 8.75454C13.768 8.92455 13.7049 9.08909 13.589 9.21349L10.089 12.7135C10.0283 12.7747 9.95602 12.8232 9.87641 12.8563C9.79681 12.8893 9.71143 12.9062 9.62523 12.906Z" fill="#2D3035"/>
</svg>
