<svg width="130" height="130" viewBox="0 0 130 130" fill="none" xmlns="http://www.w3.org/2000/svg">
<path d="M47.396 119.817C47.8223 119.927 48.2696 119.927 48.696 119.817H48.7502C49.0746 119.844 49.4007 119.844 49.7252 119.817C50.1799 119.747 50.6195 119.6 51.0252 119.383H51.5127C52.7329 118.96 53.8563 118.297 54.8168 117.433C56.5005 115.897 57.6567 113.869 58.121 111.637C58.6156 109.328 58.305 106.918 57.2408 104.81C56.1766 102.701 54.4228 101.02 52.271 100.046C50.2281 99.0376 47.9194 98.6991 45.6731 99.0783C43.4267 99.4576 41.3571 100.535 39.7585 102.158C38.3447 103.761 37.4651 105.765 37.2418 107.891C37.0186 110.016 37.4628 112.159 38.5127 114.021C39.4253 115.624 40.7075 116.986 42.2525 117.994C43.7976 119.002 45.5609 119.627 47.396 119.817ZM42.5752 108.333L42.9002 107.358V106.871L43.3335 106.167L43.8752 105.517L44.7418 105.029H45.3377H45.8793H46.1502C46.5819 104.977 47.0184 104.977 47.4502 105.029C46.9627 105.029 47.4502 105.029 47.4502 105.029H48.2085C48.2085 105.029 49.2377 105.354 48.8585 105.029L49.9418 105.625L50.4293 105.95L51.2418 106.762L51.5127 107.142C51.592 107.327 51.6824 107.508 51.7835 107.683C51.8084 108.062 51.8084 108.442 51.7835 108.821C51.8103 109.091 51.8103 109.363 51.7835 109.633C51.7835 109.633 51.7835 109.958 51.7835 110.067V110.608V111.15C51.7951 111.312 51.7951 111.475 51.7835 111.637C51.6173 111.998 51.4178 112.343 51.1877 112.667L50.7543 113.154C50.8273 113.347 50.8817 113.547 50.9168 113.75L50.3752 114.075H49.996C49.3216 114.258 48.6331 114.385 47.9377 114.454C47.3502 114.306 46.7715 114.125 46.2043 113.912H45.7168L45.0127 113.425V113.154L44.146 112.287L43.3335 111.692L42.9002 110.879V110.337V109.904C42.9002 109.904 42.9002 109.471 42.9002 109.362V108.604L42.5752 108.333Z" fill="#E53935"/>
<path d="M100.913 100.046C98.8634 99.0249 96.5435 98.6794 94.2858 99.059C92.0281 99.4385 89.9486 100.524 88.3459 102.158C86.9321 103.761 86.0525 105.765 85.8293 107.891C85.606 110.016 86.0502 112.159 87.1001 114.021C88.0127 115.624 89.2949 116.986 90.8399 117.994C92.385 119.002 94.1483 119.627 95.9834 119.817C96.41 119.924 96.8568 119.924 97.2834 119.817C97.6078 119.844 97.9339 119.844 98.2584 119.817C98.7131 119.747 99.1527 119.6 99.5584 119.383H100.046C101.283 118.961 102.424 118.298 103.404 117.433C105.068 115.89 106.205 113.862 106.654 111.637C107.147 109.341 106.847 106.945 105.805 104.84C104.762 102.736 103.038 101.046 100.913 100.046ZM101.508 110.012V110.554V111.096V111.583L100.913 112.612L100.425 113.1C100.295 113.258 100.149 113.403 99.9917 113.533L99.4501 113.858H99.0709C98.4138 114.037 97.7436 114.164 97.0667 114.237C96.4615 114.089 95.8648 113.909 95.2792 113.696H94.8459L94.0876 113.208L93.8167 112.937L92.0834 112.179V111.692L91.6501 110.879V110.337C91.6313 110.194 91.6313 110.048 91.6501 109.904C91.6198 109.725 91.6198 109.542 91.6501 109.362V108.333C91.7151 108.002 91.8056 107.676 91.9209 107.358C92.0313 107.208 92.1223 107.044 92.1917 106.871L92.0834 106.167L92.6792 105.517L93.5459 105.029H94.1417H94.6834H95.0084C95.4219 104.975 95.8407 104.975 96.2542 105.029H97.0126C97.0126 105.029 98.0417 105.354 97.6626 105.029L98.7459 105.625L99.2334 105.95L100.1 106.762L100.371 107.142C100.472 107.317 100.562 107.497 100.642 107.683L100.967 108.821V109.633C101.192 109.711 101.383 109.864 101.508 110.067V110.012Z" fill="#E53935"/>
<path d="M14.4086 30.1166H22.9669C28.3836 51.0791 33.3127 72.0416 38.3502 93.0583C38.5044 93.6309 38.8423 94.1371 39.312 94.4992C39.7817 94.8613 40.3572 95.0591 40.9502 95.0625C62.6169 95.0625 83.7419 95.0625 105.084 94.575C105.802 94.575 106.491 94.2896 106.999 93.7817C107.507 93.2738 107.792 92.5849 107.792 91.8666C107.792 91.1483 107.507 90.4595 106.999 89.9516C106.491 89.4436 105.802 89.1583 105.084 89.1583C84.4461 89.1583 63.7544 89.5375 43.0627 89.6458C42.6836 87.8583 42.1961 86.125 41.7627 84.2291L98.4752 81.25L106.6 80.8166C107.193 80.8133 107.769 80.6154 108.238 80.2534C108.708 79.8913 109.046 79.3851 109.2 78.8125C113.209 65.7583 116.784 52.5416 120.034 39.2708C120.846 35.8583 115.592 34.45 114.617 37.8083C111.638 50.4833 108.171 63.05 104.434 75.725L48.7502 78.4875L40.4086 78.9208C36.2197 61.443 31.9766 43.9833 27.6794 26.5416C27.532 25.9696 27.1942 25.4648 26.7216 25.1103C26.249 24.7559 25.6698 24.573 25.0794 24.5916C21.5586 24.5916 17.9294 24.5916 14.2461 24.5916C10.5627 24.5916 10.8336 30.3875 14.4086 30.1166Z" fill="#E53935"/>
<path d="M89.4293 37.1584C89.8695 36.6372 90.0969 35.969 90.0658 35.2874C90.0347 34.6058 89.7476 33.9611 89.2617 33.4821C88.7759 33.0031 88.1271 32.7251 87.4452 32.7037C86.7632 32.6823 86.0983 32.9191 85.5834 33.3667L71.6084 47.3417L61.5876 37.3209L57.6334 33.3667C55.1418 30.8751 51.2959 34.7209 53.7876 37.1584L67.7626 51.1876L57.7418 61.2084L53.7876 65.0001C51.2959 67.4376 55.1418 71.2834 57.6334 68.7917L71.6084 54.8167C74.9668 58.1751 78.2709 61.5334 81.6292 64.8376L85.5834 68.7917C86.0983 69.2393 86.7632 69.4761 87.4452 69.4548C88.1271 69.4334 88.7759 69.1554 89.2617 68.6764C89.7476 68.1974 90.0347 67.5526 90.0658 66.871C90.0969 66.1895 89.8695 65.5213 89.4293 65.0001L75.4543 51.1876L85.4751 41.1126L89.4293 37.1584Z" fill="#E53935"/>
</svg>
