<svg width="21" height="21" viewBox="0 0 21 21" fill="none" xmlns="http://www.w3.org/2000/svg">
<g clip-path="url(#clip0_1297_635)">
<path d="M20.8564 2.6941C20.8571 2.16084 20.6994 1.63939 20.4034 1.19581C20.1074 0.752226 19.6865 0.406461 19.1938 0.202308C18.7012 -0.00184384 18.1591 -0.055198 17.6361 0.0490038C17.1131 0.153206 16.6328 0.410275 16.2561 0.787652L3.62242 13.4211C3.53911 13.5044 3.47976 13.6086 3.4506 13.7228L2.40146 17.832C2.37258 17.9451 2.3744 18.0639 2.40673 18.1761C2.43907 18.2883 2.50075 18.3898 2.58541 18.4702C2.67007 18.5506 2.77465 18.607 2.88836 18.6335C3.00207 18.66 3.12079 18.6556 3.23228 18.621L7.16662 17.3969C7.26815 17.3653 7.36048 17.3095 7.43568 17.2343L20.0693 4.60075C20.3201 4.35077 20.5187 4.05354 20.6539 3.72627C20.789 3.39899 20.8578 3.04817 20.8564 2.6941ZM6.6221 16.1918L3.96371 17.0188L4.67779 14.2219L15.7336 3.16602L17.6908 5.123L6.6221 16.1918ZM19.1413 3.67269L18.6188 4.19507L16.6617 2.23792L17.1841 1.71555C17.4436 1.45602 17.7956 1.31021 18.1627 1.31021C18.5297 1.31021 18.8817 1.45602 19.1413 1.71555C19.4008 1.97508 19.5466 2.32708 19.5466 2.69412C19.5466 3.06116 19.4008 3.41316 19.1413 3.67269ZM14.3299 21.0002H0.799805C0.625756 21.0002 0.458837 20.931 0.335766 20.8079C0.212695 20.6849 0.143555 20.5179 0.143555 20.3439C0.143555 20.1699 0.212695 20.0029 0.335766 19.8799C0.458837 19.7568 0.625756 19.6877 0.799805 19.6877H14.3299C14.504 19.6877 14.6709 19.7568 14.794 19.8799C14.917 20.0029 14.9862 20.1699 14.9862 20.3439C14.9862 20.5179 14.917 20.6849 14.794 20.8079C14.6709 20.931 14.504 21.0002 14.3299 21.0002Z" fill="#2D3035"/>
</g>
<defs>
<clipPath id="clip0_1297_635">
<rect width="21" height="21" fill="white"/>
</clipPath>
</defs>
</svg>
