<svg width="21" height="21" viewBox="0 0 21 21" fill="none" xmlns="http://www.w3.org/2000/svg">
<path d="M13.3966 7.6084C13.1249 7.6084 12.9048 7.82856 12.9048 8.1002V17.3953C12.9048 17.6667 13.1249 17.8871 13.3966 17.8871C13.6682 17.8871 13.8884 17.6667 13.8884 17.3953V8.1002C13.8884 7.82856 13.6682 7.6084 13.3966 7.6084Z" fill="#2D3035"/>
<path d="M7.59336 7.6084C7.32172 7.6084 7.10156 7.82856 7.10156 8.1002V17.3953C7.10156 17.6667 7.32172 17.8871 7.59336 17.8871C7.86501 17.8871 8.08517 17.6667 8.08517 17.3953V8.1002C8.08517 7.82856 7.86501 7.6084 7.59336 7.6084Z" fill="#2D3035"/>
<path d="M3.36384 6.2519V18.3689C3.36384 19.085 3.62645 19.7576 4.08521 20.2402C4.54186 20.7241 5.17736 20.9988 5.84244 21H15.1475C15.8128 20.9988 16.4483 20.7241 16.9047 20.2402C17.3635 19.7576 17.6261 19.085 17.6261 18.3689V6.2519C18.538 6.00984 19.129 5.12883 19.007 4.19306C18.8848 3.25748 18.0877 2.55763 17.1441 2.55743H14.6261V1.94268C14.629 1.42571 14.4246 0.929301 14.0586 0.5641C13.6926 0.199091 13.1955 -0.0041618 12.6785 6.46187e-05H8.31144C7.79447 -0.0041618 7.29729 0.199091 6.93132 0.5641C6.56535 0.929301 6.36095 1.42571 6.36383 1.94268V2.55743H3.84584C2.9022 2.55763 2.10513 3.25748 1.98295 4.19306C1.86096 5.12883 2.45189 6.00984 3.36384 6.2519ZM15.1475 20.0164H5.84244C5.00158 20.0164 4.34744 19.2941 4.34744 18.3689V6.29513H16.6425V18.3689C16.6425 19.2941 15.9884 20.0164 15.1475 20.0164ZM7.34743 1.94268C7.34417 1.6866 7.44483 1.44012 7.62657 1.25935C7.80811 1.07857 8.05517 0.97925 8.31144 0.983668H12.6785C12.9348 0.97925 13.1818 1.07857 13.3634 1.25935C13.5451 1.43993 13.6458 1.6866 13.6425 1.94268V2.55743H7.34743V1.94268ZM3.84584 3.54104H17.1441C17.633 3.54104 18.0293 3.93736 18.0293 4.42628C18.0293 4.9152 17.633 5.31152 17.1441 5.31152H3.84584C3.35692 5.31152 2.9606 4.9152 2.9606 4.42628C2.9606 3.93736 3.35692 3.54104 3.84584 3.54104Z" fill="#2D3035"/>
<path d="M10.495 7.6084C10.2233 7.6084 10.0032 7.82856 10.0032 8.1002V17.3953C10.0032 17.6667 10.2233 17.8871 10.495 17.8871C10.7666 17.8871 10.9868 17.6667 10.9868 17.3953V8.1002C10.9868 7.82856 10.7666 7.6084 10.495 7.6084Z" fill="#2D3035"/>
</svg>
