<svg width="12" height="12" viewBox="0 0 12 12" fill="none" xmlns="http://www.w3.org/2000/svg">
<g clip-path="url(#clip0_1296_152)">
<path d="M1.09062 11.8353C0.985132 11.9407 0.842055 12 0.692869 12C0.543684 12 0.400609 11.9407 0.29512 11.8352C0.189631 11.7297 0.130369 11.5867 0.130372 11.4375C0.130374 11.2883 0.18964 11.1452 0.295132 11.0397L5.33487 5.99999L0.295131 0.960252C0.189639 0.854763 0.130373 0.711688 0.130371 0.562502C0.130369 0.413316 0.189631 0.27024 0.295119 0.164747C0.400608 0.0592556 0.543683 -9.55481e-06 0.692869 -1.14687e-05C0.842055 -1.33825e-05 0.985131 0.059247 1.09062 0.164736L6.52812 5.60224C6.58036 5.65447 6.62179 5.71648 6.65007 5.78473C6.67833 5.85297 6.69289 5.92612 6.69289 5.99999C6.69289 6.07386 6.67833 6.14701 6.65007 6.21526C6.62179 6.28351 6.58036 6.34552 6.52812 6.39775L1.09062 11.8353ZM5.47151 0.960252L10.5113 5.99999L5.47151 11.0397C5.36602 11.1452 5.30676 11.2883 5.30675 11.4375C5.30675 11.5867 5.36601 11.7297 5.4715 11.8352C5.57699 11.9407 5.72007 12 5.86925 12C6.01844 12 6.16151 11.9407 6.26701 11.8353L11.7045 6.39775C11.7567 6.34552 11.7982 6.28351 11.8264 6.21526C11.8547 6.14701 11.8693 6.07386 11.8693 5.99999C11.8693 5.92612 11.8547 5.85297 11.8264 5.78473C11.7982 5.71648 11.7567 5.65447 11.7045 5.60224L6.26701 0.164736C6.16151 0.0592468 6.01844 -1.36088e-05 5.86925 -1.16949e-05C5.72007 -9.78108e-06 5.57699 0.0592554 5.4715 0.164747C5.36601 0.27024 5.30675 0.413316 5.30675 0.562502C5.30676 0.711688 5.36602 0.854763 5.47151 0.960252Z" fill="#2D3035"/>
</g>
<defs>
<clipPath id="clip0_1296_152">
<rect width="12" height="12" fill="white" transform="translate(5.24537e-07 12) rotate(-90)"/>
</clipPath>
</defs>
</svg>
