<svg width="110" height="28" viewBox="0 0 110 28" fill="none" xmlns="http://www.w3.org/2000/svg">
<g clip-path="url(#clip0_18_50)">
<path d="M6.10352e-05 23.7921L12.2192 8.75605C12.8972 7.87933 13.6414 7.05528 14.4454 6.29108V6.18871C13.6337 6.26982 12.8179 6.304 12.0021 6.29108H7.23526C6.50895 6.29108 6.09154 6.71159 6.09154 7.44472V8.96631H0.105806V4.19405C0.105806 1.72908 1.14378 0.630766 3.63992 0.630766H23.097V4.24661L10.8807 19.2965C10.1847 20.1573 9.44154 20.9793 8.65447 21.7587V21.8555C9.48296 21.7294 10.3211 21.6767 11.159 21.6979H16.9499C17.6762 21.6979 18.0936 21.3327 18.0936 20.5442V19.089H24.071V23.7921C24.071 26.3097 23.033 27.3582 20.587 27.3582H6.10352e-05V23.7921Z" fill="#B3C30E"/>
<path d="M39.2371 22.3369C43.5531 22.3369 47.1401 18.9811 47.1401 13.9986C47.1401 9.07144 43.5531 5.66308 39.2371 5.66308C34.9739 5.66308 31.3869 9.07144 31.3869 13.9986C31.3869 18.9784 34.9739 22.3369 39.2371 22.3369ZM39.2371 0C47.346 0 53.7937 5.8097 53.7937 13.9986C53.7937 22.2318 47.346 28 39.2371 28C31.167 28 24.7333 22.2318 24.7333 13.9986C24.7416 5.8097 31.1865 0 39.2371 0Z" fill="#2E3136"/>
<path d="M69.9172 0C73.3483 0 79.5344 1.41369 79.5344 6.03102V9.17656H73.7101V7.70754C73.7101 6.23851 71.5284 5.61051 69.9172 5.61051C65.3423 5.61051 62.0558 9.12953 62.0558 13.9461C62.0558 19.4016 66.0575 22.1792 70.3207 22.1792C74.8566 22.1792 78.1959 18.5606 78.1959 18.5606L80.9508 23.1752C79.5283 24.7083 77.7996 25.9293 75.8752 26.7601C73.9508 27.5909 71.8732 28.0132 69.7752 28C61.0401 28 55.4245 21.7587 55.4245 13.9986C55.4245 6.44877 60.8314 0 69.9311 0" fill="#2E3136"/>
<path d="M95.449 22.3369C99.7651 22.3369 103.352 18.9811 103.352 13.9986C103.352 9.07144 99.7651 5.66308 95.449 5.66308C91.1886 5.66308 87.5988 9.07144 87.5988 13.9986C87.5988 18.9784 91.1886 22.3369 95.449 22.3369ZM95.449 0C103.561 0 110.008 5.8097 110.008 13.9986C110.008 22.2318 103.561 28 95.449 28C87.379 28 80.9452 22.2318 80.9452 13.9986C80.9369 5.8097 87.379 0 95.449 0Z" fill="#2E3136"/>
</g>
<defs>
<clipPath id="clip0_18_50">
<rect width="110" height="28" fill="white"/>
</clipPath>
</defs>
</svg>
