<svg width="20" height="11" viewBox="0 0 20 11" fill="none" xmlns="http://www.w3.org/2000/svg">
<path d="M14.4167 0.25002C14.3396 0.172767 14.248 0.111477 14.1472 0.0696593C14.0464 0.0278414 13.9383 0.00631625 13.8292 0.00631625C13.72 0.00631625 13.612 0.0278414 13.5112 0.0696593C13.4103 0.111477 13.3188 0.172767 13.2417 0.25002L8.54167 4.95002L9.71667 6.12502L14.4167 1.41669C14.7333 1.10002 14.7333 0.566686 14.4167 0.25002ZM17.95 0.241686L9.71667 8.47502L6.81667 5.58335C6.66086 5.42754 6.44953 5.34 6.22917 5.34C6.00882 5.34 5.79749 5.42754 5.64167 5.58335C5.48586 5.73917 5.39832 5.9505 5.39832 6.17085C5.39832 6.39121 5.48586 6.60254 5.64167 6.75835L9.12501 10.2417C9.45001 10.5667 9.97501 10.5667 10.3 10.2417L19.125 1.42502C19.2023 1.34792 19.2635 1.25635 19.3054 1.15554C19.3472 1.05473 19.3687 0.94666 19.3687 0.83752C19.3687 0.728379 19.3472 0.620311 19.3054 0.519499C19.2635 0.418688 19.2023 0.327114 19.125 0.25002H19.1167C19.0415 0.171355 18.9513 0.108593 18.8514 0.0654595C18.7515 0.022326 18.6439 -0.000300668 18.5351 -0.0010779C18.4263 -0.00185514 18.3184 0.0192327 18.2179 0.0609348C18.1174 0.102637 18.0263 0.164103 17.95 0.241686ZM0.93334 6.76669L4.41667 10.25C4.74167 10.575 5.26667 10.575 5.59167 10.25L6.17501 9.66669L2.10834 5.58335C2.03125 5.5061 1.93967 5.44481 1.83886 5.40299C1.73805 5.36117 1.62998 5.33965 1.52084 5.33965C1.4117 5.33965 1.30363 5.36117 1.20282 5.40299C1.10201 5.44481 1.01044 5.5061 0.93334 5.58335C0.60834 5.90835 0.60834 6.44169 0.93334 6.76669Z" fill="#EC6325"/>
</svg>
