<svg width="22" height="22" viewBox="0 0 22 22" fill="none" xmlns="http://www.w3.org/2000/svg">
<path d="M0.495483 1.244C0.495483 1.04509 0.574501 0.854321 0.715153 0.713669C0.855806 0.573017 1.04657 0.493999 1.24548 0.493999H1.90248C2.99298 0.493999 3.61998 1.2035 3.98298 1.9115C4.23048 2.396 4.40898 2.987 4.55748 3.5H20C20.2318 3.50007 20.4604 3.55385 20.6679 3.65711C20.8754 3.76038 21.0561 3.91033 21.1959 4.09519C21.3357 4.28005 21.4308 4.4948 21.4737 4.72257C21.5165 4.95035 21.506 5.18496 21.443 5.408L19.199 13.3205C19.0205 13.9483 18.6421 14.5007 18.1213 14.894C17.6005 15.2873 16.9656 15.5001 16.313 15.5H8.69448C8.0364 15.5002 7.39649 15.2841 6.87336 14.8848C6.35023 14.4855 5.97289 13.9253 5.79948 13.2905L4.83648 9.758L4.82148 9.71L3.27648 4.463L3.12648 3.9575C2.97648 3.4385 2.84448 2.9795 2.64648 2.594C2.40798 2.129 2.18898 1.994 1.90248 1.994H1.24548C1.04657 1.994 0.855806 1.91498 0.715153 1.77433C0.574501 1.63368 0.495483 1.44291 0.495483 1.244ZM8.74998 21.5C9.34672 21.5 9.91902 21.2629 10.341 20.841C10.7629 20.419 11 19.8467 11 19.25C11 18.6533 10.7629 18.081 10.341 17.659C9.91902 17.2371 9.34672 17 8.74998 17C8.15325 17 7.58095 17.2371 7.15899 17.659C6.73704 18.081 6.49998 18.6533 6.49998 19.25C6.49998 19.8467 6.73704 20.419 7.15899 20.841C7.58095 21.2629 8.15325 21.5 8.74998 21.5ZM16.25 21.5C16.8467 21.5 17.419 21.2629 17.841 20.841C18.2629 20.419 18.5 19.8467 18.5 19.25C18.5 18.6533 18.2629 18.081 17.841 17.659C17.419 17.2371 16.8467 17 16.25 17C15.6532 17 15.081 17.2371 14.659 17.659C14.237 18.081 14 18.6533 14 19.25C14 19.8467 14.237 20.419 14.659 20.841C15.081 21.2629 15.6532 21.5 16.25 21.5Z" fill="#F9FCFF"/>
</svg>
