<svg width="170" height="21" viewBox="0 0 170 21" fill="none" xmlns="http://www.w3.org/2000/svg">
<path d="M166.706 21C165.064 21 163.784 20.5842 162.868 19.7525C161.951 18.9035 161.493 17.6473 161.493 15.9839V3.71658H165.539V15.9319C165.539 16.521 165.695 16.9802 166.006 17.3094C166.317 17.6213 166.741 17.7772 167.277 17.7772C167.917 17.7772 168.461 17.604 168.911 17.2574L170 20.1163C169.585 20.4109 169.084 20.6361 168.496 20.7921C167.925 20.9307 167.329 21 166.706 21ZM159.341 10.2401V7.12129H169.014V10.2401H159.341Z" fill="#F9FCFF"/>
<path d="M151.549 6.60148C152.656 6.60148 153.642 6.82673 154.506 7.27722C155.388 7.71039 156.079 8.38613 156.581 9.30445C157.082 10.2054 157.333 11.3663 157.333 12.7871V20.7921H153.287V13.4109C153.287 12.2846 153.036 11.453 152.535 10.9158C152.051 10.3787 151.359 10.1101 150.46 10.1101C149.82 10.1101 149.241 10.2488 148.722 10.526C148.221 10.7859 147.823 11.1931 147.529 11.7475C147.253 12.302 147.114 13.0124 147.114 13.8787V20.7921H143.069V6.8094H146.933V10.6819L146.207 9.51237C146.708 8.57673 147.426 7.85767 148.359 7.35519C149.293 6.85272 150.356 6.60148 151.549 6.60148Z" fill="#F9FCFF"/>
<path d="M133.632 21C132.041 21 130.64 20.6881 129.43 20.0644C128.237 19.4406 127.312 18.5916 126.655 17.5173C125.998 16.4257 125.67 15.1869 125.67 13.8007C125.67 12.3973 125.989 11.1584 126.629 10.0842C127.286 8.99257 128.177 8.14356 129.3 7.53712C130.424 6.91336 131.695 6.60148 133.113 6.60148C134.479 6.60148 135.707 6.89603 136.796 7.48514C137.902 8.05692 138.776 8.88861 139.415 9.98019C140.055 11.0544 140.375 12.3453 140.375 13.8527C140.375 14.0087 140.366 14.1906 140.349 14.3985C140.332 14.5891 140.314 14.771 140.297 14.9443H128.963V12.5792H138.17L136.614 13.2809C136.614 12.5532 136.467 11.9208 136.173 11.3837C135.879 10.8465 135.473 10.4307 134.954 10.1361C134.436 9.82425 133.831 9.66831 133.139 9.66831C132.447 9.66831 131.834 9.82425 131.298 10.1361C130.779 10.4307 130.372 10.8552 130.079 11.4096C129.785 11.9468 129.638 12.5879 129.638 13.3329V13.9567C129.638 14.7191 129.802 15.3948 130.13 15.9839C130.476 16.5557 130.952 16.9975 131.557 17.3094C132.179 17.604 132.906 17.7512 133.735 17.7512C134.479 17.7512 135.127 17.6386 135.681 17.4134C136.251 17.1881 136.77 16.8502 137.237 16.3997L139.389 18.7389C138.75 19.4666 137.946 20.0297 136.977 20.4282C136.009 20.8094 134.894 21 133.632 21Z" fill="#F9FCFF"/>
<path d="M115.373 20.7921L109.512 6.8094H113.687L118.563 18.8428H116.488L121.546 6.8094H125.436L119.549 20.7921H115.373Z" fill="#F9FCFF"/>
<path d="M98.4627 9.92822H107.203V13.203H98.4627V9.92822ZM98.7739 17.4134H108.655V20.7921H94.5983V2.59901H108.318V5.97772H98.7739V17.4134Z" fill="#EC6325"/>
<path d="M83.79 15.1002V11.8515H91.1297V15.1002H83.79Z" fill="#F9FCFF"/>
<path d="M71.5649 9.92822H80.3051V13.203H71.5649V9.92822ZM71.8761 17.4134H81.7575V20.7921H67.7005V2.59901H81.4203V5.97772H71.8761V17.4134Z" fill="#F9FCFF"/>
<path d="M48.1041 21C46.79 21 45.6056 20.7054 44.5509 20.1163C43.4962 19.5099 42.6576 18.6696 42.0352 17.5953C41.43 16.521 41.1275 15.2562 41.1275 13.8007C41.1275 12.328 41.43 11.0545 42.0352 9.9802C42.6576 8.90594 43.4962 8.07426 44.5509 7.48515C45.6056 6.89604 46.79 6.60148 48.1041 6.60148C49.2798 6.60148 50.3086 6.86139 51.1904 7.38119C52.0722 7.90099 52.7552 8.68935 53.2393 9.74629C53.7234 10.8032 53.9655 12.1547 53.9655 13.8007C53.9655 15.4295 53.7321 16.7809 53.2652 17.8552C52.7984 18.9121 52.1241 19.7005 51.2423 20.2203C50.3777 20.7401 49.3317 21 48.1041 21ZM48.8043 17.6733C49.4614 17.6733 50.0579 17.5173 50.5939 17.2054C51.1299 16.8936 51.5535 16.4517 51.8647 15.88C52.1932 15.2908 52.3575 14.5978 52.3575 13.8007C52.3575 12.9864 52.1932 12.2933 51.8647 11.7215C51.5535 11.1497 51.1299 10.7079 50.5939 10.396C50.0579 10.0842 49.4614 9.92822 48.8043 9.92822C48.13 9.92822 47.5249 10.0842 46.9889 10.396C46.4529 10.7079 46.0206 11.1497 45.6921 11.7215C45.3809 12.2933 45.2252 12.9864 45.2252 13.8007C45.2252 14.5978 45.3809 15.2908 45.6921 15.88C46.0206 16.4517 46.4529 16.8936 46.9889 17.2054C47.5249 17.5173 48.13 17.6733 48.8043 17.6733ZM52.4612 20.7921V17.9332L52.539 13.7748L52.2797 9.64232V1.50742H56.3256V20.7921H52.4612Z" fill="#F9FCFF"/>
<path d="M32.5607 6.60148C33.6672 6.60148 34.6528 6.82673 35.5173 7.27722C36.3991 7.71039 37.0907 8.38613 37.5921 9.30445C38.0936 10.2054 38.3443 11.3663 38.3443 12.7871V20.7921H34.2983V13.4109C34.2983 12.2846 34.0476 11.453 33.5462 10.9158C33.0621 10.3787 32.3705 10.1101 31.4714 10.1101C30.8316 10.1101 30.2524 10.2488 29.7337 10.526C29.2323 10.7859 28.8346 11.1931 28.5407 11.7475C28.264 12.302 28.1257 13.0124 28.1257 13.8787V20.7921H24.0798V6.8094H27.9442V10.6819L27.218 9.51237C27.7194 8.57673 28.4369 7.85767 29.3706 7.35519C30.3043 6.85272 31.3676 6.60148 32.5607 6.60148Z" fill="#F9FCFF"/>
<path d="M16.2789 20.7922V6.80953H20.3248V20.7922H16.2789ZM18.3019 4.86028C17.5584 4.86028 16.9532 4.64369 16.4864 4.21052C16.0196 3.77735 15.7861 3.24023 15.7861 2.59914C15.7861 1.95805 16.0196 1.42092 16.4864 0.987751C16.9532 0.554582 17.5584 0.337997 18.3019 0.337997C19.0454 0.337997 19.6505 0.545919 20.1174 0.961761C20.5842 1.36028 20.8176 1.88008 20.8176 2.52117C20.8176 3.19691 20.5842 3.76003 20.1174 4.21052C19.6678 4.64369 19.0626 4.86028 18.3019 4.86028Z" fill="#F9FCFF"/>
<path d="M3.89031 10.7859H12.6046V14.1646H3.89031V10.7859ZM4.20153 20.7921H0V2.59901H13.7198V5.97772H4.20153V20.7921Z" fill="#F9FCFF"/>
</svg>
