<svg width="50" height="50" viewBox="0 0 50 50" fill="none" xmlns="http://www.w3.org/2000/svg">
<g clip-path="url(#clip0_12_364)">
<path d="M23.2519 43.8378H22.6191L22.557 38.7904C22.5387 37.1013 21.9378 35.6534 20.7717 34.4873L18.5698 32.2828C17.7803 31.4961 16.9125 30.9951 15.8381 30.706L14.9242 30.4615L9.67157 25.2115C9.14559 24.6839 8.44305 24.3932 7.69315 24.3932C7.13915 24.3932 6.61093 24.5519 6.16102 24.8473L6.40419 18.5233C6.45497 17.2293 5.45116 16.4507 4.43339 16.3506C3.40038 16.2493 2.24891 16.8244 2.04364 18.12L0.482312 27.9117C0.139343 30.0744 0.764148 32.0791 2.24159 33.5564L10.2029 41.5178C10.7501 42.0649 11.0009 42.7343 10.9486 43.5064L10.9257 43.8378H10.2331C9.90897 43.8378 9.64618 44.1005 9.64618 44.4247V49.0227C9.64618 49.3468 9.90888 49.6096 10.2331 49.6096H23.2519C23.5761 49.6096 23.8389 49.3469 23.8389 49.0227V44.4247C23.8389 44.1006 23.5762 43.8378 23.2519 43.8378ZM11.0328 40.6879L3.07147 32.7266C1.8494 31.5044 1.35497 29.9031 1.64149 28.0961L3.20282 18.3043C3.30595 17.6534 3.86805 17.4741 4.31835 17.5187C4.75516 17.5616 5.25634 17.8385 5.23134 18.4778L4.90194 27.0427C4.90194 27.0444 4.90204 27.0461 4.90194 27.0479C4.86268 27.8395 5.15858 28.6118 5.71561 29.1688L10.2859 33.7391C10.4005 33.8537 10.5507 33.911 10.7009 33.911C10.8511 33.911 11.0013 33.8537 11.1158 33.7391C11.345 33.5099 11.345 33.1384 11.1158 32.9092L6.5455 28.3389C6.22069 28.014 6.04891 27.5614 6.0743 27.0973V27.097C6.0743 27.097 6.0743 27.0964 6.0743 27.0961C6.0952 26.6985 6.26259 26.3237 6.54618 26.0401C6.85018 25.7351 7.25761 25.567 7.69305 25.567C8.1285 25.567 8.53602 25.7351 8.84091 26.0409L14.2057 31.4029C14.2786 31.4758 14.3694 31.5282 14.4689 31.5549L15.5338 31.8396C16.4133 32.0764 17.0941 32.4695 17.7403 33.1134L19.9414 35.3171C20.8964 36.2722 21.3681 37.4126 21.3834 38.8042L21.4453 43.8379H12.1021L12.1195 43.5869C12.1947 42.4766 11.8188 41.4741 11.0327 40.688L11.0328 40.6879ZM22.665 48.4357H10.8199V45.0116H22.665V48.4357ZM47.7586 33.5564C49.2359 32.0791 49.8606 30.0744 49.5177 27.9112L47.9565 18.1206C47.7511 16.8244 46.5983 16.2494 45.5667 16.3506C44.5489 16.4507 43.5452 17.2293 43.5959 18.5229L43.8391 24.848C43.3881 24.5521 42.8594 24.3932 42.3055 24.3932C41.5564 24.3932 40.8537 24.6836 40.3265 25.2108L35.0757 30.4616L34.1611 30.7063C33.0836 30.9963 32.2155 31.4976 31.4294 32.2836L29.2254 34.4876C28.0624 35.6535 27.4617 37.1009 27.4402 38.7899L27.3806 43.8378H26.7453C26.4212 43.8378 26.1584 44.1005 26.1584 44.4247V49.0227C26.1584 49.3468 26.4211 49.6096 26.7453 49.6096H39.7669C40.091 49.6096 40.3538 49.3469 40.3538 49.0227V44.4247C40.3538 44.1006 40.0911 43.8378 39.7669 43.8378H39.0744L39.0515 43.5074C38.9991 42.7343 39.25 42.0649 39.7972 41.5178L47.7585 33.5564H47.7586ZM39.1801 48.4357H27.3323V45.0116H39.1801V48.4357ZM38.9673 40.6878C38.181 41.4739 37.8053 42.4763 37.8805 43.5877L37.8978 43.8378H28.5544L28.6139 38.8044C28.6316 37.4127 29.1035 36.2718 30.0559 35.317L32.2594 33.1135C32.9028 32.47 33.5835 32.0772 34.4653 31.8398L35.531 31.5548C35.6307 31.5281 35.7215 31.4757 35.7943 31.4027L41.1564 26.0407C41.4619 25.7352 41.87 25.5669 42.3055 25.5669C42.7409 25.5669 43.149 25.7352 43.4546 26.0407C43.735 26.3212 43.9023 26.6968 43.9258 27.0982C43.951 27.5621 43.7793 28.0142 43.4546 28.3389C43.1299 28.6636 38.8843 32.9093 38.8843 32.9093C38.6551 33.1385 38.6551 33.51 38.8843 33.7392C38.9988 33.8538 39.149 33.9111 39.2992 33.9111C39.4494 33.9111 39.5996 33.8538 39.7141 33.7392L44.2836 29.1698L44.2845 29.1689C44.8416 28.6119 45.1374 27.8396 45.0981 27.048C45.0981 27.0462 45.0982 27.0446 45.0981 27.0429L44.7687 18.4775C44.7436 17.8387 45.2449 17.5618 45.6817 17.5188C46.1316 17.4745 46.6941 17.6537 46.7974 18.3051L48.3585 28.0958C48.6452 29.9033 48.1507 31.5046 46.9287 32.7268L38.9674 40.688L38.9673 40.6878ZM25.8561 23.3926L27.6595 30.1184C27.7198 30.3435 27.9076 30.5114 28.1379 30.5465C28.1676 30.5511 28.1971 30.5532 28.2264 30.5532C28.4254 30.5532 28.6136 30.4518 28.7222 30.2802L30.9297 26.7926L34.5835 28.7089C34.7898 28.8171 35.0408 28.7931 35.2226 28.6474C35.4046 28.5018 35.4832 28.2624 35.4229 28.0372L33.0979 19.3601C33.1895 19.3021 33.2854 19.2475 33.3897 19.1987C34.0688 18.8832 34.6271 18.3719 35.0042 17.7201C35.3804 17.0697 35.5446 16.3302 35.4793 15.5806C35.4279 15.0016 35.5595 14.5091 35.8922 14.0325C36.3245 13.4187 36.553 12.6958 36.553 11.9424C36.553 11.189 36.3245 10.4662 35.8936 9.8543C35.5596 9.37578 35.4279 8.8833 35.4794 8.30342C35.5447 7.55469 35.3804 6.81514 35.0042 6.16465C34.6272 5.51299 34.0689 5.00176 33.3913 4.68691C32.8611 4.43877 32.501 4.07881 32.2569 3.55264C31.9387 2.87178 31.4266 2.31309 30.7742 1.93564C30.1202 1.56055 29.3811 1.3959 28.6363 1.46162C28.0567 1.5126 27.5654 1.38193 27.09 1.04775C26.4761 0.617969 25.7528 0.390625 24.9984 0.390625C24.244 0.390625 23.52 0.618066 22.9088 1.04824C22.4343 1.38184 21.9433 1.51348 21.3622 1.46143C20.6179 1.39629 19.8794 1.56055 19.2236 1.93662C18.5683 2.31562 18.0559 2.8752 17.7422 3.5541C17.4988 4.07861 17.1385 4.43857 16.6098 4.68613C15.9307 5.00166 15.3724 5.51299 14.9955 6.16465C14.6192 6.81514 14.455 7.55469 14.5203 8.3043C14.5718 8.88311 14.4401 9.37559 14.1073 9.85234C13.6752 10.4662 13.4467 11.189 13.4467 11.9423C13.4467 12.6956 13.6752 13.4185 14.1059 14.0305C14.44 14.5091 14.5718 15.0016 14.5202 15.5813C14.4549 16.33 14.6192 17.0695 14.9954 17.72C15.3724 18.3717 15.9306 18.8829 16.6084 19.198C16.7133 19.2471 16.8098 19.3019 16.9016 19.3602L14.5766 28.0371C14.5164 28.2623 14.595 28.5017 14.7769 28.6473C14.9589 28.793 15.2099 28.817 15.4161 28.7088L19.0699 26.7925L21.2774 30.2801C21.386 30.4517 21.5742 30.5531 21.7732 30.5531C21.8025 30.5531 21.8321 30.551 21.8617 30.5464C22.092 30.5114 22.2798 30.3434 22.3401 30.1183L24.1432 23.3934C24.4204 23.4597 24.7067 23.4942 24.9983 23.4942C25.2899 23.4942 25.5775 23.4593 25.8558 23.3925L25.8561 23.3926ZM30.9958 25.5019C30.7252 25.3601 30.3909 25.4495 30.2273 25.7077L28.4465 28.5213L26.9472 22.9294C26.9954 22.8989 27.0441 22.8694 27.0912 22.8365C27.5658 22.5029 28.0576 22.3721 28.6376 22.4234C29.3816 22.4883 30.1204 22.3243 30.7763 21.9482C31.3791 21.5995 31.8607 21.0927 32.1823 20.4774L33.9427 27.0475L30.9958 25.502V25.5019ZM16.0116 17.1325C15.7567 16.6918 15.6453 16.1906 15.6895 15.6845C15.7646 14.8392 15.5557 14.0566 15.0672 13.3569C14.775 12.9418 14.6206 12.4527 14.6206 11.9425C14.6206 11.4322 14.775 10.9433 15.0685 10.5262C15.5557 9.82832 15.7646 9.0459 15.6895 8.20147C15.6453 7.69434 15.7567 7.19316 16.0116 6.75244C16.2672 6.31064 16.6451 5.96426 17.106 5.7499C17.8894 5.3832 18.4459 4.82646 18.8073 4.04736C19.0194 3.58848 19.3666 3.20996 19.8096 2.95381C20.2547 2.69844 20.7563 2.58672 21.2593 2.63057C22.1065 2.70586 22.889 2.49687 23.5838 2.00859C23.584 2.00859 23.5841 2.0084 23.5842 2.0083C23.9968 1.71777 24.4858 1.56436 24.9986 1.56436C25.5114 1.56436 26.0015 1.71816 26.4162 2.0085C27.111 2.49688 27.8934 2.70635 28.7396 2.63066C29.244 2.58701 29.7454 2.69854 30.1887 2.95273C30.6302 3.20811 30.9777 3.5874 31.1931 4.04805C31.5541 4.82656 32.1105 5.3832 32.8954 5.75068C33.3548 5.96416 33.7327 6.31055 33.9884 6.75244C34.2432 7.19307 34.3546 7.69424 34.3103 8.20059C34.2353 9.046 34.4443 9.82842 34.9328 10.5281C35.225 10.9432 35.3794 11.4322 35.3794 11.9424C35.3794 12.4525 35.225 12.9417 34.9313 13.3588C34.4443 14.0565 34.2353 14.8389 34.3103 15.6835C34.3546 16.1907 34.2432 16.6919 33.9885 17.1324C33.7327 17.5743 33.3548 17.9208 32.8939 18.135C32.5744 18.2845 32.2946 18.4675 32.0485 18.6823C32.0372 18.692 32.0262 18.7019 32.0157 18.7122C31.6741 19.0187 31.4005 19.3896 31.1937 19.8353C30.9777 20.2975 30.6302 20.6768 30.1906 20.9312C29.7453 21.1864 29.2433 21.298 28.7407 21.2544C27.893 21.1783 27.111 21.3882 26.4172 21.8758C26.0015 22.1667 25.511 22.3206 24.9987 22.3206C24.4864 22.3206 23.9968 22.1672 23.5839 21.8764C22.9812 21.4528 22.313 21.2393 21.5938 21.2393C21.4839 21.2393 21.3726 21.2443 21.2604 21.2543C20.7569 21.2976 20.2549 21.1865 19.8115 20.9322C19.3667 20.675 19.0196 20.2965 18.8071 19.8369C18.6004 19.3912 18.3272 19.0205 17.9862 18.7142C17.9737 18.7017 17.9606 18.6897 17.9469 18.6783C17.7016 18.465 17.4228 18.2833 17.1047 18.1345C16.6452 17.9209 16.2673 17.5745 16.0117 17.1326L16.0116 17.1325ZM21.5534 28.5213L19.7725 25.7077C19.609 25.4494 19.2748 25.36 19.0041 25.5019L16.0572 27.0474L17.8175 20.4781C18.1352 21.0903 18.6174 21.5974 19.2256 21.9491C19.8797 22.3242 20.6192 22.4888 21.3635 22.4231C21.9433 22.372 22.4344 22.5028 22.9086 22.8361C22.9556 22.8692 23.0044 22.8988 23.0527 22.9295L21.5535 28.5211L21.5534 28.5213ZM24.9985 19.0734C28.9306 19.0734 32.1295 15.8744 32.1295 11.9425C32.1295 8.01055 28.9306 4.81152 24.9985 4.81152C21.0665 4.81152 17.8676 8.01045 17.8676 11.9425C17.8676 15.8745 21.0666 19.0734 24.9985 19.0734ZM24.9985 5.98535C28.2833 5.98535 30.9557 8.65762 30.9557 11.9425C30.9557 15.2273 28.2833 17.8997 24.9985 17.8997C21.7138 17.8997 19.0413 15.2273 19.0413 11.9425C19.0413 8.65762 21.7137 5.98535 24.9985 5.98535ZM22.3549 13.4927C22.3549 13.1686 22.6176 12.9058 22.9418 12.9058C23.266 12.9058 23.5287 13.1685 23.5287 13.4927C23.5287 14.1506 24.1881 14.6858 24.9986 14.6858C25.8092 14.6858 26.4713 14.1507 26.4713 13.4927C26.4713 12.7105 26.051 12.544 24.9387 12.2984C24.0156 12.0947 22.6207 11.7869 22.6207 10.1625C22.6207 9.16611 23.3836 8.32676 24.4118 8.09131V7.51064C24.4118 7.18652 24.6745 6.92373 24.9987 6.92373C25.3229 6.92373 25.5856 7.18643 25.5856 7.51064V8.09111C26.6154 8.32637 27.3794 9.16592 27.3794 10.1625C27.3794 10.4866 27.1167 10.7494 26.7925 10.7494C26.4683 10.7494 26.2056 10.4867 26.2056 10.1625C26.2056 9.63135 25.6641 9.19922 24.9987 9.19922C24.3333 9.19922 23.7945 9.63135 23.7945 10.1625C23.7945 10.7591 24.0923 10.9097 25.1917 11.1523C26.1687 11.368 27.6452 11.6938 27.6452 13.4927C27.6452 14.6175 26.7634 15.5615 25.5856 15.801V16.3744C25.5856 16.6985 25.3229 16.9613 24.9987 16.9613C24.6745 16.9613 24.4118 16.6986 24.4118 16.3744V15.8008C23.2355 15.5612 22.3549 14.6173 22.3549 13.4927Z" fill="#EC6325"/>
</g>
<defs>
<clipPath id="clip0_12_364">
<rect width="50" height="50" fill="white"/>
</clipPath>
</defs>
</svg>
