<svg width="20" height="14" viewBox="0 0 20 14" fill="none" xmlns="http://www.w3.org/2000/svg">
<path d="M10.0007 4.5C10.6637 4.5 11.2996 4.76339 11.7684 5.23223C12.2373 5.70107 12.5007 6.33696 12.5007 7C12.5007 7.66304 12.2373 8.29893 11.7684 8.76777C11.2996 9.23661 10.6637 9.5 10.0007 9.5C9.33761 9.5 8.70173 9.23661 8.23288 8.76777C7.76404 8.29893 7.50065 7.66304 7.50065 7C7.50065 6.33696 7.76404 5.70107 8.23288 5.23223C8.70173 4.76339 9.33761 4.5 10.0007 4.5ZM10.0007 0.75C14.1673 0.75 17.7257 3.34167 19.1673 7C17.7257 10.6583 14.1673 13.25 10.0007 13.25C5.83398 13.25 2.27565 10.6583 0.833984 7C2.27565 3.34167 5.83398 0.75 10.0007 0.75ZM2.65065 7C3.3242 8.37526 4.37007 9.53396 5.66938 10.3444C6.96869 11.1548 8.46931 11.5844 10.0007 11.5844C11.532 11.5844 13.0326 11.1548 14.3319 10.3444C15.6312 9.53396 16.6771 8.37526 17.3507 7C16.6771 5.62474 15.6312 4.46604 14.3319 3.65562C13.0326 2.8452 11.532 2.41557 10.0007 2.41557C8.46931 2.41557 6.96869 2.8452 5.66938 3.65562C4.37007 4.46604 3.3242 5.62474 2.65065 7Z" fill="#0D263C"/>
</svg>
