<svg width="20" height="16" viewBox="0 0 20 16" fill="none" xmlns="http://www.w3.org/2000/svg">
<path d="M1.66732 1.39165L2.73398 0.333313L16.6673 14.2666L15.609 15.3333L13.0423 12.7666C12.084 13.0833 11.0673 13.25 10.0007 13.25C5.83398 13.25 2.27565 10.6583 0.833984 6.99998C1.40898 5.53331 2.32565 4.24165 3.49232 3.21665L1.66732 1.39165ZM10.0007 4.49998C10.6637 4.49998 11.2996 4.76337 11.7684 5.23221C12.2373 5.70105 12.5007 6.33694 12.5007 6.99998C12.5011 7.28378 12.4532 7.56559 12.359 7.83331L9.16732 4.64165C9.43504 4.54747 9.71685 4.49956 10.0007 4.49998ZM10.0007 0.74998C14.1673 0.74998 17.7257 3.34165 19.1673 6.99998C18.4868 8.72742 17.3311 10.2269 15.834 11.325L14.6507 10.1333C15.8031 9.33619 16.7326 8.25757 17.3507 6.99998C16.677 5.62487 15.6311 4.46634 14.3318 3.65611C13.0325 2.84588 11.5319 2.41645 10.0007 2.41665C9.09232 2.41665 8.20065 2.56665 7.36732 2.83331L6.08398 1.55831C7.28398 1.04165 8.60898 0.74998 10.0007 0.74998ZM2.65065 6.99998C3.32427 8.37509 4.3702 9.53362 5.66951 10.3439C6.96883 11.1541 8.46941 11.5835 10.0007 11.5833C10.5757 11.5833 11.1423 11.525 11.6673 11.4083L9.76732 9.49998C9.18745 9.43783 8.64634 9.17904 8.23396 8.76667C7.82159 8.35429 7.56281 7.81318 7.50065 7.23331L4.66732 4.39165C3.84232 5.09998 3.15065 5.98331 2.65065 6.99998Z" fill="#0D263C"/>
</svg>
