<svg width="33" height="33" viewBox="0 0 33 33" fill="none" xmlns="http://www.w3.org/2000/svg">
<g clip-path="url(#clip0_43_131)">
<path d="M16.5 0C7.40194 0 0 7.40194 0 16.5C0 25.5974 7.40194 33 16.5 33C25.5974 33 33 25.5974 33 16.5C33 7.40194 25.5987 0 16.5 0ZM20.6034 17.0809H17.919V26.6488H13.9412C13.9412 26.6488 13.9412 21.4209 13.9412 17.0809H12.0503V13.6993H13.9412V11.512C13.9412 9.94546 14.6856 7.49764 17.9555 7.49764L20.9031 7.50894V10.7915C20.9031 10.7915 19.112 10.7915 18.7637 10.7915C18.4154 10.7915 17.9203 10.9657 17.9203 11.7127V13.6999H20.951L20.6034 17.0809Z" fill="#9F9F9F"/>
</g>
<defs>
<clipPath id="clip0_43_131">
<rect width="33" height="33" fill="white"/>
</clipPath>
</defs>
</svg>
