<svg width="19" height="17" viewBox="0 0 19 17" fill="none" xmlns="http://www.w3.org/2000/svg">
<g clip-path="url(#clip0_91_86)">
<path d="M6.77108 9.8127C6.70215 9.8127 5.18557 9.8127 4.49622 9.8127C4.12856 9.8127 4.01367 9.68859 4.01367 9.37832C4.01367 8.55093 4.01367 7.70286 4.01367 6.87547C4.01367 6.54451 4.15154 6.44109 4.49622 6.44109H6.77108C6.77108 6.37903 6.77108 5.17932 6.77108 4.62083C6.77108 3.79344 6.93193 3.00742 7.3915 2.28346C7.87405 1.53881 8.5634 1.04237 9.43658 0.752788C10.011 0.566625 10.5855 0.483887 11.2059 0.483887H13.4578C13.7795 0.483887 13.9174 0.607995 13.9174 0.897581V3.25564C13.9174 3.54523 13.7795 3.66933 13.4578 3.66933C12.8374 3.66933 12.217 3.66933 11.5965 3.69002C10.9761 3.69002 10.6544 3.95892 10.6544 4.53809C10.6315 5.15863 10.6544 5.75849 10.6544 6.39972H13.3199C13.6876 6.39972 13.8255 6.52383 13.8255 6.85478V9.35763C13.8255 9.68859 13.7106 9.79201 13.3199 9.79201C12.4927 9.79201 10.7234 9.79201 10.6544 9.79201V16.5352C10.6544 16.8869 10.5395 17.011 10.1259 17.011C9.16084 17.011 8.21872 17.011 7.25363 17.011C6.90895 17.011 6.77108 16.8869 6.77108 16.5766C6.77108 14.4047 6.77108 9.87475 6.77108 9.8127Z" fill="#2D3035"/>
</g>
<defs>
<clipPath id="clip0_91_86">
<rect width="18.0609" height="16.2581" fill="white" transform="translate(0 0.483887)"/>
</clipPath>
</defs>
</svg>
