<svg width="18" height="18" viewBox="0 0 18 18" fill="none" xmlns="http://www.w3.org/2000/svg">
<path d="M8.90248 4.6292C10.366 4.6292 11.6899 5.3697 12.4487 6.39005L14.247 4.60416C13.1715 3.22511 11.1014 2.13159 8.90248 2.13159C5.05236 2.13159 1.89453 5.20368 1.89453 9.00001C1.89453 12.7963 5.05236 15.8684 8.90248 15.8684C12.0941 15.8684 14.779 13.758 15.6022 10.8732C15.7795 10.2737 15.8682 9.64929 15.8682 9.00001V8.37561H9.53573V10.8727H12.8919C12.1954 12.3464 10.6629 13.3708 8.90248 13.3708C6.45821 13.3708 4.42753 11.4101 4.42753 9.00001C4.42753 6.58989 6.45821 4.6292 8.90248 4.6292Z" fill="#2D3035"/>
</svg>
