<svg xmlns="http://www.w3.org/2000/svg" width="50" height="50" viewBox="0 0 50 50" fill="none">
<path d="M25 13.091C27.8333 13.091 29.8182 8.46223 29.8182 5.95466C29.8182 3.29557 27.6591 1.13647 25 1.13647C22.3409 1.13647 20.1818 3.29557 20.1818 5.95466C20.1818 8.46223 22.1667 13.091 25 13.091ZM25 2.65163C26.8182 2.65163 28.303 4.1289 28.303 5.95466C28.303 7.96981 26.6364 11.5759 25 11.5759C23.3636 11.5759 21.697 7.96981 21.697 5.95466C21.697 4.1289 23.1818 2.65163 25 2.65163Z" fill="#bac819"/>
<path d="M47.2197 17.1365H36.8485C36.5454 17.1365 36.2651 17.3183 36.1515 17.5986C36.0303 17.8789 36.0985 18.2047 36.3106 18.4244L38.8788 21.0531L25.3257 34.8713C25.0757 35.1213 24.9242 35.1213 24.6742 34.8713L11.1212 21.0456L13.6894 18.4168C13.9015 18.1971 13.9621 17.8713 13.8485 17.591C13.7273 17.3107 13.4545 17.1289 13.1515 17.1289H2.78028C2.36361 17.1289 2.02271 17.4698 2.02271 17.8865V28.4622C2.02271 28.7728 2.2121 29.0456 2.4924 29.1668C2.77271 29.2804 3.10604 29.2122 3.31816 28.9925L5.86361 26.3941L18.3182 39.091V48.1062C18.3182 48.5228 18.6591 48.8638 19.0757 48.8638H30.9242C31.3409 48.8638 31.6818 48.5228 31.6818 48.1062V39.091L44.1288 26.3941L46.6742 28.9925C46.8939 29.2122 47.2197 29.2804 47.5 29.1668C47.7879 29.0531 47.9697 28.7728 47.9697 28.4622V17.8941C47.9773 17.4698 47.6363 17.1365 47.2197 17.1365ZM46.4621 26.6138L44.6742 24.788C44.5303 24.6441 44.3333 24.5607 44.1363 24.5607C43.9394 24.5607 43.7348 24.6441 43.5985 24.788L30.3863 38.2577C30.25 38.4016 30.1666 38.591 30.1666 38.788V47.3486H19.8333V38.788C19.8333 38.591 19.7576 38.4016 19.6136 38.2577L6.40907 24.788C6.12119 24.5001 5.61361 24.5001 5.32574 24.788L3.53786 26.6138V18.6516H11.3485L9.52271 20.5228C9.23483 20.8183 9.23483 21.288 9.52271 21.5835L23.5909 35.9395C24.1212 36.4774 24.6515 36.591 25 36.591C25.3485 36.591 25.8788 36.4774 26.4091 35.9395L40.4773 21.5835C40.7651 21.288 40.7651 20.8183 40.4773 20.5228L38.6515 18.6516H46.4621V26.6138Z" fill="#bac819"/>
<path d="M25 42.8789C24.5833 42.8789 24.2424 43.2198 24.2424 43.6365V44.3789C24.2424 44.7956 24.5833 45.1365 25 45.1365C25.4167 45.1365 25.7576 44.7956 25.7576 44.3789V43.6365C25.7576 43.2198 25.4167 42.8789 25 42.8789Z" fill="#bac819"/>
<path d="M25 39.1516C24.5833 39.1516 24.2424 39.4925 24.2424 39.9092V40.6516C24.2424 41.0683 24.5833 41.4092 25 41.4092C25.4167 41.4092 25.7576 41.0683 25.7576 40.6516V39.9092C25.7576 39.4925 25.4167 39.1516 25 39.1516Z" fill="#bac819"/>
<path d="M16.1136 23.0911C16.5303 23.0911 16.8712 22.7502 16.8712 22.3335V18.0229C16.8712 16.9244 17.5378 15.9547 18.5681 15.6062L21.3939 14.4395L24.3712 18.9017C24.5151 19.1138 24.75 19.2426 25 19.2426C25.25 19.2426 25.4924 19.1138 25.6287 18.9017L28.606 14.4395L31.4772 15.6214C32.4697 15.9623 33.1287 16.9244 33.1287 18.0229V22.3335C33.1287 22.7502 33.4697 23.0911 33.8863 23.0911C34.303 23.0911 34.6439 22.7502 34.6439 22.3335V18.0229C34.6439 16.2729 33.5681 14.735 32.0075 14.2047L28.606 12.8032C28.2727 12.6668 27.8863 12.7805 27.6894 13.0835L25 17.1138L22.3106 13.0759C22.1136 12.7729 21.7272 12.6592 21.3939 12.7956L18.0378 14.182C16.4318 14.7274 15.356 16.2729 15.356 18.0153V22.3259C15.356 22.7502 15.6969 23.0911 16.1136 23.0911Z" fill="#bac819"/>
</svg>