<svg width="40" height="41" viewBox="0 0 40 41" fill="none" xmlns="http://www.w3.org/2000/svg">
<circle cx="20" cy="20.6826" r="20" fill="#F9FCFF" fill-opacity="0.2"/>
<path d="M20 18.0792C18.5664 18.0792 17.3965 19.2491 17.3965 20.6827C17.3965 22.1163 18.5664 23.2862 20 23.2862C21.4336 23.2862 22.6035 22.1163 22.6035 20.6827C22.6035 19.2491 21.4336 18.0792 20 18.0792ZM27.8086 20.6827C27.8086 19.6046 27.8184 18.5362 27.7578 17.4601C27.6973 16.2101 27.4121 15.1007 26.498 14.1866C25.582 13.2706 24.4746 12.9874 23.2246 12.9269C22.1465 12.8663 21.0781 12.8761 20.002 12.8761C18.9238 12.8761 17.8555 12.8663 16.7793 12.9269C15.5293 12.9874 14.4199 13.2726 13.5059 14.1866C12.5898 15.1026 12.3066 16.2101 12.2461 17.4601C12.1855 18.5382 12.1953 19.6065 12.1953 20.6827C12.1953 21.7589 12.1855 22.8292 12.2461 23.9054C12.3066 25.1554 12.5918 26.2647 13.5059 27.1788C14.4219 28.0948 15.5293 28.378 16.7793 28.4386C17.8574 28.4991 18.9258 28.4894 20.002 28.4894C21.0801 28.4894 22.1484 28.4991 23.2246 28.4386C24.4746 28.378 25.584 28.0929 26.498 27.1788C27.4141 26.2628 27.6973 25.1554 27.7578 23.9054C27.8203 22.8292 27.8086 21.7608 27.8086 20.6827ZM20 24.6886C17.7832 24.6886 15.9941 22.8995 15.9941 20.6827C15.9941 18.4659 17.7832 16.6769 20 16.6769C22.2168 16.6769 24.0059 18.4659 24.0059 20.6827C24.0059 22.8995 22.2168 24.6886 20 24.6886ZM24.1699 17.4483C23.6523 17.4483 23.2344 17.0304 23.2344 16.5128C23.2344 15.9952 23.6523 15.5772 24.1699 15.5772C24.6875 15.5772 25.1055 15.9952 25.1055 16.5128C25.1056 16.6357 25.0815 16.7574 25.0346 16.871C24.9876 16.9846 24.9187 17.0878 24.8318 17.1747C24.7449 17.2616 24.6417 17.3305 24.5281 17.3774C24.4145 17.4244 24.2928 17.4485 24.1699 17.4483Z" fill="#F9FCFF"/>
</svg>
