<svg width="33" height="33" viewBox="0 0 33 33" fill="none" xmlns="http://www.w3.org/2000/svg">
<g clip-path="url(#clip0_43_135)">
<path d="M16.5 19.8838C18.3688 19.8838 19.8838 18.3688 19.8838 16.5C19.8838 14.6312 18.3688 13.1162 16.5 13.1162C14.6312 13.1162 13.1162 14.6312 13.1162 16.5C13.1162 18.3688 14.6312 19.8838 16.5 19.8838Z" fill="#9F9F9F"/>
<path d="M16.5 0.386719C7.60089 0.386719 0.386719 7.60089 0.386719 16.5C0.386719 25.3991 7.60089 32.6133 16.5 32.6133C25.3991 32.6133 32.6133 25.3991 32.6133 16.5C32.6133 7.60089 25.3991 0.386719 16.5 0.386719ZM26.4553 20.5954C26.378 22.1273 25.9475 23.6379 24.8311 24.7425C23.7039 25.8575 22.1861 26.273 20.6394 26.3495H12.3607C10.8138 26.273 9.2962 25.8578 8.16898 24.7425C7.05253 23.6379 6.62211 22.1273 6.54476 20.5954V12.4046C6.62211 10.8727 7.05259 9.36207 8.16898 8.25748C9.2962 7.14244 10.814 6.72697 12.3607 6.65047H20.6393C22.1862 6.72697 23.7038 7.14224 24.831 8.25748C25.9475 9.36207 26.3779 10.8727 26.4552 12.4046L26.4553 20.5954Z" fill="#9F9F9F"/>
<path d="M20.5348 8.51682C18.5183 8.46152 14.4822 8.46152 12.4658 8.51682C11.4164 8.54563 10.2268 8.80686 9.47913 9.60543C8.70221 10.4355 8.40863 11.4384 8.37885 12.5603C8.32652 14.5295 8.37885 20.4399 8.37885 20.4399C8.41295 21.5617 8.70221 22.5647 9.47913 23.3948C10.2268 24.1936 11.4164 24.4546 12.4658 24.4834C14.4822 24.5387 18.5183 24.5387 20.5348 24.4834C21.5841 24.4546 22.7737 24.1934 23.5214 23.3948C24.2983 22.5647 24.5919 21.5618 24.6217 20.4399V12.5603C24.5919 11.4384 24.2983 10.4355 23.5214 9.60543C22.7735 8.8066 21.5839 8.54563 20.5348 8.51682ZM16.5 21.745C15.4627 21.745 14.4486 21.4374 13.5861 20.8611C12.7236 20.2847 12.0514 19.4656 11.6544 18.5072C11.2574 17.5489 11.1535 16.4943 11.3559 15.4769C11.5583 14.4595 12.0578 13.5249 12.7913 12.7914C13.5248 12.0579 14.4594 11.5584 15.4768 11.356C16.4942 11.1536 17.5488 11.2575 18.5071 11.6545C19.4655 12.0515 20.2846 12.7237 20.861 13.5862C21.4373 14.4487 21.7449 15.4628 21.7449 16.5001C21.7449 17.8911 21.1923 19.2252 20.2087 20.2088C19.2251 21.1924 17.891 21.745 16.5 21.745ZM21.7672 12.3379C21.5597 12.3378 21.3569 12.2762 21.1845 12.1609C21.012 12.0457 20.8776 11.8818 20.7982 11.6901C20.7189 11.4984 20.6982 11.2875 20.7387 11.0841C20.7792 10.8806 20.8791 10.6937 21.0258 10.5471C21.1725 10.4004 21.3594 10.3005 21.5629 10.26C21.7664 10.2196 21.9773 10.2404 22.1689 10.3198C22.3606 10.3992 22.5244 10.5336 22.6396 10.7061C22.7549 10.8786 22.8164 11.0814 22.8164 11.2889C22.8164 11.4267 22.7893 11.5631 22.7365 11.6904C22.6838 11.8177 22.6065 11.9333 22.5091 12.0307C22.4117 12.1281 22.296 12.2054 22.1687 12.2581C22.0414 12.3108 21.905 12.3379 21.7672 12.3379Z" fill="#9F9F9F"/>
</g>
<defs>
<clipPath id="clip0_43_135">
<rect width="33" height="33" fill="white"/>
</clipPath>
</defs>
</svg>
