<svg width="30" height="24" viewBox="0 0 30 24" fill="none" xmlns="http://www.w3.org/2000/svg">
<path d="M26.333 0.666687H3.66634C2.91489 0.666687 2.19422 0.965198 1.66287 1.49655C1.13152 2.0279 0.833008 2.74857 0.833008 3.50002V20.5C0.833008 21.2515 1.13152 21.9721 1.66287 22.5035C2.19422 23.0348 2.91489 23.3334 3.66634 23.3334H26.333C27.0845 23.3334 27.8051 23.0348 28.3365 22.5035C28.8678 21.9721 29.1663 21.2515 29.1663 20.5V3.50002C29.1663 2.74857 28.8678 2.0279 28.3365 1.49655C27.8051 0.965198 27.0845 0.666687 26.333 0.666687ZM26.333 6.66769L14.9997 13.5839L3.66634 6.66769V3.50002H26.333V6.66769Z" fill="#EC6325"/>
</svg>
