<svg width="40" height="40" viewBox="0 0 40 40" fill="none" xmlns="http://www.w3.org/2000/svg">
<path d="M15 3.33325C10.6333 3.33325 7.08333 6.88325 7.08333 11.2499C7.08333 15.5333 10.4333 18.9999 14.8 19.1499C14.9333 19.1333 15.0667 19.1333 15.1667 19.1499C15.2 19.1499 15.2167 19.1499 15.25 19.1499C15.2667 19.1499 15.2667 19.1499 15.2833 19.1499C19.55 18.9999 22.9 15.5333 22.9167 11.2499C22.9167 6.88325 19.3667 3.33325 15 3.33325Z" fill="#0D263C"/>
<path d="M23.4682 23.5816C18.8182 20.4816 11.2349 20.4816 6.55157 23.5816C4.4349 24.9983 3.26823 26.9149 3.26823 28.9649C3.26823 31.0149 4.4349 32.9149 6.5349 34.3149C8.86823 35.8816 11.9349 36.6649 15.0016 36.6649C18.0682 36.6649 21.1348 35.8816 23.4682 34.3149C25.5682 32.8983 26.7348 30.9983 26.7348 28.9316C26.7182 26.8816 25.5682 24.9816 23.4682 23.5816Z" fill="#0D263C"/>
<path d="M33.3157 12.2302C33.5823 15.4636 31.2823 18.2968 28.099 18.6802C28.0823 18.6802 28.0823 18.6802 28.0657 18.6802H28.0157C27.9157 18.6802 27.8157 18.6802 27.7323 18.7135C26.1157 18.7968 24.6323 18.2802 23.5157 17.3302C25.2323 15.7969 26.2157 13.4969 26.0157 10.9969C25.899 9.64691 25.4323 8.41358 24.7323 7.36358C25.3657 7.04691 26.099 6.84691 26.849 6.78024C30.1157 6.49691 33.0323 8.93024 33.3157 12.2302Z" fill="#0D263C"/>
<path d="M36.6472 27.6506C36.5138 29.2672 35.4805 30.6672 33.7472 31.6172C32.0805 32.5339 29.9805 32.9672 27.8972 32.9172C29.0972 31.8339 29.7972 30.4839 29.9305 29.0506C30.0972 26.9839 29.1138 25.0006 27.1472 23.4172C26.0305 22.5339 24.7305 21.8339 23.3138 21.3172C26.9972 20.2506 31.6305 20.9672 34.4805 23.2672C36.0138 24.5006 36.7972 26.0506 36.6472 27.6506Z" fill="#0D263C"/>
</svg>
