<svg width="16" height="12" viewBox="0 0 16 12" fill="none" xmlns="http://www.w3.org/2000/svg">
<path d="M3.25667 7.25002H8.57667C8.77056 7.25002 8.93111 7.18613 9.05833 7.05835C9.18556 6.93058 9.24944 6.77002 9.25 6.57669V2.92335C9.25 2.73002 9.18611 2.56946 9.05833 2.44169C8.93056 2.31391 8.77 2.25002 8.57667 2.25002H3.25667C3.06333 2.25002 2.90278 2.31391 2.775 2.44169C2.64722 2.56946 2.58333 2.73002 2.58333 2.92335V6.57669C2.58333 6.77058 2.64722 6.93113 2.775 7.05835C2.90278 7.18558 3.06333 7.24946 3.25667 7.25002ZM1.84667 11.8334C1.46278 11.8334 1.1425 11.705 0.885833 11.4484C0.629167 11.1917 0.500556 10.8711 0.5 10.4867V1.51335C0.5 1.12946 0.628611 0.809187 0.885833 0.55252C1.14306 0.295854 1.46306 0.167243 1.84583 0.166687H14.1542C14.5375 0.166687 14.8575 0.295298 15.1142 0.55252C15.3708 0.809742 15.4994 1.13002 15.5 1.51335V10.4875C15.5 10.8709 15.3714 11.1911 15.1142 11.4484C14.8569 11.7056 14.5369 11.8339 14.1542 11.8334H1.84667Z" fill="#EC6325"/>
</svg>
