<svg width="50" height="50" viewBox="0 0 50 50" fill="none" xmlns="http://www.w3.org/2000/svg">
<path d="M32.0306 10.1604C30.2802 10.1604 28.5828 10.4237 26.9743 10.9258C24.7373 9.94428 22.2119 9.37915 19.531 9.37915C10.4852 9.37915 3.12536 15.6873 3.12536 23.4412V39.0641C3.09613 40.4225 4.83718 41.1582 5.80244 40.1558C5.80243 40.1558 10.3067 35.0748 10.3067 35.0748C13.0234 36.6655 16.1971 37.5032 19.5311 37.5032C22.8079 37.5032 25.8565 36.6666 28.4212 35.2422C32.4034 36.1229 36.8983 35.4812 40.3181 33.4628C40.3181 33.4628 44.2067 37.8217 44.2067 37.8217C45.1214 38.8207 46.928 38.0703 46.8738 36.7204C46.8738 36.7204 46.8738 22.8942 46.8738 22.8942C46.8738 15.8727 40.2151 10.1604 32.0306 10.1604ZM10.5775 33.4086C10.2548 33.2034 9.82756 33.2602 9.57199 33.5482L4.68782 39.0641V23.4412C5.4844 6.8665 33.5778 6.86622 34.3743 23.4413C34.3837 34.1425 19.5255 39.4241 10.5775 33.4086ZM45.3114 36.7132L41.0505 31.9366C40.795 31.649 40.367 31.5917 40.0458 31.7989C37.3159 33.5722 33.7454 34.3509 30.3624 33.9749C38.332 28.1016 37.5333 17.0615 29.0561 12.0144C36.7618 10.2883 45.5136 15.7159 45.3112 22.8943C45.3114 22.8942 45.3114 36.7132 45.3114 36.7132Z" fill="#EC6325"/>
<path d="M19.531 13.2854C13.9312 13.2854 9.37512 17.8411 9.37512 23.4413C9.93297 36.9145 29.1311 36.9105 29.6869 23.4412C29.6869 17.8411 25.1308 13.2854 19.531 13.2854ZM19.531 32.0348C14.7926 32.0348 10.9376 28.1798 10.9376 23.4413C11.4096 12.0409 27.6542 12.0442 28.1245 23.4414C28.1245 28.1798 24.2695 32.0348 19.531 32.0348Z" fill="#EC6325"/>
<path d="M23.666 19.764L17.9686 25.4614L15.3961 22.8888C14.6735 22.1699 13.5704 23.2679 14.2914 23.9936C14.2914 23.9935 17.4163 27.1184 17.4163 27.1184C17.7214 27.4236 18.2158 27.4236 18.521 27.1184L24.7707 20.8687C25.4875 20.1459 24.3939 19.0428 23.666 19.764Z" fill="#EC6325"/>
</svg>
