<svg width="40" height="40" viewBox="0 0 40 40" fill="none" xmlns="http://www.w3.org/2000/svg">
<path d="M17.0833 16.7167C17.0833 17.6167 17.3333 17.7501 17.9 17.9501L18.75 18.2501V15.4167H18.25C17.6166 15.4167 17.0833 16.0001 17.0833 16.7167Z" fill="#0D263C"/>
<path d="M21.25 24.5846H21.75C22.4 24.5846 22.9167 24.0012 22.9167 23.2846C22.9167 22.3846 22.6667 22.2512 22.1 22.0512L21.25 21.7512V24.5846Z" fill="#0D263C"/>
<path d="M32.6333 9.13325L29.2166 12.5499C28.9666 12.7999 28.65 12.9166 28.3333 12.9166C28.0166 12.9166 27.7 12.7999 27.45 12.5499C26.9666 12.0666 26.9666 11.2666 27.45 10.7833L30.8666 7.36659C27.9333 4.86659 24.15 3.33325 20 3.33325C10.8 3.33325 3.33331 10.7999 3.33331 19.9999C3.33331 29.1999 10.8 36.6666 20 36.6666C29.2 36.6666 36.6666 29.1999 36.6666 19.9999C36.6666 15.8499 35.1333 12.0666 32.6333 9.13325ZM22.9166 19.6999C23.9833 20.0833 25.4166 20.8499 25.4166 23.2999C25.4166 25.3833 23.7666 27.0999 21.75 27.0999H21.25V27.5166C21.25 28.1999 20.6833 28.7666 20 28.7666C19.3166 28.7666 18.75 28.1999 18.75 27.5166V27.0999H18.6166C16.4 27.0999 14.5833 25.2333 14.5833 22.9333C14.5833 22.2333 15.15 21.6666 15.8333 21.6666C16.5166 21.6666 17.0833 22.2333 17.0833 22.9166C17.0833 23.8333 17.7666 24.5833 18.6166 24.5833H18.75V20.8833L17.0833 20.2999C16.0166 19.9166 14.5833 19.1499 14.5833 16.6999C14.5833 14.6166 16.2333 12.8999 18.25 12.8999H18.75V12.4999C18.75 11.8166 19.3166 11.2499 20 11.2499C20.6833 11.2499 21.25 11.8166 21.25 12.4999V12.9166H21.3833C23.6 12.9166 25.4166 14.7833 25.4166 17.0833C25.4166 17.7666 24.85 18.3333 24.1666 18.3333C23.4833 18.3333 22.9166 17.7666 22.9166 17.0833C22.9166 16.1666 22.2333 15.4166 21.3833 15.4166H21.25V19.1166L22.9166 19.6999Z" fill="#0D263C"/>
<path d="M37.8167 2.84992C37.6833 2.54992 37.45 2.29992 37.1333 2.16659C36.9833 2.11659 36.8333 2.08325 36.6667 2.08325H30C29.3167 2.08325 28.75 2.64992 28.75 3.33325C28.75 4.01659 29.3167 4.58325 30 4.58325H33.65L30.8667 7.36659C31.5 7.91659 32.0833 8.49992 32.6333 9.13325L35.4167 6.34992V9.99992C35.4167 10.6833 35.9833 11.2499 36.6667 11.2499C37.35 11.2499 37.9167 10.6833 37.9167 9.99992V3.33325C37.9167 3.16659 37.8833 3.01659 37.8167 2.84992Z" fill="#0D263C"/>
</svg>
