<svg width="50" height="50" viewBox="0 0 50 50" fill="none" xmlns="http://www.w3.org/2000/svg">
<path d="M42.1967 15.7542C43.1067 14.8871 43.6757 13.665 43.6757 12.3118C43.6757 9.68867 41.5416 7.55469 38.9185 7.55469C36.2955 7.55469 34.1614 9.68877 34.1614 12.3118C34.1614 13.665 34.7303 14.887 35.6403 15.7541C33.1601 16.4422 31.5033 17.8827 31.0235 19.7563C30.2842 19.1968 29.3597 18.7533 28.2782 18.4532C29.1883 17.5861 29.7572 16.3641 29.7572 15.0108C29.7572 12.3877 27.6231 10.2537 25.0001 10.2537C22.377 10.2537 20.243 12.3878 20.243 15.0108C20.243 16.3641 20.8118 17.5861 21.722 18.4532C20.6405 18.7533 19.716 19.1968 18.9766 19.7563C18.4969 17.8827 16.84 16.4421 14.3598 15.7541C15.2699 14.887 15.8388 13.665 15.8388 12.3118C15.8388 9.68867 13.7047 7.55469 11.0816 7.55469C8.45858 7.55469 6.3245 9.68877 6.3245 12.3118C6.3245 13.665 6.89344 14.8872 7.8035 15.7542C4.833 16.5786 3.04139 18.4813 3.04139 20.9153V24.669C3.04139 24.9925 3.3035 25.2545 3.62684 25.2545H16.9599V27.3681C16.9599 27.6915 17.2221 27.9535 17.5454 27.9535H32.455C32.7783 27.9535 33.0404 27.6914 33.0404 27.3681V25.2545H46.3735C46.6969 25.2545 46.959 24.9924 46.959 24.669V20.9153C46.959 18.4812 45.1674 16.5785 42.1969 15.7542H42.1967ZM35.3323 12.3118C35.3323 10.3344 36.9411 8.72559 38.9185 8.72559C40.896 8.72559 42.5048 10.3344 42.5048 12.3118C42.5048 14.2893 40.896 15.898 38.9185 15.898C36.9411 15.898 35.3323 14.2893 35.3323 12.3118ZM21.4138 15.0108C21.4138 13.0334 23.0225 11.4246 25 11.4246C26.9774 11.4246 28.5862 13.0334 28.5862 15.0108C28.5862 16.9883 26.9774 18.5971 25 18.5971C23.0225 18.5971 21.4138 16.9883 21.4138 15.0108ZM7.4952 12.3118C7.4952 10.3344 9.10399 8.72559 11.0814 8.72559C13.0589 8.72559 14.6677 10.3344 14.6677 12.3118C14.6677 14.2893 13.0589 15.898 11.0814 15.898C9.10399 15.898 7.4952 14.2893 7.4952 12.3118ZM4.2121 24.0836V20.9153C4.2121 18.3927 6.72899 17.0692 9.1452 16.6554C9.73719 16.9203 10.3921 17.0688 11.0814 17.0688C11.7708 17.0688 12.4258 16.9202 13.0178 16.6553C15.3841 17.0603 17.8452 18.3387 17.9459 20.7615C17.3066 21.5793 16.9598 22.5452 16.9598 23.6143V24.0835H4.2121V24.0836ZM31.8693 26.7826H18.1307V23.6144C18.1307 21.0917 20.6474 19.7683 23.0637 19.3544C23.6557 19.6193 24.3106 19.768 25 19.768C25.6893 19.768 26.3443 19.6193 26.9363 19.3544C29.3525 19.7683 31.8693 21.0917 31.8693 23.6144V26.7826ZM45.7879 24.0836H33.0402V23.6144C33.0402 22.5452 32.6933 21.5793 32.0541 20.7615C32.1548 18.3388 34.6159 17.0604 36.9822 16.6554C37.5742 16.9203 38.2292 17.0689 38.9185 17.0689C39.6079 17.0689 40.2628 16.9203 40.8548 16.6555C43.271 17.0693 45.7879 18.3928 45.7879 20.9154V24.0836ZM22.4313 6.05859L21.9292 8.54463C21.8838 8.76924 21.9736 8.99961 22.1591 9.13428C22.3443 9.26895 22.5913 9.2831 22.7908 9.17051L25 7.92383L27.2093 9.17051C27.2989 9.22109 27.398 9.24609 27.497 9.24609C27.6182 9.24609 27.7389 9.2085 27.8411 9.13428C28.0264 8.99971 28.1163 8.76924 28.0709 8.54463L27.5687 6.05859L29.4349 4.34424C29.6036 4.18926 29.6665 3.9502 29.5957 3.73232C29.525 3.51445 29.3337 3.35781 29.1061 3.33154L26.5882 3.04014L25.5323 0.73252C25.437 0.524219 25.229 0.390625 24.9999 0.390625H24.9997C24.7705 0.390625 24.5625 0.524512 24.4673 0.73291L23.4141 3.04004L20.8938 3.33145C20.6662 3.35781 20.4749 3.51436 20.4042 3.73223C20.3334 3.9501 20.3963 4.18926 20.5649 4.34424L22.4311 6.05859H22.4313ZM23.8769 4.16523C24.0807 4.1417 24.2572 4.01328 24.3424 3.82676L25.0007 2.38447L25.6607 3.82715C25.746 4.01348 25.9224 4.1416 26.1258 4.16514L27.7005 4.34736L26.5334 5.41953C26.3825 5.5582 26.315 5.76562 26.3556 5.9666L26.6696 7.52129L25.2878 6.7415C25.1985 6.69111 25.0993 6.66592 25.0001 6.66592C24.9009 6.66592 24.8016 6.69111 24.7124 6.7415L23.3306 7.52119L23.6445 5.9666C23.6851 5.76562 23.6177 5.5582 23.4667 5.41953L22.2998 4.34746L23.8769 4.16504V4.16523ZM46.3734 27.065H35.8542C35.5308 27.065 35.2687 27.3271 35.2687 27.6505C35.2687 33.3126 30.6622 37.9191 25.0001 37.9191C19.338 37.9191 14.7314 33.3126 14.7314 27.6505C14.7314 27.327 14.4693 27.065 14.146 27.065H3.62665C3.30331 27.065 3.0412 27.3271 3.0412 27.6505V30.0754C3.0412 31.1094 3.71249 31.9852 4.71288 32.2549L7.43964 32.9837C7.7871 34.1321 8.24686 35.2442 8.80995 36.2985L7.39872 38.7415C6.88426 39.636 7.02831 40.7291 7.758 41.4625L11.1878 44.8924C11.9184 45.6229 13.0119 45.7673 13.9099 45.2511L16.3518 43.8405C17.4062 44.4036 18.5186 44.8635 19.6667 45.2107L20.3958 47.939C20.6652 48.938 21.541 49.6093 22.5749 49.6093H27.4248C28.4588 49.6093 29.3346 48.938 29.6043 47.9376L30.3331 45.2107C31.4811 44.8634 32.5934 44.4036 33.6479 43.8405L36.0909 45.2517C36.9877 45.7674 38.0812 45.6231 38.812 44.8924L42.2419 41.4625C42.9725 40.7319 43.1169 39.6384 42.6006 38.7404L41.1899 36.2985C41.753 35.2442 42.2128 34.132 42.5602 32.9837L45.2884 32.2545C46.2875 31.9851 46.9588 31.1093 46.9588 30.0754V27.6505C46.9588 27.327 46.6967 27.065 46.3733 27.065H46.3734ZM45.788 30.0754C45.788 30.5728 45.4647 30.9942 44.9848 31.1236L41.9398 31.9375C41.7404 31.9908 41.5838 32.1452 41.5276 32.3438C41.1651 33.6262 40.6536 34.8635 40.0074 36.0213C39.9069 36.2014 39.9086 36.421 40.0117 36.5995L41.5862 39.3251C41.8385 39.7637 41.7709 40.2777 41.414 40.6345L37.9842 44.0644C37.6273 44.4211 37.1134 44.4888 36.6759 44.2371L33.9492 42.662C33.7707 42.5588 33.5511 42.5573 33.3711 42.6577C32.2127 43.3041 30.9754 43.8155 29.6935 44.1778C29.4949 44.234 29.3405 44.3906 29.2872 44.5901L28.4736 47.634C28.3439 48.115 27.9225 48.4383 27.4251 48.4383H22.5752C22.0777 48.4383 21.6563 48.1149 21.5269 47.6352L20.7131 44.59C20.6598 44.3906 20.5054 44.234 20.3067 44.1777C19.0248 43.8154 17.7876 43.304 16.6293 42.6576C16.5406 42.6081 16.4423 42.5834 16.344 42.5834C16.2429 42.5834 16.1417 42.6097 16.0512 42.6619L13.3255 44.2364C12.887 44.4885 12.3729 44.4211 12.0161 44.0643L8.58739 40.6354C8.23055 40.2769 8.16259 39.7625 8.41356 39.3261L9.98866 36.5994C10.0918 36.4209 10.0934 36.2013 9.99296 36.0212C9.34677 34.8634 8.83534 33.6261 8.47274 32.3437C8.41659 32.1451 8.25995 31.9907 8.06053 31.9374L5.01678 31.1239C4.53563 30.9941 4.21239 30.5727 4.21239 30.0753V28.2358H13.5754C13.8812 34.2727 18.8888 39.0899 25.0002 39.0899C31.1116 39.0899 36.1191 34.2727 36.425 28.2358H45.7881V30.0753L45.788 30.0754Z" fill="#EC6325"/>
</svg>
