<svg width="40" height="40" viewBox="0 0 40 40" fill="none" xmlns="http://www.w3.org/2000/svg">
<g clip-path="url(#clip0_23_146)">
<path d="M10 3.33325V6.66659H8.33333C6.5 6.66659 5 8.16658 5 9.99992V33.3333C5 35.1666 6.5 36.6666 8.33333 36.6666H31.6667C33.5 36.6666 35 35.1666 35 33.3333V9.99992C35 8.16658 33.5 6.66659 31.6667 6.66659H30V3.33325H26.6667V6.66659H13.3333V3.33325H10ZM8.33333 14.9999H31.6667V33.3333H8.33333V14.9999Z" fill="#0D263C"/>
<path d="M26.5 30.4999L22.5 27.9999L18.3333 30.4999L19.3333 25.9999L15.8333 22.9999L20.5 22.6666L22.3333 18.3333L24.1667 22.6666L28.8333 23.1666L25.3333 26.1666L26.5 30.4999Z" fill="#0D263C"/>
</g>
<defs>
<clipPath id="clip0_23_146">
<rect width="40" height="40" fill="white"/>
</clipPath>
</defs>
</svg>
