<svg width="18" height="16" viewBox="0 0 18 16" fill="none" xmlns="http://www.w3.org/2000/svg">
<path d="M16.0417 3.45833C15.8873 3.30617 15.6793 3.22086 15.4625 3.22086C15.2457 3.22086 15.0377 3.30617 14.8833 3.45833L13.075 5.25C12.9976 5.32532 12.9362 5.41537 12.8942 5.51485C12.8522 5.61432 12.8306 5.7212 12.8306 5.82917C12.8306 5.93714 12.8522 6.04401 12.8942 6.14349C12.9362 6.24296 12.9976 6.33301 13.075 6.40833L13.0833 6.41667C13.4083 6.74167 13.925 6.74167 14.25 6.41667C14.7667 5.89167 15.5167 5.13333 16.0417 4.60833C16.3583 4.29167 16.3583 3.775 16.0417 3.45833ZM9.01667 0.5H8.99167C8.53333 0.5 8.16667 0.866667 8.16667 1.31667V3.84167C8.16667 4.3 8.53333 4.66667 8.98333 4.66667H9.00834C9.46667 4.66667 9.83333 4.3 9.83333 3.85V1.31667C9.83333 0.866667 9.46667 0.5 9.01667 0.5ZM4.91667 6.425L4.925 6.41667C5.07717 6.2623 5.16247 6.05426 5.16247 5.8375C5.16247 5.62074 5.07717 5.4127 4.925 5.25833L3.13333 3.45C3.05802 3.37264 2.96796 3.31115 2.86849 3.26917C2.76901 3.22718 2.66214 3.20555 2.55417 3.20555C2.4462 3.20555 2.33932 3.22718 2.23985 3.26917C2.14037 3.31115 2.05032 3.37264 1.975 3.45L1.95833 3.45833C1.88097 3.53365 1.81949 3.62371 1.7775 3.72318C1.73552 3.82265 1.71389 3.92953 1.71389 4.0375C1.71389 4.14547 1.73552 4.25235 1.7775 4.35182C1.81949 4.45129 1.88097 4.54135 1.95833 4.61667C2.48333 5.13333 3.23333 5.9 3.75 6.425C4.075 6.74167 4.6 6.74167 4.91667 6.425ZM9 10.5C7.96667 10.5 7.075 9.875 6.7 8.975C6.43333 8.35833 5.78334 8 5.11667 8H2.33333C1.41667 8 0.666668 8.75 0.666668 9.66667V13.8333C0.666668 14.75 1.41667 15.5 2.33333 15.5H15.6667C16.5833 15.5 17.3333 14.75 17.3333 13.8333V9.66667C17.3333 8.75 16.5833 8 15.6667 8H12.8833C12.2167 8 11.5667 8.35833 11.3 8.975C11.11 9.42784 10.7902 9.81431 10.3809 10.0857C9.97157 10.3571 9.4911 10.5012 9 10.5Z" fill="#EC6325"/>
</svg>
