<svg width="33" height="33" viewBox="0 0 33 33" fill="none" xmlns="http://www.w3.org/2000/svg">
<g clip-path="url(#clip0_43_139)">
<path d="M14.2117 19.1618L18.7882 16.5066L14.2117 13.8384V19.1618Z" fill="#9F9F9F"/>
<path d="M16.5 0C13.2366 0 10.0465 0.967708 7.3331 2.78075C4.61969 4.59379 2.50484 7.17074 1.256 10.1857C0.00714915 13.2007 -0.319606 16.5183 0.31705 19.719C0.953707 22.9197 2.52518 25.8597 4.83275 28.1673C7.14031 30.4748 10.0803 32.0463 13.281 32.683C16.4817 33.3196 19.7993 32.9929 22.8143 31.744C25.8293 30.4952 28.4062 28.3803 30.2193 25.6669C32.0323 22.9535 33 19.7634 33 16.5C33 12.1239 31.2616 7.92709 28.1673 4.83274C25.0729 1.73839 20.8761 0 16.5 0ZM25.1842 19.4201C25.1845 19.8516 25.0998 20.279 24.9348 20.6778C24.7699 21.0766 24.5279 21.4389 24.2229 21.7442C23.9178 22.0494 23.5556 22.2916 23.157 22.4568C22.7583 22.622 22.331 22.707 21.8994 22.707H11.1006C10.6691 22.707 10.2417 22.622 9.84306 22.4568C9.44439 22.2916 9.08218 22.0494 8.77713 21.7442C8.47208 21.4389 8.23016 21.0766 8.06522 20.6778C7.90027 20.279 7.81551 19.8516 7.8158 19.4201V13.5799C7.81551 13.1484 7.90027 12.721 8.06522 12.3222C8.23016 11.9234 8.47208 11.5611 8.77713 11.2558C9.08218 10.9506 9.44439 10.7084 9.84306 10.5432C10.2417 10.378 10.6691 10.293 11.1006 10.293H21.8994C22.331 10.293 22.7583 10.378 23.157 10.5432C23.5556 10.7084 23.9178 10.9506 24.2229 11.2558C24.5279 11.5611 24.7699 11.9234 24.9348 12.3222C25.0998 12.721 25.1845 13.1484 25.1842 13.5799V19.4201Z" fill="#9F9F9F"/>
</g>
<defs>
<clipPath id="clip0_43_139">
<rect width="33" height="33" fill="white"/>
</clipPath>
</defs>
</svg>
